SplineFontDB: 3.2
FontName: icons8-win10
FullName: icons8-win10
FamilyName: icons8-win10
Weight: Regular
ItalicAngle: 0
UnderlinePosition: -51.2
UnderlineWidth: 25.6
Ascent: 448
Descent: 64
InvalidEm: 0
LayerCount: 2
Layer: 0 0 "Back" 1
Layer: 1 0 "Fore" 0
XUID: [1021 121 -459131268 26702]
OS2Version: 0
OS2_WeightWidthSlopeOnly: 0
OS2_UseTypoMetrics: 0
CreationTime: 1504054542
ModificationTime: 1674852444
PfmFamily: 17
TTFWeight: 400
TTFWidth: 5
LineGap: 46
VLineGap: 46
Panose: 2 0 5 9 0 0 0 0 0 0
OS2TypoAscent: 0
OS2TypoAOffset: 1
OS2TypoDescent: 0
OS2TypoDOffset: 1
OS2TypoLinegap: 46
OS2WinAscent: 0
OS2WinAOffset: 1
OS2WinDescent: 0
OS2WinDOffset: 1
HheadAscent: 0
HheadAOffset: 1
HheadDescent: 0
HheadDOffset: 1
OS2Vendor: 'PfEd'
DEI: 91125
Encoding: Custom
UnicodeInterp: none
NameList: AGL For New Fonts
DisplaySize: -48
AntiAlias: 1
FitToEm: 0
WinInfo: 192 16 6
BeginChars: 1317 154

StartChar: uniF101
Encoding: 1 61697 0
Width: 512
LayerCount: 2
Fore
SplineSet
224 384 m 5
 285.6641 384 336 333.6641 336 272 c 4
 336 233.4404 316.3203 199.1523 286.4961 179.0078 c 5
 294.27247 175.67968 301.9199 171.95214 308.9922 167.5195 c 5
 330.0801 182.7998 356.0479 192 384 192 c 4
 454.4961 192 512 134.4961 512 64 c 4
 512 -6.4961 454.4961 -64 384 -64 c 4
 313.5039 -64 256 -6.4961 256 64 c 4
 256 94.3682 266.7197 122.5283 284.4805 144.4805 c 5
 266.4639 154.27249 246.0157 160 224 160 c 4
 153.1201 160 96 102.8799 96 32 c 5
 64 32 l 5
 64 97.9199 104.4316 154.512 161.5039 178.992 c 5
 131.6797 199.1678 112 233.4402 112 271.9998 c 4
 112 333.6639 162.3359 383.9998 224 383.9998 c 5
 224 384 l 5
224 352 m 4
 179.6318 352 144 316.3682 144 272 c 4
 144 227.6318 179.6318 192 224 192 c 4
 268.3682 192 304 227.6318 304 272 c 4
 304 316.3682 268.3682 352 224 352 c 4
384 160 m 4
 330.7842 160 288 117.2158 288 64 c 4
 288 10.7842 330.7842 -32 384 -32 c 4
 437.2158 -32 480 10.7842 480 64 c 4
 480 117.2158 437.2158 160 384 160 c 4
368 128 m 5
 400 128 l 5
 400 80 l 5
 448 80 l 5
 448 48 l 5
 400 48 l 5
 400 0 l 5
 368 0 l 5
 368 48 l 5
 320 48 l 5
 320 80 l 5
 368 80 l 5
 368 128 l 5
EndSplineSet
Validated: 1
EndChar

StartChar: uniF107
Encoding: 5 61703 1
Width: 512
LayerCount: 2
Fore
SplineSet
48 336 m 1
 464 336 l 1
 464 304 l 1
 48 304 l 1
 48 336 l 1
48 272 m 1
 336 272 l 1
 336 240 l 1
 48 240 l 1
 48 272 l 1
48 208 m 1
 464 208 l 1
 464 176 l 1
 48 176 l 1
 48 208 l 1
48 144 m 1
 336 144 l 1
 336 112 l 1
 48 112 l 1
 48 144 l 1
48 80 m 1
 464 80 l 1
 464 48 l 1
 48 48 l 1
 48 80 l 1
EndSplineSet
Validated: 1
EndChar

StartChar: uniF17F
Encoding: 6 61823 2
Width: 512
LayerCount: 2
Fore
SplineSet
32 336 m 2
 448 336 l 2
 465.4883 336 480 321.4883 480 304 c 2
 480 80 l 2
 480 62.5117 465.4883 48 448 48 c 2
 32 48 l 2
 14.5117 48 0 62.5117 0 80 c 2
 0 304 l 2
 0 321.4883 14.5117 336 32 336 c 2
32 304 m 1
 32 80 l 1
 448 80 l 1
 448 304 l 1
 32 304 l 1
64 272 m 1
 96 272 l 1
 96 240 l 1
 64 240 l 1
 64 272 l 1
128 272 m 1
 160 272 l 1
 160 240 l 1
 128 240 l 1
 128 272 l 1
192 272 m 1
 224 272 l 1
 224 240 l 1
 192 240 l 1
 192 272 l 1
256 272 m 1
 288 272 l 1
 288 240 l 1
 256 240 l 1
 256 272 l 1
320 272 m 1
 352 272 l 1
 352 240 l 1
 320 240 l 1
 320 272 l 1
384 272 m 1
 416 272 l 1
 416 240 l 1
 384 240 l 1
 384 272 l 1
64 208 m 1
 128 208 l 1
 128 176 l 1
 64 176 l 1
 64 208 l 1
160 208 m 1
 192 208 l 1
 192 176 l 1
 160 176 l 1
 160 208 l 1
224 208 m 1
 256 208 l 1
 256 176 l 1
 224 176 l 1
 224 208 l 1
288 208 m 1
 320 208 l 1
 320 176 l 1
 288 176 l 1
 288 208 l 1
352 208 m 1
 416 208 l 1
 416 176 l 1
 352 176 l 1
 352 208 l 1
64 144 m 1
 128 144 l 1
 128 112 l 1
 64 112 l 1
 64 144 l 1
160 144 m 1
 320 144 l 1
 320 112 l 1
 160 112 l 1
 160 144 l 1
352 144 m 1
 416 144 l 1
 416 112 l 1
 352 112 l 1
 352 144 l 1
EndSplineSet
Validated: 1
EndChar

StartChar: uniF1B5
Encoding: 8 61877 3
Width: 512
Flags: HW
LayerCount: 2
Fore
SplineSet
170 218 m 1
 410 218 l 1
 410 186 l 1
 170 186 l 1
 170 218 l 1
74 218 m 1
 74 186 l 1
 106 186 l 1
 106 218 l 1
 74 218 l 1
42 250 m 1
 138 250 l 1
 138 154 l 1
 42 154 l 1
 42 250 l 1
170 346 m 1
 410 346 l 1
 410 314 l 1
 170 314 l 1
 170 346 l 1
74 346 m 1
 74 314 l 1
 106 314 l 1
 106 346 l 1
 74 346 l 1
42 378 m 1
 138 378 l 1
 138 282 l 1
 42 282 l 1
 42 378 l 1
74 90 m 1
 74 58 l 1
 106 58 l 1
 106 90 l 1
 74 90 l 1
42 122 m 1
 138 122 l 1
 138 26 l 1
 42 26 l 1
 42 122 l 1
395.13671875 105.223632812 m 0
 386.755859375 122.23046875 373.430664062 130.938476562 355.161132812 131.346679688 c 0
 349.001953125 130.96875 343.119140625 129.751953125 337.510742188 127.696289062 c 0
 320.50390625 119.315429688 311.795898438 105.990234375 311.387695312 87.7216796875 c 0
 311.765625 81.5625 312.982421875 75.6796875 315.038085938 70.0712890625 c 0
 323.418945312 53.064453125 336.744140625 44.35546875 355.012695312 43.947265625 c 0
 361.171875 44.3251953125 367.0546875 45.5419921875 372.663085938 47.59765625 c 0
 389.669921875 55.978515625 398.37890625 69.3037109375 398.787109375 87.5732421875 c 0
 398.409179688 93.732421875 397.192382812 99.615234375 395.13671875 105.223632812 c 0
355.205078125 158.8671875 m 2
 367.176757812 158.359375 377.900390625 155.7734375 387.376953125 151.110351562 c 0
 412.908203125 137.165039062 425.885742188 116.010742188 426.307617188 87.6474609375 c 2
 426.307617188 87.51953125 l 2
 425.66796875 73.2744140625 421.583007812 60.2001953125 414.05078125 48.2958984375 c 1
 474.6328125 -12.2646484375 l 1
 454.999023438 -31.8984375 l 1
 394.475585938 28.6396484375 l 1
 382.350585938 21.0927734375 369.290039062 17.0234375 355.293945312 16.4296875 c 2
 354.96875 16.4296875 l 2
 342.993164062 16.9384765625 332.26953125 19.5224609375 322.796875 24.18359375 c 0
 306.435618096 33.1205462262 295.229741809 45.0182128545 289.180017229 59.876850665 c 1
 170 60 l 1
 170 90 l 1
 283.987035464 90 l 1
 284.707020355 101.075480159 287.253008533 111.054436114 291.625 119.938476562 c 0
 305.569335938 145.46875 326.723632812 158.4453125 355.086914062 158.8671875 c 2
 355.205078125 158.8671875 l 2
EndSplineSet
EndChar

StartChar: uniF164
Encoding: 10 61796 4
Width: 512
LayerCount: 2
Fore
SplineSet
240 368 m 5
 301.6641 368 352 317.6641 352 256 c 4
 352 217.4404 332.3203 183.168 302.4961 163.0078 c 5
 359.5684 138.5283 400 81.9199 400 15.9998 c 5
 368 15.9998 l 5
 368 86.8797 310.8799 143.9998 240 143.9998 c 4
 169.1201 143.9998 112 86.8797 112 15.9998 c 5
 80 15.9998 l 5
 80 81.9197 120.4316 138.5118 177.5039 162.9918 c 5
 147.6797 183.1676 128 217.44 128 255.9996 c 4
 128 317.6637 178.3359 367.9996 240 367.9996 c 5
 240 368 l 5
240 336 m 4
 195.6318 336 160 300.3682 160 256 c 4
 160 211.6318 195.6318 176 240 176 c 4
 284.3682 176 320 211.6318 320 256 c 4
 320 300.3682 284.3682 336 240 336 c 4
EndSplineSet
Validated: 1
EndChar

StartChar: uniF16F
Encoding: 12 61807 5
Width: 512
Flags: HW
LayerCount: 2
Fore
SplineSet
355.9609375 244.383789062 m 5
 348.123046875 253.458984375 341.650390625 267.029296875 341.650390625 282.751953125 c 4
 341.650390625 300.306640625 349.59765625 314.721679688 358.915039062 324.0390625 c 4
 368.319335938 333.442382812 382.438476562 341.302734375 400.201171875 341.302734375 c 4
 417.756835938 341.302734375 432.168945312 333.357421875 441.487304688 324.0390625 c 4
 450.815429688 314.7109375 458.751953125 300.322265625 458.751953125 282.751953125 c 4
 458.751953125 267.037109375 452.264648438 253.438476562 444.432617188 244.373046875 c 5
 463.095703125 233.27734375 477.3828125 215.518554688 483.859375 192.6171875 c 4
 485.970703125 185.151367188 487.026367188 177.491210938 487.026367188 169.651367188 c 6
 487.026367188 167.651367188 l 5
 454.751953125 167.651367188 l 5
 454.751953125 169.651367188 l 6
 454.751953125 186.001953125 447.3046875 199.463867188 438.659179688 208.109375 c 4
 430.004882812 216.764648438 416.564453125 224.202148438 400.201171875 224.202148438 c 4
 383.63671875 224.202148438 370.47265625 216.83984375 361.743164062 208.109375 c 4
 353.088867188 199.455078125 345.650390625 186.013671875 345.650390625 169.651367188 c 4
 345.650390625 140.071289062 330.594726562 115.807617188 312.889648438 101.712890625 c 5
 339.625976562 87.251953125 360.225585938 63.3369140625 369.427734375 31.818359375 c 4
 372.426757812 21.548828125 373.92578125 10.9375 373.92578125 0 c 6
 373.92578125 -2 l 5
 341.650390625 -2 l 5
 341.650390625 0 l 6
 341.650390625 25.099609375 330.546875 45.177734375 317.275390625 58.4501953125 c 4
 303.989257812 71.734375 283.942382812 82.826171875 258.825195312 82.826171875 c 4
 233.7265625 82.826171875 213.647460938 71.720703125 200.375 58.4501953125 c 4
 187.090820312 45.1640625 176 25.1181640625 176 0 c 6
 176 -2 l 5
 143.724609375 -2 l 5
 143.724609375 0 l 6
 143.724609375 24.3466796875 151.104492188 44.6171875 161.034179688 60.5869140625 c 4
 171.606445312 77.5869140625 186.764648438 91.978515625 204.760742188 101.712890625 c 5
 187.034179688 115.82421875 172 140.048828125 172 169.651367188 c 4
 172 186.000976562 164.552734375 199.463867188 155.907226562 208.109375 c 4
 147.252929688 216.763671875 133.811523438 224.202148438 117.44921875 224.202148438 c 4
 100.884765625 224.202148438 87.720703125 216.83984375 78.9912109375 208.109375 c 4
 70.3369140625 199.455078125 62.8984375 186.014648438 62.8984375 169.651367188 c 6
 62.8984375 167.651367188 l 5
 30.6240234375 167.651367188 l 5
 30.6240234375 169.651367188 l 6
 30.6240234375 197.174804688 42.5009765625 217.564453125 56.84375 231.711914062 c 4
 61.8173828125 236.620117188 67.279296875 240.842773438 73.2177734375 244.373046875 c 5
 65.375 253.450195312 58.8984375 267.022460938 58.8984375 282.751953125 c 4
 58.8984375 300.307617188 66.845703125 314.720703125 76.1630859375 324.0390625 c 4
 85.5673828125 333.442382812 99.6865234375 341.302734375 117.44921875 341.302734375 c 4
 135.002929688 341.302734375 149.416992188 333.356445312 158.735351562 324.0390625 c 4
 168.063476562 314.7109375 176 300.3203125 176 282.751953125 c 4
 176 267.04296875 169.517578125 253.447265625 161.689453125 244.383789062 c 5
 172.221679688 238.20703125 181.059570312 230.064453125 188.15625 220.00390625 c 5
 202.364257812 239.693359375 227.229492188 256.4765625 258.825195312 256.4765625 c 4
 290.3984375 256.4765625 315.301757812 239.671875 329.494140625 220.00390625 c 5
 336.590820312 230.064453125 345.428710938 238.20703125 355.9609375 244.383789062 c 5
91.173828125 282.751953125 m 4
 91.173828125 270.500976562 98.509765625 262.298828125 107.200195312 258.520507812 c 4
 110.325195312 257.162109375 113.725585938 256.4765625 117.44921875 256.4765625 c 4
 129.701171875 256.4765625 137.901367188 263.8125 141.680664062 272.502929688 c 4
 143.0390625 275.627929688 143.724609375 279.028320312 143.724609375 282.751953125 c 4
 143.724609375 295.00390625 136.388671875 303.205078125 127.698242188 306.983398438 c 4
 124.573242188 308.341796875 121.172851562 309.02734375 117.44921875 309.02734375 c 4
 105.197265625 309.02734375 96.99609375 301.69140625 93.2177734375 293.000976562 c 4
 91.859375 289.876953125 91.173828125 286.4765625 91.173828125 282.751953125 c 4
258.825195312 115.100585938 m 4
 275.174804688 115.100585938 288.637695312 122.547851562 297.283203125 131.193359375 c 4
 306.021484375 139.931640625 313.375976562 153.075195312 313.375976562 169.651367188 c 4
 313.375976562 186.000976562 305.928710938 199.463867188 297.283203125 208.109375 c 4
 288.62890625 216.763671875 275.1875 224.202148438 258.825195312 224.202148438 c 4
 242.260742188 224.202148438 229.096679688 216.83984375 220.3671875 208.109375 c 4
 211.712890625 199.455078125 204.274414062 186.013671875 204.274414062 169.651367188 c 4
 204.274414062 153.086914062 211.63671875 139.922851562 220.3671875 131.193359375 c 4
 229.10546875 122.455078125 242.249023438 115.100585938 258.825195312 115.100585938 c 4
373.92578125 282.751953125 m 4
 373.92578125 270.500976562 381.26171875 262.298828125 389.952148438 258.520507812 c 4
 393.077148438 257.162109375 396.477539062 256.4765625 400.201171875 256.4765625 c 4
 412.453125 256.4765625 420.653320312 263.8125 424.432617188 272.502929688 c 4
 425.791015625 275.627929688 426.4765625 279.028320312 426.4765625 282.751953125 c 4
 426.4765625 295.00390625 419.140625 303.205078125 410.450195312 306.983398438 c 4
 407.325195312 308.341796875 403.924804688 309.02734375 400.201171875 309.02734375 c 4
 387.94921875 309.02734375 379.748046875 301.69140625 375.969726562 293.000976562 c 4
 374.611328125 289.876953125 373.92578125 286.4765625 373.92578125 282.751953125 c 4
EndSplineSet
EndChar

StartChar: uniF10F
Encoding: 13 61711 6
Width: 512
LayerCount: 2
Fore
SplineSet
256 342.496 m 1
 267.5195 331.5194 l 1
 467.5195 131.5194 l 1
 444.4804 108.5282 l 1
 256.0004 297.0072 l 1
 67.5204 108.4632 l 1
 44.4813 131.5032 l 1
 244.4813 331.5032 l 1
 256 342.496 l 1
EndSplineSet
Validated: 1
EndChar

StartChar: uniF1E7
Encoding: 18 61927 7
Width: 512
Flags: HW
LayerCount: 2
Fore
SplineSet
335.474609375 152.215820312 m 1
 338.751953125 155.4921875 351.5859375 168.053710938 373.977539062 189.899414062 c 2
 412.479492188 227.172851562 l 1
 306.393554688 242.737304688 l 1
 258.470703125 338.993164062 l 1
 210.95703125 242.737304688 l 1
 104.4609375 227.172851562 l 1
 181.875 152.215820312 l 1
 163.443359375 46.12890625 l 1
 258.470703125 96.5107421875 l 1
 353.497070312 46.12890625 l 1
 335.474609375 152.215820312 l 1
468.185546875 242.328125 m 1
 468.185546875 238.778320312 466.000976562 234.818359375 461.631835938 230.44921875 c 2
 370.291015625 141.15625 l 1
 392 15 l 2
 392.272460938 13.9072265625 392.409179688 12.26953125 392.409179688 10.0849609375 c 0
 392.409179688 1.619140625 388.859375 -2.61328125 381.759765625 -2.61328125 c 0
 378.755859375 -2.61328125 375.479492188 -1.6572265625 371.9296875 0.25390625 c 2
 258.879882812 60.0556640625 l 1
 145.420898438 0.25390625 l 2
 141.87109375 -1.6572265625 138.45703125 -2.61328125 135.180664062 -2.61328125 c 128
 131.904296875 -2.61328125 129.377929688 -1.384765625 127.602539062 1.0732421875 c 128
 125.828125 3.53125 124.940429688 6.53515625 124.940429688 10.0849609375 c 0
 124.940429688 10.904296875 125.077148438 12.5419921875 125.350585938 15 c 2
 147.059570312 141.15625 l 1
 55.30859375 230.44921875 l 2
 51.212890625 234.818359375 49.1650390625 238.778320312 49.1650390625 242.328125 c 0
 48.8916015625 248.608398438 53.533203125 252.430664062 63.0908203125 253.796875 c 2
 189.657226562 272.228515625 l 1
 246.182617188 386.916992188 l 2
 249.458984375 394.016601562 253.623046875 397.56640625 258.674804688 397.56640625 c 128
 263.7265625 397.56640625 267.890625 394.016601562 271.16796875 386.916992188 c 2
 327.692382812 272.228515625 l 1
 454.258789062 253.796875 l 2
 463.81640625 252.430664062 468.594726562 248.608398438 468.594726562 242.328125 c 1
 468.185546875 242.328125 l 1
EndSplineSet
EndChar

StartChar: uniF1AF
Encoding: 19 61871 8
Width: 512
LayerCount: 2
Fore
SplineSet
256 414.496 m 1
 267.5195 403.5194 l 1
 395.5195 275.5194 l 1
 372.4804 252.4803 l 1
 272.0004 352.9923 l 1
 272.0004 30.9923 l 1
 372.4804 131.5683 l 1
 395.5195 108.5283 l 1
 267.5195 -19.4717 l 1
 256 -30.4639 l 1
 244.4805 -19.4883 l 1
 116.4805 108.5117 l 1
 139.5196 131.5039 l 1
 239.9996 31.0249 l 1
 239.9996 353.0249 l 1
 139.5196 252.4639 l 1
 116.4805 275.5039 l 1
 244.4805 403.5039 l 1
 256 414.496 l 1
EndSplineSet
Validated: 1
EndChar

StartChar: uniF10D
Encoding: 20 61709 9
Width: 512
LayerCount: 2
Fore
SplineSet
304.48 379.52 m 1
 327.4712 356.4809 l 1
 162.9922 192.0009 l 1
 327.5362 27.5209 l 1
 304.4962 4.4818 l 1
 128.4962 180.4818 l 1
 117.504 192.0013 l 1
 128.4806 203.5208 l 1
 304.48 379.52 l 1
EndSplineSet
Validated: 1
EndChar

StartChar: uniF13D
Encoding: 23 61757 10
Width: 512
LayerCount: 2
Fore
SplineSet
80 368 m 1
 432 368 l 1
 432 16 l 1
 80 16 l 1
 80 368 l 1
112 336 m 1
 112 48 l 1
 240 48 l 1
 240 336 l 1
 112 336 l 1
272 336 m 1
 272 48 l 1
 400 48 l 1
 400 336 l 1
 272 336 l 1
EndSplineSet
Validated: 1
EndChar

StartChar: uniF17A
Encoding: 24 61818 11
Width: 512
LayerCount: 2
Fore
SplineSet
80 352 m 6
 432 352 l 6
 458.3203 352 480 330.3203 480 304 c 6
 480 80 l 6
 480 53.6797 458.3203 32 432 32 c 6
 80 32 l 6
 53.6797 32 32 53.6797 32 80 c 6
 32 304 l 6
 32 330.3203 53.6797 352 80 352 c 6
80 320 m 6
 71.12012 320 64 312.87988 64 304 c 6
 64 80 l 6
 64 71.12012 71.12012 64 80 64 c 6
 432 64 l 6
 440.87988 64 448 71.12012 448 80 c 6
 448 304 l 6
 448 312.87988 440.87988 320 432 320 c 6
 80 320 l 6
96 208 m 4
 104.83203 208 112 200.83203 112 192 c 4
 112 183.16797 104.83203 176 96 176 c 4
 87.16797 176 80 183.16797 80 192 c 4
 80 200.83203 87.16797 208 96 208 c 4
EndSplineSet
Validated: 1
EndChar

StartChar: uniF13F
Encoding: 30 61759 12
Width: 512
LayerCount: 2
Fore
SplineSet
452.48 411.52 m 1
 452.4633984 411.52 l 1
 475.5033984 388.4809 l 1
 326.4953984 240.0009 l 1
 463.9993984 240.0009 l 1
 463.9993984 208.0009 l 1
 271.9993984 208.0009 l 1
 271.9993984 400.0009 l 1
 303.9993984 400.0009 l 1
 303.9993984 262.4809 l 1
 452.48 411.52 l 1
48 176 m 1
 240 176 l 1
 240 -16 l 1
 208 -16 l 1
 208 121.52 l 1
 59.52 -27.519 l 1
 36.4809 -4.4799 l 1
 185.5039 144.0001 l 1
 47.9999 144.0001 l 1
 47.9999 176.0001 l 1
 48 176 l 1
EndSplineSet
Validated: 5
EndChar

StartChar: uniF16C
Encoding: 31 61804 13
Width: 512
LayerCount: 2
Fore
SplineSet
48 352 m 1
 464 352 l 1
 464 32 l 1
 48 32 l 1
 48 352 l 1
80 320 m 1
 80 256 l 1
 144 256 l 1
 144 320 l 1
 80 320 l 1
176 320 m 1
 176 256 l 1
 240 256 l 1
 240 320 l 1
 176 320 l 1
272 320 m 1
 272 256 l 1
 336 256 l 1
 336 320 l 1
 272 320 l 1
368 320 m 1
 368 256 l 1
 432 256 l 1
 432 320 l 1
 368 320 l 1
80 224 m 1
 80 160 l 1
 144 160 l 1
 144 224 l 1
 80 224 l 1
176 224 m 1
 176 160 l 1
 240 160 l 1
 240 224 l 1
 176 224 l 1
272 224 m 1
 272 160 l 1
 336 160 l 1
 336 224 l 1
 272 224 l 1
368 224 m 1
 368 160 l 1
 432 160 l 1
 432 224 l 1
 368 224 l 1
80 128 m 1
 80 64 l 1
 144 64 l 1
 144 128 l 1
 80 128 l 1
176 128 m 1
 176 64 l 1
 240 64 l 1
 240 128 l 1
 176 128 l 1
272 128 m 1
 272 64 l 1
 336 64 l 1
 336 128 l 1
 272 128 l 1
368 128 m 1
 368 64 l 1
 432 64 l 1
 432 128 l 1
 368 128 l 1
EndSplineSet
Validated: 1
EndChar

StartChar: uniF179
Encoding: 32 61817 14
Width: 512
LayerCount: 2
Fore
SplineSet
80 368 m 5
 432 368 l 5
 432 16 l 5
 80 16 l 5
 80 368 l 5
112 336 m 5
 112 256 l 5
 192 256 l 5
 192 336 l 5
 112 336 l 5
224 336 m 5
 224 256 l 5
 288 256 l 5
 288 336 l 5
 224 336 l 5
320 336 m 5
 320 256 l 5
 400 256 l 5
 400 336 l 5
 320 336 l 5
112 224 m 5
 112 160 l 5
 192 160 l 5
 192 224 l 5
 112 224 l 5
224 224 m 5
 224 160 l 5
 288 160 l 5
 288 224 l 5
 224 224 l 5
320 224 m 5
 320 160 l 5
 400 160 l 5
 400 224 l 5
 320 224 l 5
112 128 m 5
 112 48 l 5
 192 48 l 5
 192 128 l 5
 112 128 l 5
224 128 m 5
 224 48 l 5
 288 48 l 5
 288 128 l 5
 224 128 l 5
320 128 m 5
 320 48 l 5
 400 48 l 5
 400 128 l 5
 320 128 l 5
EndSplineSet
Validated: 1
EndChar

StartChar: uniF1D5
Encoding: 36 61909 15
Width: 512
LayerCount: 2
Fore
SplineSet
228 384 m 1
 292 384 l 2
 300.36816 384 308.96 381.02441 314.9922 375.00781 c 0
 321.04005 368.95996 324.00001 360.35161 324.00001 352.00001 c 2
 324.00001 336.00001 l 1
 420.00001 336.00001 l 1
 420.00001 304.00001 l 1
 404.00001 304.00001 l 1
 404.00001 48.00001 l 2
 404.00001 21.67971 382.32031 1.00000000316e-05 356.00001 1.00000000316e-05 c 2
 164.00001 1.00000000316e-05 l 2
 137.67971 1.00000000316e-05 116.00001 21.67971 116.00001 48.00001 c 2
 116.00001 304.00001 l 1
 100.00001 304.00001 l 1
 100.00001 336.00001 l 1
 196.00001 336.00001 l 1
 196.00001 352.00001 l 2
 196.00001 360.35157 198.95997 368.96001 204.9922 374.99221 c 0
 211.04005 381.04006 219.6484 384.00002 228 384.00002 c 1
 228 384 l 1
228 352 m 1
 228 336 l 1
 292 336 l 1
 292 352 l 1
 228 352 l 1
148 304 m 1
 148 48 l 2
 148 39.12012 155.12012 32 164 32 c 2
 356 32 l 2
 364.87988 32 372 39.12012 372 48 c 2
 372 304 l 1
 148 304 l 1
180 256 m 1
 212 256 l 1
 212 80 l 1
 180 80 l 1
 180 256 l 1
244 256 m 1
 276 256 l 1
 276 80 l 1
 244 80 l 1
 244 256 l 1
308 256 m 1
 340 256 l 1
 340 80 l 1
 308 80 l 1
 308 256 l 1
EndSplineSet
Validated: 1
EndChar

StartChar: uniF1BC
Encoding: 41 61884 16
Width: 512
LayerCount: 2
Fore
SplineSet
197.008 375.52 m 1
 196.9601484 375.52 l 1
 215.5197484 330.0005 l 1
 228.3205484 333.76027 242.0002484 336.0005 256.0002484 336.0005 c 0
 270.0158484 336.0005 283.6799484 333.76027 296.4641484 329.96827 c 1
 314.9602484 375.48877 l 1
 344.4485484 363.48877 l 1
 325.9358484 317.50437 l 1
 349.2004484 304.44867 368.4163484 285.23287 381.4563484 261.98487 c 1
 427.4719484 280.46437 l 1
 439.4719484 250.97607 l 1
 393.9680484 232.44877 l 1
 397.7278184 219.64897 399.9680484 205.96827 399.9680484 191.96827 c 0
 399.9680484 177.96827 397.7278184 164.28857 393.9680484 151.48877 c 1
 439.4885484 132.99267 l 1
 427.4885484 103.50437 l 1
 381.5041484 122.01607 l 1
 368.4484484 98.75237 349.2326484 79.53657 325.9846484 66.49657 c 1
 344.4641484 20.48097 l 1
 314.9602484 8.48097 l 1
 296.4485484 53.98487 l 1
 283.6487484 50.22413 269.9680484 47.98487 255.9680484 47.98487 c 0
 241.9358484 47.98487 228.2883484 50.2085 215.4885484 53.98487 c 1
 196.9758484 8.46437 l 1
 167.5041484 20.46437 l 1
 186.0158484 66.44877 l 1
 162.8644484 79.53667 143.5041484 98.76807 130.4963484 121.96827 c 1
 84.4807484 103.48877 l 1
 72.4807484 132.99267 l 1
 118.0002484 151.51997 l 1
 114.2404784 164.32077 112.0002484 178.00047 112.0002484 192.00047 c 0
 112.0002484 206.01607 114.2404784 219.68017 118.0002484 232.51217 c 1
 72.4807484 251.02487 l 1
 84.4807484 280.49657 l 1
 130.4641484 261.98487 l 1
 143.5198484 285.24857 162.7366484 304.46437 185.9846484 317.50437 c 1
 167.5041484 363.51997 l 1
 197.008 375.52 l 1
256 304 m 0
 193.9521 304 144 254.0479 144 192 c 0
 144 129.9521 193.9521 80 256 80 c 0
 318.0479 80 368 129.9521 368 192 c 0
 368 254.0479 318.0479 304 256 304 c 0
256 256 m 4
 291.1523 256 320 227.1523 320 192 c 4
 320 156.8477 291.1523 128 256 128 c 4
 220.8477 128 192 156.8477 192 192 c 4
 192 227.1523 220.8477 256 256 256 c 4
256 224 m 4
 238.1436 224 224 209.8564 224 192 c 4
 224 174.1436 238.1436 160 256 160 c 4
 273.8564 160 288 174.1436 288 192 c 4
 288 209.8564 273.8564 224 256 224 c 4
EndSplineSet
Validated: 5
EndChar

StartChar: uniF187
Encoding: 42 61831 17
Width: 512
LayerCount: 2
Fore
SplineSet
64 368 m 5
 160 368 l 5
 160 272 l 5
 64 272 l 5
 64 368 l 5
96 336 m 5
 96 304 l 5
 128 304 l 5
 128 336 l 5
 96 336 l 5
192 336 m 5
 432 336 l 5
 432 304 l 5
 192 304 l 5
 192 336 l 5
64 240 m 5
 160 240 l 5
 160 144 l 5
 64 144 l 5
 64 240 l 5
96 208 m 5
 96 176 l 5
 128 176 l 5
 128 208 l 5
 96 208 l 5
192 208 m 5
 432 208 l 5
 432 176 l 5
 192 176 l 5
 192 208 l 5
64 112 m 5
 160 112 l 5
 160 16 l 5
 64 16 l 5
 64 112 l 5
96 80 m 5
 96 48 l 5
 128 48 l 5
 128 80 l 5
 96 80 l 5
192 80 m 5
 432 80 l 5
 432 48 l 5
 192 48 l 5
 192 80 l 5
EndSplineSet
Validated: 1
EndChar

StartChar: uniF1DF
Encoding: 43 61919 18
Width: 512
LayerCount: 2
Fore
SplineSet
256 390.496 m 1
 256 390.511625 l 1
 267.5195 379.536025 l 1
 379.5195 267.536025 l 1
 356.4804 244.496025 l 1
 271.9999 329.007725 l 1
 271.9999 63.999725 l 1
 239.9999 63.999725 l 1
 239.9999 329.023725 l 1
 155.5194 244.463225 l 1
 132.4803 267.503225 l 1
 244.4803 379.503225 l 1
 256 390.496 l 1
112 32 m 1
 400 32 l 1
 400 0 l 1
 112 0 l 1
 112 32 l 1
EndSplineSet
Validated: 1
EndChar

StartChar: uniF1AA
Encoding: 44 61866 19
Width: 512
LayerCount: 2
Fore
SplineSet
256 384 m 6
 313.1201 384 364.96 358.7197 400 318.4961 c 5
 400 368 l 5
 432 368 l 5
 432 256 l 5
 320 256 l 5
 320 288 l 5
 383.0078 288 l 5
 354.1435 326.5596 307.8398 352 255.9998 352 c 4
 187.3602 352 130.8158 309.7598 107.5038 250 c 5
 77.9999 262 l 5
 105.872 333.4404 174.2401 384 255.9999 384 c 6
 256 384 l 6
404.48 134 m 5
 404.495625 134 l 5
 433.999525 122 l 5
 406.127425 50.5596 337.759325 0 255.999525 0 c 4
 198.319825 0 147.039525 25.8242 111.999525 65.5039 c 5
 111.999525 16 l 5
 79.999525 16 l 5
 79.999525 128 l 5
 191.999525 128 l 5
 191.999525 96 l 5
 128.480025 96 l 5
 157.487825 57.792 203.583525 32 256.000025 32 c 4
 324.639625 32 381.184025 74.2402 404.480025 134 c 5
 404.48 134 l 5
EndSplineSet
Validated: 5
EndChar

StartChar: uniF11A
Encoding: 45 61722 20
Width: 512
VWidth: 2048
Flags: HW
LayerCount: 2
Fore
SplineSet
77.9794921875 199.712890625 m 5
 27 352.424804688 l 5
 485.139648438 199.712890625 l 5
 27 47 l 5
 77.9794921875 199.712890625 l 5
77.9501953125 301.477539062 m 5
 106.4921875 215.850585938 l 5
 334.831054688 215.850585938 l 5
 77.9501953125 301.477539062 l 5
106.4921875 183.575195312 m 5
 77.9501953125 97.947265625 l 5
 334.831054688 183.575195312 l 5
 106.4921875 183.575195312 l 5
EndSplineSet
EndChar

StartChar: uniF12F
Encoding: 47 61743 21
Width: 512
VWidth: 2048
Flags: HW
LayerCount: 2
Fore
SplineSet
484.852539062 374.5078125 m 1
 484.852539062 87.755859375 l 1
 192.755859375 87.755859375 l 1
 85 -20 l 1
 85 87.755859375 l 1
 28.4501953125 87.755859375 l 1
 28.4501953125 374.5078125 l 1
 484.852539062 374.5078125 l 1
452.578125 120.03125 m 1
 452.578125 342.232421875 l 1
 60.724609375 342.232421875 l 1
 60.724609375 120.03125 l 1
 117.275390625 120.03125 l 1
 117.275390625 58.134765625 l 1
 179.170898438 120.03125 l 1
 452.578125 120.03125 l 1
143.55078125 200.856445312 m 0
 139.038085938 201.11328125 135.090820312 201.904296875 131.709960938 203.23046875 c 0
 127.884765625 205.202148438 124.697265625 207.3671875 122.145507812 209.7265625 c 0
 119.3359375 212.939453125 117.170898438 216.127929688 115.649414062 219.291015625 c 0
 114.189453125 223.333007812 113.397460938 227.280273438 113.275390625 231.131835938 c 0
 113.532226562 235.64453125 114.323242188 239.590820312 115.649414062 242.97265625 c 0
 117.62109375 246.796875 119.786132812 249.984375 122.145507812 252.536132812 c 0
 128.909179688 258.450195312 136.043945312 261.407226562 143.55078125 261.407226562 c 0
 148.063476562 261.150390625 152.009765625 260.359375 155.391601562 259.033203125 c 0
 159.215820312 257.061523438 162.404296875 254.896484375 164.956054688 252.537109375 c 0
 167.765625 249.32421875 169.930664062 246.135742188 171.452148438 242.97265625 c 0
 172.912109375 238.9296875 173.704101562 234.982421875 173.826171875 231.131835938 c 0
 173.569335938 226.619140625 172.778320312 222.671875 171.452148438 219.291015625 c 0
 169.48046875 215.465820312 167.315429688 212.278320312 164.956054688 209.7265625 c 0
 161.7421875 206.916992188 158.5546875 204.751953125 155.391601562 203.23046875 c 0
 151.348632812 201.770507812 147.401367188 200.978515625 143.55078125 200.856445312 c 0
256.651367188 200.856445312 m 0
 252.138671875 201.11328125 248.192382812 201.904296875 244.810546875 203.23046875 c 0
 240.985351562 205.202148438 237.797851562 207.3671875 235.24609375 209.7265625 c 0
 232.436523438 212.939453125 230.271484375 216.127929688 228.75 219.291015625 c 0
 227.290039062 223.333007812 226.498046875 227.280273438 226.375976562 231.131835938 c 0
 226.6328125 235.64453125 227.423828125 239.590820312 228.75 242.97265625 c 0
 230.721679688 246.796875 232.88671875 249.984375 235.24609375 252.536132812 c 0
 238.458984375 255.345703125 241.647460938 257.510742188 244.810546875 259.033203125 c 0
 248.853515625 260.493164062 252.80078125 261.28515625 256.651367188 261.407226562 c 0
 261.1640625 261.150390625 265.110351562 260.359375 268.4921875 259.033203125 c 0
 272.317382812 257.061523438 275.504882812 254.896484375 278.056640625 252.537109375 c 0
 280.866210938 249.32421875 283.03125 246.135742188 284.552734375 242.97265625 c 0
 286.012695312 238.9296875 286.8046875 234.982421875 286.926757812 231.131835938 c 0
 286.669921875 226.619140625 285.87890625 222.671875 284.552734375 219.291015625 c 0
 282.581054688 215.465820312 280.416015625 212.278320312 278.056640625 209.7265625 c 0
 274.84375 206.916992188 271.655273438 204.751953125 268.4921875 203.23046875 c 0
 264.44921875 201.770507812 260.501953125 200.978515625 256.651367188 200.856445312 c 0
369.751953125 200.856445312 m 0
 365.239257812 201.11328125 361.29296875 201.904296875 357.911132812 203.23046875 c 0
 354.086914062 205.202148438 350.8984375 207.3671875 348.346679688 209.7265625 c 0
 345.537109375 212.939453125 343.372070312 216.127929688 341.850585938 219.291015625 c 0
 340.390625 223.333007812 339.598632812 227.280273438 339.4765625 231.131835938 c 0
 339.733398438 235.64453125 340.524414062 239.590820312 341.850585938 242.97265625 c 0
 343.822265625 246.796875 345.987304688 249.985351562 348.346679688 252.537109375 c 0
 351.560546875 255.345703125 354.748046875 257.510742188 357.911132812 259.033203125 c 0
 361.954101562 260.493164062 365.901367188 261.28515625 369.751953125 261.407226562 c 0
 374.264648438 261.150390625 378.211914062 260.359375 381.592773438 259.033203125 c 0
 385.41796875 257.061523438 388.60546875 254.896484375 391.157226562 252.537109375 c 0
 393.966796875 249.32421875 396.131835938 246.135742188 397.653320312 242.97265625 c 0
 399.11328125 238.9296875 399.905273438 234.982421875 400.02734375 231.131835938 c 0
 399.770507812 226.619140625 398.979492188 222.671875 397.653320312 219.291015625 c 0
 395.681640625 215.465820312 393.516601562 212.278320312 391.157226562 209.7265625 c 0
 387.944335938 206.916992188 384.755859375 204.751953125 381.592773438 203.23046875 c 0
 377.55078125 201.770507812 373.603515625 200.978515625 369.751953125 200.856445312 c 0
EndSplineSet
EndChar

StartChar: uniF1E9
Encoding: 48 61929 22
Width: 512
VWidth: 2048
Flags: HW
LayerCount: 2
Fore
SplineSet
456.40234375 374.751953125 m 5
 456.40234375 342.4765625 l 5
 56 342.4765625 l 5
 56 374.751953125 l 5
 456.40234375 374.751953125 l 5
56 289.92578125 m 5
 456.40234375 289.92578125 l 5
 456.40234375 257.651367188 l 5
 56 257.651367188 l 5
 56 289.92578125 l 5
286.751953125 88 m 5
 56 88 l 5
 56 120.274414062 l 5
 286.751953125 120.274414062 l 5
 286.751953125 88 l 5
278.46875 56.3310546875 m 4
 289.063476562 62.568359375 299.916015625 64.8642578125 311.026367188 63.21875 c 5
 311.026367188 183.897460938 l 5
 456.40234375 220.241210938 l 5
 456.40234375 61.724609375 l 6
 456.057617188 56.5771484375 454.891601562 52.21484375 452.903320312 48.6376953125 c 4
 450.102539062 44.775390625 447.119140625 41.6337890625 443.953125 39.2119140625 c 4
 436.110351562 34.2509765625 427.8125 31.6630859375 419.05859375 31.44921875 c 4
 403.8359375 32.1044921875 392.5546875 37.833984375 385.21484375 48.6376953125 c 4
 383.045898438 52.87109375 381.879882812 57.2333984375 381.71484375 61.724609375 c 4
 382.059570312 66.8720703125 383.225585938 71.234375 385.21484375 74.8115234375 c 4
 388.015625 78.673828125 390.999023438 81.8154296875 394.165039062 84.2373046875 c 4
 402.005859375 89.1982421875 410.303710938 91.7861328125 419.05859375 92 c 4
 421.046875 91.9208984375 422.736328125 91.80859375 424.127929688 91.6640625 c 5
 424.127929688 178.890625 l 5
 343.301757812 158.684570312 l 5
 343.301757812 33.44921875 l 6
 342.931640625 28.1357421875 341.642578125 23.6435546875 339.432617188 19.9716796875 c 4
 336.399414062 16.06640625 333.2265625 12.931640625 329.913085938 10.5673828125 c 4
 321.888671875 5.8427734375 313.314453125 3.3779296875 304.190429688 3.173828125 c 4
 288.4140625 3.7958984375 276.666992188 9.3955078125 268.94921875 19.9716796875 c 4
 266.546875 24.296875 265.256835938 28.7900390625 265.079101562 33.44921875 c 4
 265.44921875 38.7626953125 266.739257812 43.255859375 268.94921875 46.9267578125 c 4
 271.982421875 50.83203125 275.155273438 53.966796875 278.46875 56.3310546875 c 4
286.751953125 172.825195312 m 5
 56 172.825195312 l 5
 56 205.100585938 l 5
 286.751953125 205.100585938 l 5
 286.751953125 172.825195312 l 5
EndSplineSet
EndChar

StartChar: uniF1AE
Encoding: 49 61870 23
Width: 512
LayerCount: 2
Fore
SplineSet
148.48 339.52 m 1
 171.5191 316.4809 l 1
 63.0071 208.0009 l 1
 449.0071 208.0009 l 1
 340.4311 316.4809 l 1
 363.4711 339.52 l 1
 499.4711 203.52 l 1
 510.4633 192.0005 l 1
 499.4877 180.481 l 1
 363.4877 44.481 l 1
 340.4955 67.5201 l 1
 448.9745 176.0001 l 1
 62.9745 176.0001 l 1
 171.5355 67.5201 l 1
 148.4955 44.481 l 1
 12.4955 180.481 l 1
 1.5033 192.0005 l 1
 12.4799 203.52 l 1
 148.48 339.52 l 1
EndSplineSet
Validated: 1
EndChar

StartChar: uniF1D3
Encoding: 52 61907 24
Width: 512
LayerCount: 2
Fore
SplineSet
164.48 363.52 m 1
 164.48 363.5366016 l 1
 187.5191 340.4966016 l 1
 123.5191 276.4966016 l 1
 111.9996 265.5044016 l 1
 100.4801 276.4810016 l 1
 68.4801 308.4810016 l 1
 91.5192 331.4722016 l 1
 111.9997 310.9927016 l 1
 164.48 363.52 l 1
240 336 m 1
 448 336 l 1
 448 304 l 1
 240 304 l 1
 240 336 l 1
164.48 235.52 m 1
 164.48 235.5366016 l 1
 187.5191 212.4966016 l 1
 123.5191 148.4966016 l 1
 111.9996 137.5044016 l 1
 100.4801 148.4810016 l 1
 68.4801 180.4810016 l 1
 91.5192 203.5201016 l 1
 111.9997 182.9762016 l 1
 164.48 235.52 l 1
240 208 m 1
 448 208 l 1
 448 176 l 1
 240 176 l 1
 240 208 l 1
164.48 107.52 m 1
 164.48 107.5366016 l 1
 187.5191 84.4966016 l 1
 123.5191 20.4966016 l 1
 111.9996 9.5044016 l 1
 100.4801 20.4810016 l 1
 68.4801 52.4810016 l 1
 91.5192 75.4722016 l 1
 111.9997 54.9927016 l 1
 164.48 107.52 l 1
240 80 m 1
 448 80 l 1
 448 48 l 1
 240 48 l 1
 240 80 l 1
EndSplineSet
Validated: 1
EndChar

StartChar: uniF1C7
Encoding: 55 61895 25
Width: 512
Flags: HW
LayerCount: 2
Fore
SplineSet
452.872070312 255.16015625 m 0
 452.872070312 290.843424898 439.567722851 314.779064398 415.782898606 326.020782263 c 0
 401.802599347 332.62846531 389.445191647 335.125 370.372070312 335.125 c 0
 350.473984911 335.124999995 330.599261694 323.599938912 317.92196761 313.982838128 c 0
 304.177758389 303.557613081 292.765721406 293.621330951 282.730167096 282.151770987 c 0
 279.52062548 277.978476584 274.97499433 275.974609375 269.39453125 275.974609375 c 0
 263.814068171 275.974609373 259.187743967 278.076803619 255.978202351 282.250098024 c 0
 246.004781942 293.648645618 234.54259773 303.609728079 220.867187076 313.9827682 c 0
 208.15510002 323.626263222 188.353488165 335.125 168.416992188 335.125 c 0
 140.136406352 335.125000007 117.884998587 327.481705955 103.99015434 312.123846174 c 0
 93.072041045 300.056143215 85.9169921875 279.09468192 85.9169921875 255.16015625 c 0
 85.9169921875 228.897373298 100.585827269 200.758652807 130.538913166 170.806537458 c 2
 269.394612321 36.969546629 l 1
 407.854794339 170.409720371 l 2
 438.092222357 200.647148392 452.872070312 228.903344897 452.872070312 255.16015625 c 0
487.71484375 255.16015625 m 0
 487.71484375 218.937104864 468.861896828 182.244478056 431.754381103 145.136962332 c 2
 281.37121445 0.246466992788 l 2
 278.175906976 -2.94994842442 274.085665146 -4.5654296875 269.39453125 -4.5654296875 c 0
 264.703397354 -4.5654296875 260.640063392 -2.97636652493 257.444755918 0.220048892279 c 2
 106.678304446 145.496700795 l 2
 105.126574104 146.748131314 103.016694876 148.803446334 100.213674012 151.74739578 c 0
 91.8461501502 160.535616925 77.1373224828 179.337213663 69.9451363288 191.396557405 c 0
 61.154943764 206.133531274 51.07421875 232.320829088 51.07421875 255.16015625 c 0
 51.07421875 290.756630976 61.4331692942 318.956790181 82.3070659926 339.39845517 c 0
 103.179396028 359.839584088 131.995329044 369.967773438 168.416992188 369.967773438 c 0
 192.346069717 369.967773438 213.379401599 360.935668868 229.084496631 350.628402578 c 0
 245.473603219 339.873384312 256.282699399 331.102257526 269.394531277 318.754074917 c 1
 282.491939723 331.088673224 293.327532607 339.881307184 309.704482575 350.628347916 c 0
 325.4368709 360.953526819 346.410485938 369.967773438 370.372070312 369.967773438 c 0
 406.793733456 369.967773438 435.609631331 359.839618502 456.481961366 339.398489583 c 0
 477.355858065 318.956824595 487.71484375 290.756630976 487.71484375 255.16015625 c 0
EndSplineSet
EndChar

StartChar: uniF174
Encoding: 56 61812 26
Width: 512
LayerCount: 2
Fore
SplineSet
109.008 409.504 m 5
 108.992375 409.504 l 5
 142.496275 376.0001 l 5
 120.000175 353.504 l 5
 86.480675 387.0079 l 5
 109.008 409.504 l 5
403.008 409.504 m 5
 402.992375 409.504 l 5
 425.504075 386.9923 l 5
 392.000175 353.504 l 5
 369.488475 376.0001 l 5
 403.008 409.504 l 5
256 399.52 m 5
 334.9443 400.256328 400 335.0405 400 256 c 4
 400 212.7197 380 175.04 353.5039 148.512 c 4
 333.6963 130.1282 321.5039 106.4808 321.5039 83.0247 c 6
 321.5039 64.0159 l 5
 319.99999 64.0159 l 5
 319.99999 0.0159 l 5
 283.51949 0.0159 l 5
 277.95211 -9.53586 267.79199 -15.9841 255.99999 -15.9841 c 4
 244.20799 -15.9841 234.04789 -9.53586 228.48049 0.0159 c 5
 191.99999 0.0159 l 5
 191.99999 96.0159 l 6
 188.75194 113.888 179.29589 131.4085 163.99999 144.4964 c 4
 128.27249 174.8646 106.83199 222.0159 113.99999 274.0164 c 4
 122.97558 338.6248 174.62399 391.0564 239.51999 398.4964 c 4
 239.680146 398.5286266 239.840302 398.4964 240.000459 398.4964 c 4
 245.376439 399.15265 250.720159 399.456361 256.000459 399.51984 c 5
 256 399.52 l 5
256 367.52 m 5
 255.9677734 367.504375 l 6
 251.8398434 367.4408984 247.6796834 367.024883 243.4882734 366.480935 c 4
 193.3759734 360.928205 152.4804734 320.400835 145.4882734 270.000435 c 4
 139.8564334 229.168435 156.7040734 193.008235 184.9755734 169.008435 c 4
 207.2001734 149.968435 218.9599734 123.424435 222.4804734 96.000635 c 5
 292.4638734 96.000635 l 5
 296.2558634 124.672535 309.9843734 150.944935 331.5038734 171.008435 c 5
 330.9921544 171.520154 l 5
 352.4804544 192.992854 367.9999544 222.496754 367.9999544 256.000654 c 4
 367.9999544 317.760454 317.8397544 368.384654 255.9999544 367.520654 c 5
 256 367.52 l 5
32 256 m 5
 80 256 l 5
 80 224 l 5
 32 224 l 5
 32 256 l 5
432 256 m 5
 480 256 l 5
 480 224 l 5
 432 224 l 5
 432 256 l 5
120 126.496 m 5
 142.4805 103.9999 l 5
 109.0078 70.496 l 5
 86.4961 93.0077 l 5
 120 126.496 l 5
392 126.496 m 5
 425.5039 93.0077 l 5
 402.9922 70.496 l 5
 369.5039 103.9999 l 5
 392 126.496 l 5
224 64 m 5
 224 32 l 5
 288 32 l 5
 288 64 l 5
 224 64 l 5
EndSplineSet
Validated: 37
EndChar

StartChar: uniF144
Encoding: 57 61764 27
Width: 512
LayerCount: 2
Fore
SplineSet
128 384 m 1
 160 384 l 1
 160 118.992 l 1
 329.008 288 l 1
 176 288 l 1
 176 320 l 1
 361.008 320 l 1
 420.4807 379.5361 l 1
 443.5198 356.4961 l 1
 384.0003 297.0078 l 1
 384.0003 111.9998 l 1
 352.0003 111.9998 l 1
 352.0003 265.0078 l 1
 182.9923 95.9998 l 1
 448.0003 95.9998 l 1
 448.0003 63.9998 l 1
 384.0003 63.9998 l 1
 384.0003 -0.000200000000035 l 1
 352.0003 -0.000200000000035 l 1
 352.0003 63.9998 l 1
 128.0003 63.9998 l 1
 128.0003 287.9998 l 1
 64.0003 287.9998 l 1
 64.0003 319.9998 l 1
 128.0003 319.9998 l 1
 128.0003 383.9998 l 1
 128 384 l 1
EndSplineSet
Validated: 1
EndChar

StartChar: uniF105
Encoding: 58 61701 28
Width: 512
LayerCount: 2
Fore
SplineSet
48 336 m 1
 464 336 l 1
 464 304 l 1
 48 304 l 1
 48 336 l 1
112 272 m 1
 400 272 l 1
 400 240 l 1
 112 240 l 1
 112 272 l 1
48 208 m 1
 464 208 l 1
 464 176 l 1
 48 176 l 1
 48 208 l 1
112 144 m 1
 400 144 l 1
 400 112 l 1
 112 112 l 1
 112 144 l 1
48 80 m 1
 464 80 l 1
 464 48 l 1
 48 48 l 1
 48 80 l 1
EndSplineSet
Validated: 1
EndChar

StartChar: uniF151
Encoding: 60 61777 29
Width: 512
LayerCount: 2
Fore
SplineSet
240 384 m 1
 272 384 l 1
 272 118.976 l 1
 356.4805 203.5365 l 1
 379.5196 180.4965 l 1
 267.5196 68.4965 l 1
 256.0001 57.5043 l 1
 244.4806 68.4809 l 1
 132.4806 180.4809 l 1
 155.5197 203.52 l 1
 240.0002 118.9927 l 1
 240.0002 384.0007 l 1
 240 384 l 1
112 16 m 1
 400 16 l 1
 400 -16 l 1
 112 -16 l 1
 112 16 l 1
EndSplineSet
Validated: 5
EndChar

StartChar: uniF172
Encoding: 61 61810 30
Width: 512
LayerCount: 2
Fore
SplineSet
256 406.496 m 1
 256 406.511625 l 1
 267.5195 395.536025 l 1
 475.5195 187.536025 l 1
 452.4804 164.496025 l 1
 431.9999 185.007725 l 1
 431.9999 -0.000275000000016 l 1
 287.9999 -0.000275000000016 l 1
 287.9999 159.999725 l 1
 223.9999 159.999725 l 1
 223.9999 -0.000275000000016 l 1
 79.9999 -0.000275000000016 l 1
 79.9999 185.007725 l 1
 59.5194 164.463825 l 1
 36.4803 187.503825 l 1
 244.4803 395.503825 l 1
 256 406.496 l 1
256 360.992 m 1
 256 361.007625 l 1
 112 217.007625 l 1
 112 31.999625 l 1
 192 31.999625 l 1
 192 191.999625 l 1
 320 191.999625 l 1
 320 31.999625 l 1
 400 31.999625 l 1
 400 216.991625 l 1
 256 360.992 l 1
EndSplineSet
Validated: 1
EndChar

StartChar: uniF12A
Encoding: 62 61738 31
Width: 512
LayerCount: 2
Fore
SplineSet
256 400 m 4
 370.688 400 464 306.6885 464 192 c 4
 464 77.3115 370.6885 -16 256 -16 c 4
 141.3115 -16 48 77.3115 48 192 c 4
 48 306.6885 141.3115 400 256 400 c 4
256 368 m 5
 213.6641 368 174.8477 353.3281 144.48 328.4805 c 5
 390 78.0005 l 5
 416.1602 108.7046 432 148.3843 432 192.0005 c 4
 432 289.3921 353.3916 368.0005 256 368.0005 c 5
 256 368 l 5
122 306 m 5
 95.8398 275.2959 80 235.6162 80 192 c 4
 80 94.6084 158.6084 16 256 16 c 4
 298.3359 16 337.1523 30.6719 367.52 55.5195 c 5
 122 306 l 5
EndSplineSet
Validated: 1
EndChar

StartChar: uniF150
Encoding: 66 61776 32
Width: 512
LayerCount: 2
Fore
SplineSet
80 368 m 1
 432 368 l 1
 432 16 l 1
 80 16 l 1
 80 368 l 1
112 336 m 1
 112 48 l 1
 400 48 l 1
 400 336 l 1
 112 336 l 1
171.52 243.52 m 5
 171.52 243.48875 l 5
 256.0005 158.97605 l 5
 340.481 243.53655 l 5
 363.5201 220.49655 l 5
 267.5201 124.49655 l 5
 256.0006 113.50435 l 5
 244.4811 124.48095 l 5
 148.4811 220.48095 l 5
 171.52 243.52 l 5
EndSplineSet
Validated: 1
EndChar

StartChar: uniF193
Encoding: 67 61843 33
Width: 512
LayerCount: 2
Fore
SplineSet
137.504 368 m 1
 176.0001 368 l 1
 176.0001 208 l 1
 144.0001 208 l 1
 144.0001 310.496 l 1
 133.1202 298.7997 118.0157 287.9999 96.0001 287.9999 c 1
 96.0001 319.9999 l 1
 111.6798 319.9999 119.6485 327.67959 126.0001 337.0077 c 0
 132.35166 346.3036 135.00791 355.5194 135.00791 355.5194 c 1
 137.504 368 l 1
352 368 m 1
 384 368 l 1
 384 69.008 l 1
 425.5039 110.4963 l 1
 448 88.0002 l 1
 379.5195 19.008 l 1
 368 8.0002 l 1
 356.4805 18.9924 l 1
 288 88.0002 l 1
 310.4961 110.4963 l 1
 352 68.9924 l 1
 352 368.0004 l 1
 352 368 l 1
136 176 m 1
 152 176 l 2
 182.7842 176 208 150.7842 208 120 c 0
 208 98.4805 194.2402 81.1523 178 71.0244 c 0
 160.2725 60.1123 146.7676 54.0644 134.9922 48.0156 c 1
 208 48.0156 l 1
 208 16.0156 l 1
 80 16.0156 l 1
 80 32.0156 l 2
 80 41.29587 84.38379 50.4638 89.98438 56.4961 c 0
 95.63184 62.55958 102.27248 66.44825 109.50388 70.4961 c 0
 123.93548 78.5918 141.24798 86.3359 160.99218 98.4961 c 0
 170.35156 104.32032 175.99998 112.7041 175.99998 120 c 0
 175.99998 134.0156 166.0156 144 151.99998 144 c 2
 135.99998 144 l 2
 121.98438 144 111.99998 134.01562 111.99998 120 c 2
 111.99998 112 l 1
 79.99998 112 l 1
 79.99998 120 l 2
 79.99998 150.7842 105.21578 176 135.99998 176 c 2
 136 176 l 1
EndSplineSet
Validated: 5
EndChar

StartChar: uniF112
Encoding: 69 61714 34
Width: 512
Flags: HW
LayerCount: 2
Fore
SplineSet
240 384 m 5
 272 384 l 5
 272 62.992 l 5
 380.48 171.536 l 5
 403.5191 148.496 l 5
 267.5191 12.496 l 5
 255.9996 1.5038 l 5
 244.4801 12.4804 l 5
 108.4801 148.4804 l 5
 131.5192 171.5195 l 5
 239.9992 62.9925 l 5
 239.9992 384.0005 l 5
 240 384 l 5
EndSplineSet
EndChar

StartChar: uniF13E
Encoding: 70 61758 35
Width: 512
LayerCount: 2
Fore
SplineSet
48 352 m 5
 464 352 l 5
 464 32 l 5
 310.992 32 l 5
 267.5359 -11.5039 l 5
 256.0154 -22.4961 l 5
 244.4959 -11.5195 l 5
 201.0076 32 l 5
 47.9996 32 l 5
 47.9996 352 l 5
 48 352 l 5
80 320 m 5
 80 63.984 l 5
 214.496 63.984 l 5
 219.51944 59.4713 l 5
 255.99994 22.9918 l 5
 292.49604 59.5191 l 5
 297.50385 63.99957 l 5
 431.99985 63.99957 l 5
 431.99985 319.99957 l 5
 79.99985 319.99957 l 5
 80 320 l 5
144 272 m 5
 368 272 l 5
 368 240 l 5
 144 240 l 5
 144 272 l 5
144 208 m 5
 368 208 l 5
 368 176 l 5
 144 176 l 5
 144 208 l 5
144 144 m 5
 304 144 l 5
 304 112 l 5
 144 112 l 5
 144 144 l 5
EndSplineSet
Validated: 5
EndChar

StartChar: uniF18E
Encoding: 71 61838 36
Width: 512
Flags: HW
LayerCount: 2
Fore
SplineSet
159.090820312 34.5888671875 m 4
 137.0859375 49.9970703125 118.038085938 70.3173828125 103.7578125 95.05078125 c 4
 65.6572265625 161.04296875 71.7724609375 240.588867188 112.8203125 299.2109375 c 4
 153.015625 356.6171875 214.303710938 379.942382812 268.356445312 379.86328125 c 4
 278.328125 379.846679688 288.297851562 379.829101562 298.26953125 379.8125 c 5
 293.298828125 371.16796875 288.329101562 362.522460938 283.358398438 353.877929688 c 4
 255.75390625 305.903320312 255.729492188 246.411132812 283.271484375 198.70703125 c 4
 294.696289062 178.918945312 310.251953125 162.21875 328.479492188 149.455078125 c 4
 354.212890625 131.436523438 385.322265625 121.231445312 417.702148438 121.182617188 c 4
 427.686523438 121.171875 437.668945312 121.16015625 447.651367188 121.149414062 c 5
 439.970703125 107.819335938 432.9375 94.2353515625 423.620117188 80.927734375 c 4
 407.765625 58.2841796875 387.158203125 39.3310546875 363.250976562 25.5283203125 c 4
 297.258789062 -12.5732421875 217.711914062 -6.4580078125 159.090820312 34.5888671875 c 4
141.202148438 279.307617188 m 4
 107.626953125 231.357421875 102.64453125 166.306640625 133.770507812 112.390625 c 4
 145.454101562 92.154296875 161.02734375 75.552734375 178.993164062 62.97265625 c 4
 239.998046875 20.255859375 331.147460938 24.4267578125 386.251953125 89.1962890625 c 5
 358.145507812 93.951171875 331.626953125 104.944335938 308.587890625 121.075195312 c 4
 286.271484375 136.703125 267.250976562 157.129882812 253.259765625 181.364257812 c 4
 224.815429688 230.629882812 220.376953125 290.047851562 239.928710938 342.635742188 c 5
 222.58984375 339.458007812 205.90234375 333.352539062 190.622070312 324.530273438 c 4
 170.385742188 312.846679688 153.78125 297.274414062 141.202148438 279.307617188 c 4
EndSplineSet
EndChar

StartChar: uniF13A
Encoding: 72 61754 37
Width: 512
LayerCount: 2
Fore
SplineSet
240 400 m 2
 260.1602 400 274.4316 385.7598 281.5039 368 c 1
 399.9999 368 l 1
 399.9999 0 l 1
 79.9999 0 l 1
 79.9999 368 l 1
 198.4959 368 l 1
 205.56817 385.7598 219.8397 400 239.9998 400 c 2
 240 400 l 2
240 368 m 0
 231.12012 368 224 360.87988 224 352 c 2
 224 336 l 1
 176 336 l 1
 176 304 l 1
 304 304 l 1
 304 336 l 1
 256 336 l 1
 256 352 l 2
 256 360.87988 248.87988 368 240 368 c 0
112 336 m 1
 112 32 l 1
 368 32 l 1
 368 336 l 1
 336 336 l 1
 336 272 l 1
 144 272 l 1
 144 336 l 1
 112 336 l 1
EndSplineSet
Validated: 1
EndChar

StartChar: uniF1A2
Encoding: 73 61858 38
Width: 512
LayerCount: 2
Fore
SplineSet
327.52 406.992 m 1
 327.504375 406.9753984 l 1
 339.504375 395.5036984 l 1
 459.504375 275.5036984 l 1
 470.496575 263.9841984 l 1
 459.488775 252.4636984 l 2
 439.216275 232.1921984 410.800275 224.1755984 383.008275 227.5036984 c 1
 326.000475 170.4802984 l 1
 336.032675 129.0876984 326.528795 83.0241984 292.992675 49.5192984 c 2
 281.504375 37.9997984 l 1
 270.496575 49.4880984 l 1
 203.008275 117.0075984 l 1
 70.496275 -16.0004016 l 1
 48.000175 -16.0004016 l 1
 48.000175 6.5112984 l 1
 181.024175 138.9912984 l 1
 112.015375 207.9990984 l 1
 100.495875 218.9746984 l 1
 112.015375 230.4951984 l 2
 142.463575 260.9433984 184.975375 272.0312984 224.495375 264.9912984 c 1
 289.503175 329.9990984 l 1
 291.327395 353.3105984 299.279545 376.5908984 315.999275 394.9912984 c 2
 327.52 406.992 l 1
331.008 358 m 1
 330.992375 358 l 1
 324.672065 346.5283 319.984575 334.3682 319.984575 321.5195 c 2
 319.984575 314.99216 l 1
 315.504105 310.51169 l 1
 241.504105 236.49609 l 1
 234.975785 230 l 1
 226.496295 232.48047 l 2
 200.288295 239.36035 172.272695 232.000001 148.992395 215.99997 c 1
 280.015395 84.97597 l 1
 298.559295 110.97597 302.911895 142.78457 293.519295 170.97597 c 2
 290.511485 180.46425 l 1
 297.519295 187.50429 l 1
 364.495895 254.49649 l 1
 370.991985 260.99258 l 1
 379.999795 258.51211 l 2
 394.543695 254.86465 408.799595 259.53652 421.999795 266.99258 c 1
 331.008 358 l 1
EndSplineSet
Validated: 37
EndChar

StartChar: uniF1D2
Encoding: 74 61906 39
Width: 512
Flags: H
LayerCount: 2
Fore
SplineSet
64 384 m 1
 96 384 l 1
 96 304 l 1
 210.992 304 l 1
 217.6961 322.4961 235.328125 344 256 344 c 0
 276.671875 344 294.3035 322.4961 300.992 304 c 1
 448 304 l 1
 448 272 l 1
 301.008 272 l 1
 294.3039 253.5039 276.671875 232 256 232 c 0
 235.328125 232 217.6965 253.5039 211.008 272 c 1
 96 272 l 1
 96 208 l 1
 322.992 208 l 1
 329.6961 226.4961 347.328125 248 368 248 c 0
 388.671875 248 406.3035 226.4961 412.992 208 c 1
 447.9998 208 l 1
 447.9998 176 l 1
 413.0076 176 l 1
 406.3035 157.5039 388.671875 136 368 136 c 0
 347.328125 136 329.6961 157.5039 323.0076 176 c 1
 95.9996 176 l 1
 95.9996 112 l 1
 130.9918 112 l 1
 137.6959 130.4961 155.328125 152 176 152 c 0
 196.671875 152 214.3033 130.4961 220.9918 112 c 1
 447.9998 112 l 1
 447.9998 80 l 1
 221.0078 80 l 1
 214.3037 61.5039 196.671875 40 176 40 c 0
 155.328125 40 137.6963 61.5039 131.0078 80 c 1
 96 80 l 1
 96 0 l 1
 64 0 l 1
 64 384 l 1
256 312 m 0
 246.975585938 312 240 297.02441 240 288 c 0
 240 278.97559 246.975585938 264 256 264 c 0
 265.024414062 264 272 278.97559 272 288 c 0
 272 297.02441 265.024414062 312 256 312 c 0
368 216 m 0
 358.975585938 216 352 201.02441 352 192 c 0
 352 182.97559 358.975585938 168 368 168 c 0
 377.024414062 168 384 182.97559 384 192 c 0
 384 201.02441 377.024414062 216 368 216 c 0
176 120 m 4
 166.975585938 120 160 105.02441 160 96 c 0
 160 86.97559 166.975585938 72 176 72 c 0
 185.024414062 72 192 86.97559 192 96 c 0
 192 105.02441 185.024414062 120 176 120 c 4
EndSplineSet
EndChar

StartChar: uniF167
Encoding: 78 61799 40
Width: 512
LayerCount: 2
Fore
SplineSet
64 368 m 1
 96 368 l 1
 96 336 l 1
 64 336 l 1
 64 368 l 1
336 368 m 1
 368 368 l 1
 368 69.008 l 1
 409.5039 110.4963 l 1
 432 88.0002 l 1
 363.5195 19.008 l 1
 352 8.0002 l 1
 340.4805 18.9924 l 1
 272 88.0002 l 1
 294.4961 110.4963 l 1
 336 68.9924 l 1
 336 368.0004 l 1
 336 368 l 1
64 304 m 1
 128 304 l 1
 128 272 l 1
 64 272 l 1
 64 304 l 1
64 240 m 1
 160 240 l 1
 160 208 l 1
 64 208 l 1
 64 240 l 1
64 176 m 1
 192 176 l 1
 192 144 l 1
 64 144 l 1
 64 176 l 1
64 112 m 1
 224 112 l 1
 224 80 l 1
 64 80 l 1
 64 112 l 1
64 48 m 1
 256 48 l 1
 256 16 l 1
 64 16 l 1
 64 48 l 1
EndSplineSet
Validated: 5
EndChar

StartChar: uniF1DE
Encoding: 79 61918 41
Width: 512
LayerCount: 2
Fore
SplineSet
80 368 m 1
 432 368 l 1
 432 16 l 1
 80 16 l 1
 80 368 l 1
112 336 m 1
 112 48 l 1
 400 48 l 1
 400 336 l 1
 112 336 l 1
256 270.496 m 1
 267.5195 259.5194 l 1
 363.5195 163.5194 l 1
 340.4804 140.5282 l 1
 255.9999 225.0077 l 1
 171.5194 140.4638 l 1
 148.4803 163.5038 l 1
 244.4803 259.5038 l 1
 256 270.496 l 1
EndSplineSet
Validated: 1
EndChar

StartChar: uniF183
Encoding: 80 61827 42
Width: 512
LayerCount: 2
Fore
SplineSet
80 368 m 1
 432 368 l 1
 432 16 l 1
 80 16 l 1
 80 368 l 1
112 336 m 1
 112 48 l 1
 400 48 l 1
 400 336 l 1
 112 336 l 1
284.48 299.52 m 1
 307.4712 276.4809 l 1
 222.9917 192.0004 l 1
 307.5356 107.5199 l 1
 284.4956 84.4808 l 1
 188.4956 180.4808 l 1
 177.5034 192.0003 l 1
 188.48 203.5198 l 1
 284.48 299.52 l 1
EndSplineSet
Validated: 1
EndChar

StartChar: uniF120
Encoding: 82 61728 43
Width: 512
VWidth: 2048
Flags: HW
LayerCount: 2
Fore
SplineSet
255.862304688 294.02734375 m 0
 283.86328125 293.5078125 307.676757812 283.666992188 327.301757812 264.50390625 c 0
 346.721679688 244.182617188 356.5625 220.369140625 356.825195312 193.064453125 c 0
 356.305664062 165.063476562 346.46484375 141.25 327.301757812 121.625 c 0
 306.98046875 102.205078125 283.166992188 92.3642578125 255.862304688 92.1015625 c 0
 227.861328125 92.62109375 204.047851562 102.461914062 184.422851562 121.625 c 0
 165.002929688 141.946289062 155.162109375 165.759765625 154.899414062 193.064453125 c 0
 155.418945312 221.065429688 165.259765625 244.87890625 184.422851562 264.50390625 c 0
 204.744140625 283.923828125 228.557617188 293.764648438 255.862304688 294.02734375 c 0
255.862304688 124.375976562 m 0
 274.807617188 124.890625 290.940429688 131.580078125 304.260742188 144.444335938 c 0
 317.522460938 158.59765625 324.286132812 174.8046875 324.55078125 193.064453125 c 0
 324.030273438 211.872070312 317.266601562 228.004882812 304.260742188 241.462890625 c 0
 290.1171875 254.725585938 273.984375 261.489257812 255.862304688 261.752929688 c 0
 236.91015625 261.23046875 220.704101562 254.466796875 207.2421875 241.462890625 c 0
 194.124023438 227.45703125 187.434570312 211.32421875 187.173828125 193.064453125 c 0
 187.689453125 173.975585938 194.37890625 157.768554688 207.2421875 144.444335938 c 0
 221.2578125 131.327148438 237.46484375 124.637695312 255.862304688 124.375976562 c 0
272 318.302734375 m 1
 239.724609375 318.302734375 l 1
 239.724609375 407.12890625 l 1
 272 407.12890625 l 1
 272 318.302734375 l 1
239.724609375 67.826171875 m 1
 272 67.826171875 l 1
 272 -21 l 1
 239.724609375 -21 l 1
 239.724609375 67.826171875 l 1
469.926757812 209.202148438 m 1
 469.926757812 176.926757812 l 1
 381.100585938 176.926757812 l 1
 381.100585938 209.202148438 l 1
 469.926757812 209.202148438 l 1
130.624023438 176.926757812 m 1
 41.7978515625 176.926757812 l 1
 41.7978515625 209.202148438 l 1
 130.624023438 209.202148438 l 1
 130.624023438 176.926757812 l 1
155.791992188 270.200195312 m 1
 93.10546875 333.118164062 l 1
 115.80859375 355.821289062 l 1
 178.7265625 293.134765625 l 1
 155.791992188 270.200195312 l 1
355.932617188 115.928710938 m 1
 418.619140625 53.0107421875 l 1
 395.916015625 30.3076171875 l 1
 332.998046875 92.994140625 l 1
 355.932617188 115.928710938 l 1
355.932617188 270.200195312 m 1
 332.998046875 293.134765625 l 1
 395.916015625 355.821289062 l 1
 418.619140625 333.118164062 l 1
 355.932617188 270.200195312 l 1
155.791992188 115.928710938 m 1
 178.7265625 92.994140625 l 1
 115.80859375 30.3076171875 l 1
 93.10546875 53.0107421875 l 1
 155.791992188 115.928710938 l 1
EndSplineSet
EndChar

StartChar: uniF1BE
Encoding: 88 61886 44
Width: 512
Flags: HW
LayerCount: 2
Fore
SplineSet
416 54.9921875 m 5
 416 32 l 5
 393.0078125 32 l 5
 304 32 l 5
 304 0 l 5
 448 0 l 5
 448 144 l 5
 416 144 l 5
 416 54.9921875 l 5
393.0078125 352 m 5
 416 352 l 5
 416 329.0078125 l 5
 416 240 l 5
 448 240 l 5
 448 384 l 5
 304 384 l 5
 304 352 l 5
 393.0078125 352 l 5
118.9921875 32 m 5
 96 32 l 5
 96 54.9921875 l 5
 96 144 l 5
 64 144 l 5
 64 0 l 5
 208 0 l 5
 208 32 l 5
 118.9921875 32 l 5
118.9921875 352 m 5
 96 352 l 5
 96 329.0078 l 5
 96 240 l 5
 64 240 l 5
 64 384 l 5
 208 384 l 5
 208 352 l 5
 118.9921875 352 l 5
EndSplineSet
EndChar

StartChar: uniF10B
Encoding: 89 61707 45
Width: 512
Flags: HW
LayerCount: 2
Fore
SplineSet
246.3359375 165.349609375 m 4
 255.018110088 165.349609375 262.473632812 157.894336508 262.473632812 149.211914062 c 4
 262.473632812 109.964164428 245.33665121 78.6738177727 224.55456125 57.8917278125 c 4
 203.752131556 37.0892981187 172.512406315 19.9736328125 133.234375 19.9736328125 c 4
 124.551811322 19.9736328125 117.09765625 27.4286993483 117.09765625 36.111328125 c 4
 117.09765625 44.7937001784 124.551554614 52.2490234375 133.234375 52.2490234375 c 4
 162.758333273 52.2490234375 186.159798652 65.1351320857 201.735399732 80.710733165 c 4
 217.325385973 96.3024282729 230.198242188 119.666743962 230.198242188 149.211914062 c 4
 230.198242188 157.89408665 237.653515055 165.349609375 246.3359375 165.349609375 c 4
375.57421875 347.359375 m 4
 375.57421875 338.394423852 368.399828156 331.000976562 359.436523438 331.000976562 c 4
 355.836608329 331.000976562 354.19165721 331.557906023 351.82510599 333.02558728 c 4
 321.527529484 348.557582637 289.071227457 359.276367188 246.3359375 359.276367188 c 4
 227.207252847 359.276367188 209.122861293 356.977115643 192.073250165 352.385906525 c 4
 174.972626852 347.782190773 157.879494155 341.321047277 140.754107729 332.978681809 c 4
 138.192705454 331.697449921 135.685995023 331.000976562 133.234375 331.000976562 c 4
 124.551811322 331.000976562 117.09765625 338.456043098 117.09765625 347.138671875 c 4
 117.09765625 353.28671032 120.050699843 358.135522424 125.598209421 361.235505834 c 4
 150.249639369 375.68478917 181.335952939 385.571373044 215.72369977 389.659761381 c 4
 226.324648957 390.9202341 236.528650757 391.551757812 246.3359375 391.551757812 c 4
 294.579122133 391.551757812 335.781772175 379.267123515 367.036972322 361.255949956 c 4
 372.56414586 358.167330454 375.57421875 353.384469197 375.57421875 347.359375 c 4
119.98046875 246.17578125 m 4
 111.138316684 246.17578125 103.842773438 253.509300815 103.842773438 262.313476562 c 4
 103.842773438 267.095747503 105.493532358 270.158125067 107.795567595 273.034238686 c 4
 119.188101857 287.751038264 136.182505504 299.945083131 152.778605443 309.550608083 c 4
 178.092589557 324.201888017 207.945485236 335.000976562 246.3359375 335.000976562 c 4
 294.496778545 335.000976562 331.262342597 317.863238294 359.870291823 296.158701206 c 4
 378.674469108 281.892178287 395.997371323 263.369769138 407.394365066 241.999224916 c 4
 408.683881924 239.421259565 409.372070312 236.8329143 409.372070312 234.258789062 c 4
 409.372070312 225.414214399 402.038458844 217.900390625 393.234375 217.900390625 c 4
 386.395170179 217.900390625 382.325800457 221.502579496 379.403115459 225.886606993 c 4
 373.485630291 235.059101409 368.106287342 243.389808759 360.815434412 251.26261521 c 4
 340.432283888 274.092284465 313.301983093 291.554096341 278.485640252 299.238339941 c 4
 267.949743747 301.563696043 257.235855687 302.725585938 246.3359375 302.725585938 c 4
 206.380132929 302.725585938 174.058262097 287.765762568 150.150088036 268.689822629 c 4
 143.417162874 263.420323691 137.922091063 257.252407834 131.7772175 251.400516875 c 4
 128.685904365 248.30920374 125.61662756 246.17578125 119.98046875 246.17578125 c 4
133.234375 133.07421875 m 4
 124.551811322 133.07421875 117.09765625 140.529285286 117.09765625 149.211914062 c 4
 117.09765625 188.459686952 134.233423359 219.751539168 155.015690687 240.532039747 c 4
 175.817708997 261.335826635 207.058177796 278.450195312 246.3359375 278.450195312 c 4
 285.584571334 278.450195312 316.873858252 261.314365811 337.65612375 240.532100313 c 4
 358.458132993 219.730091069 375.57421875 188.489897835 375.57421875 149.211914062 c 4
 375.57421875 100.833147224 362.232344336 62.9678378207 344.849962246 30.8537741676 c 4
 338.574626243 19.2600501995 330.504347867 6.64861236017 322.41393625 -2.41393625 c 4
 319.275373196 -5.55249930363 315.748149158 -8.3017578125 309.955078125 -8.3017578125 c 4
 301.152608365 -8.3017578125 293.817382812 -1.00555868457 293.817382812 7.8359375 c 4
 293.817382812 11.3931539315 295.020893683 14.7646468799 297.294286712 17.8500429149 c 4
 302.904165001 25.5276459753 308.086465302 32.4166305648 313.106223921 40.6856203782 c 4
 330.956495632 69.9202652824 343.298828125 105.417662461 343.298828125 149.211914062 c 4
 343.298828125 178.736227145 330.41254041 202.138247414 314.83606375 217.713016875 c 4
 299.245976855 233.30310377 275.878878054 246.17578125 246.3359375 246.17578125 c 4
 216.812735271 246.17578125 193.410292247 233.288474434 177.834834688 217.713016875 c 4
 162.244683249 202.122865437 149.372070312 178.757364547 149.372070312 149.211914062 c 4
 149.372070312 140.529741475 141.916797445 133.07421875 133.234375 133.07421875 c 4
117.09765625 92.662109375 m 4
 117.09765625 101.344481428 124.551554614 108.799804688 133.234375 108.799804688 c 4
 152.061349065 108.799804688 164.736290548 119.994502356 170.494756062 133.430921888 c 4
 172.594953075 138.331381584 173.647460938 143.576534436 173.647460938 149.211914062 c 4
 173.647460938 171.303016868 183.164114521 188.715619833 194.887821562 200.439326875 c 4
 206.607281728 212.15878704 224.244854987 221.900390625 246.3359375 221.900390625 c 4
 268.405847003 221.900390625 285.851595662 212.150104963 297.56237375 200.439326875 c 4
 309.28504788 188.716652745 319.0234375 171.299433337 319.0234375 149.211914062 c 4
 319.0234375 114.849007658 309.670189904 85.3635160858 296.920255668 61.4593708365 c 4
 282.474917517 34.3728649816 261.366062851 10.8192933395 235.906766915 -5.56818792409 c 4
 233.439561083 -7.11070301325 230.919224003 -8.3017578125 227.1171875 -8.3017578125 c 4
 218.275791275 -8.3017578125 210.979492188 -0.967477963248 210.979492188 7.8359375 c 4
 210.979492188 14.3914078012 213.926684587 17.9701542035 217.903051018 21.0951148426 c 4
 225.951124445 27.6525846426 233.612537279 32.6220150455 240.952554135 39.9620319015 c 4
 266.477645302 65.2340675397 286.748046875 102.097990463 286.748046875 149.211914062 c 4
 286.748046875 168.038962665 275.553219582 180.713885164 262.116929674 186.472295125 c 4
 257.216469978 188.572492137 251.971317126 189.625 246.3359375 189.625 c 4
 227.507838601 189.625 214.834251579 178.429861565 209.075556438 164.992906237 c 4
 206.975359425 160.092446541 205.922851562 154.847293689 205.922851562 149.211914062 c 4
 205.922851562 127.118660594 196.403131051 109.483628118 184.682490938 97.7647746875 c 4
 172.949552371 86.0318361206 155.346364679 76.5244140625 133.234375 76.5244140625 c 4
 124.551811322 76.5244140625 117.09765625 83.9794805983 117.09765625 92.662109375 c 4
EndSplineSet
EndChar

StartChar: uniF198
Encoding: 90 61848 46
Width: 512
LayerCount: 2
Fore
SplineSet
48 336 m 1
 256 336 l 1
 256 304 l 1
 48 304 l 1
 48 336 l 1
48 272 m 1
 368 272 l 1
 368 240 l 1
 48 240 l 1
 48 272 l 1
400 272 m 1
 480 192 l 1
 400 112 l 1
 400 272 l 1
48 208 m 1
 368 208 l 1
 368 176 l 1
 48 176 l 1
 48 208 l 1
48 144 m 1
 368 144 l 1
 368 112 l 1
 48 112 l 1
 48 144 l 1
48 80 m 1
 256 80 l 1
 256 48 l 1
 48 48 l 1
 48 80 l 1
EndSplineSet
Validated: 1
EndChar

StartChar: uniF17C
Encoding: 91 61820 47
Width: 512
Flags: HW
LayerCount: 2
Fore
SplineSet
270 413.274414062 m 0
 314.190429688 413.274414062 351.16015625 400.643554688 380.504882812 383.3203125 c 0
 412.751953125 364.286132812 440.084960938 336.952148438 459.119140625 304.706054688 c 0
 476.4609375 275.329101562 489.073242188 238.431640625 489.073242188 194.201171875 c 0
 489.073242188 150.010742188 476.442382812 113.041015625 459.119140625 83.6962890625 c 0
 440.084960938 51.44921875 412.750976562 24.1162109375 380.504882812 5.08203125 c 0
 351.127929688 -12.259765625 314.23046875 -24.8720703125 270 -24.8720703125 c 0
 225.809570312 -24.8720703125 188.83984375 -12.2412109375 159.495117188 5.08203125 c 0
 127.248046875 24.1162109375 99.9150390625 51.4501953125 80.880859375 83.6962890625 c 0
 63.5390625 113.073242188 50.9267578125 149.970703125 50.9267578125 194.201171875 c 0
 50.9267578125 238.391601562 63.5576171875 275.361328125 80.880859375 304.706054688 c 0
 99.9150390625 336.953125 127.249023438 364.286132812 159.495117188 383.3203125 c 0
 188.872070312 400.662109375 225.76953125 413.274414062 270 413.274414062 c 0
270 6.111328125 m 0
 308.07421875 6.111328125 339.705078125 16.9609375 364.987304688 31.826171875 c 0
 392.74609375 48.146484375 416.0546875 71.455078125 432.375 99.2138671875 c 0
 447.255859375 124.5234375 458.08984375 156.092773438 458.08984375 194.201171875 c 0
 458.08984375 232.275390625 447.240234375 263.90625 432.375 289.188476562 c 0
 416.0546875 316.947265625 392.74609375 340.255859375 364.987304688 356.576171875 c 0
 339.677734375 371.45703125 308.108398438 382.291015625 270 382.291015625 c 0
 231.92578125 382.291015625 200.294921875 371.44140625 175.012695312 356.576171875 c 0
 147.25390625 340.255859375 123.9453125 316.947265625 107.625 289.188476562 c 0
 92.744140625 263.87890625 81.91015625 232.309570312 81.91015625 194.201171875 c 0
 81.91015625 156.126953125 92.759765625 124.49609375 107.625 99.2138671875 c 0
 123.9453125 71.455078125 147.25390625 48.146484375 175.012695312 31.826171875 c 0
 200.322265625 16.9453125 231.891601562 6.111328125 270 6.111328125 c 0
270 42.98828125 m 0
 236.350585938 42.98828125 209.591796875 57.431640625 191.76953125 75.25390625 c 0
 173.928710938 93.095703125 159.50390625 119.809570312 159.50390625 153.484375 c 2
 159.50390625 155.404296875 l 1
 380.49609375 155.404296875 l 1
 380.49609375 153.484375 l 2
 380.49609375 119.834960938 366.053710938 93.0771484375 348.23046875 75.25390625 c 0
 330.388671875 57.4130859375 303.674804688 42.98828125 270 42.98828125 c 0
270 73.97265625 m 0
 288.74609375 73.97265625 304.182617188 80.330078125 315.868164062 88.5732421875 c 0
 328.123046875 97.216796875 338.037109375 109.485351562 343.983398438 124.419921875 c 1
 196.016601562 124.419921875 l 1
 204.92578125 102.04296875 222.282226562 85.4599609375 245.6796875 77.80078125 c 0
 253.474609375 75.248046875 261.57421875 73.97265625 270 73.97265625 c 0
322.369140625 268.84765625 m 2
 322.369140625 281.1015625 332.391601562 291.125976562 344.646484375 291.125976562 c 0
 354.573242188 291.125976562 361.784179688 284.86328125 365.046875 277.93359375 c 0
 366.294921875 275.280273438 366.924804688 272.446289062 366.924804688 269.484375 c 2
 366.924804688 214.134765625 l 2
 366.924804688 203.943359375 360.435546875 197.15234375 353.141601562 194.026367188 c 0
 350.436523438 192.8671875 347.590820312 192.28125 344.646484375 192.28125 c 0
 332.393554688 192.28125 322.369140625 202.303710938 322.369140625 214.55859375 c 2
 322.369140625 268.84765625 l 2
173.075195312 268.84765625 m 2
 173.075195312 281.1015625 183.098632812 291.125976562 195.353515625 291.125976562 c 0
 205.279296875 291.125976562 212.491210938 284.86328125 215.75390625 277.93359375 c 0
 217.001953125 275.280273438 217.630859375 272.446289062 217.630859375 269.484375 c 2
 217.630859375 214.134765625 l 2
 217.630859375 203.942382812 211.142578125 197.15234375 203.84765625 194.026367188 c 0
 201.143554688 192.8671875 198.297851562 192.28125 195.353515625 192.28125 c 0
 183.100585938 192.28125 173.075195312 202.303710938 173.075195312 214.55859375 c 2
 173.075195312 268.84765625 l 2
EndSplineSet
EndChar

StartChar: uniF17E
Encoding: 93 61822 48
Width: 512
LayerCount: 2
Fore
SplineSet
320 400 m 1
 399.1201 400 464 335.1201 464 256 c 0
 464 176.8799 399.1201 112 320 112 c 0
 296.8799 112 274.8799 118.24023 256 127.5195 c 1
 256 80 l 1
 208 80 l 1
 208 32 l 1
 160 32 l 1
 160 -16 l 1
 48 -16 l 1
 48 102.496 l 1
 52.48047 107.51944 l 1
 178.49647 232.99244 l 1
 177.36073 240.35182 176.00038 247.67994 176.00038 256.00024 c 0
 176.00038 335.12034 240.88028 400.00024 320.00038 400.00024 c 1
 320 400 l 1
320 368 m 1
 320.015625 368 l 1
 258.335925 368 208.015625 317.6797 208.015625 256 c 0
 208.015625 248.17578 209.423825 239.584 211.024415 229.9844 c 2
 212.496095 221.50393 l 1
 206.496095 216.00002 l 1
 80.000095 89.00802 l 1
 80.000095 16.00022 l 1
 128.000095 16.00022 l 1
 128.000095 64.00022 l 1
 176.000095 64.00022 l 1
 176.000095 112.00022 l 1
 224.000095 112.00022 l 1
 224.000095 160.00022 l 1
 261.503995 160.00022 l 1
 265.503995 158.00022 l 2
 280.719795 149.69651 300.639695 144.00022 320.000095 144.00022 c 0
 381.679795 144.00022 432.000095 194.32052 432.000095 256.00022 c 0
 432.000095 317.67992 381.679795 368.00022 320.000095 368.00022 c 1
 320 368 l 1
352 320 m 0
 369.6797 320 384 305.6797 384 288 c 0
 384 270.3203 369.6797 256 352 256 c 0
 334.3203 256 320 270.3203 320 288 c 0
 320 305.6797 334.3203 320 352 320 c 0
EndSplineSet
Validated: 1
EndChar

StartChar: uniF19B
Encoding: 95 61851 49
Width: 512
LayerCount: 2
Fore
SplineSet
240 400 m 2
 260.1602 400 274.4316 385.7598 281.5039 368 c 1
 399.9999 368 l 1
 399.9999 224 l 1
 431.9999 224 l 1
 431.9999 -32 l 1
 207.9999 -32 l 1
 207.9999 0 l 1
 79.9999 0 l 1
 79.9999 368 l 1
 198.4959 368 l 1
 205.56817 385.7598 219.8397 400 239.9998 400 c 2
 240 400 l 2
240 368 m 0
 231.12012 368 224 360.87988 224 352 c 2
 224 336 l 1
 176 336 l 1
 176 304 l 1
 304 304 l 1
 304 336 l 1
 256 336 l 1
 256 352 l 2
 256 360.87988 248.87988 368 240 368 c 0
112 336 m 1
 112 32 l 1
 208 32 l 1
 208 224 l 1
 368 224 l 1
 368 336 l 1
 336 336 l 1
 336 272 l 1
 144 272 l 1
 144 336 l 1
 112 336 l 1
240 192 m 1
 240 0 l 1
 400 0 l 1
 400 192 l 1
 240 192 l 1
EndSplineSet
Validated: 1
EndChar

StartChar: uniF18D
Encoding: 96 61837 50
Width: 512
LayerCount: 2
Fore
SplineSet
32 352 m 5
 480 352 l 5
 480 64 l 5
 272 64 l 5
 272 32 l 5
 352 32 l 5
 352 0 l 5
 160 0 l 5
 160 32 l 5
 240 32 l 5
 240 64 l 5
 32 64 l 5
 32 352 l 5
64 320 m 5
 64 96 l 5
 448 96 l 5
 448 320 l 5
 64 320 l 5
EndSplineSet
Validated: 1
EndChar

StartChar: uniF1B9
Encoding: 99 61881 51
Width: 512
LayerCount: 2
Fore
SplineSet
312 400 m 5
 395.7598 400 464 331.7598 464 248 c 4
 464 164.2402 395.7598 96 312 96 c 4
 276 96 243.0723 108.96 217.0078 130 c 5
 75.5198 -11.52 l 5
 52.4807 11.5191 l 5
 194.0007 152.9921 l 5
 172.9607 179.0878 160.0007 211.9999 160.0007 247.9999 c 4
 160.0007 331.7597 228.2409 399.9999 312.0007 399.9999 c 5
 312 400 l 5
312 368 m 4
 245.5361 368 192 314.4639 192 248 c 4
 192 181.5361 245.5361 128 312 128 c 4
 378.4639 128 432 181.5361 432 248 c 4
 432 314.4639 378.4639 368 312 368 c 4
EndSplineSet
Validated: 1
EndChar

StartChar: uniF177
Encoding: 100 61815 52
Width: 512
LayerCount: 2
Fore
SplineSet
48 336 m 1
 464 336 l 1
 464 304 l 1
 48 304 l 1
 48 336 l 1
48 272 m 1
 352 272 l 1
 352 240 l 1
 48 240 l 1
 48 272 l 1
464 272 m 1
 464 112 l 1
 384 192 l 1
 464 272 l 1
48 208 m 1
 352 208 l 1
 352 176 l 1
 48 176 l 1
 48 208 l 1
48 144 m 1
 352 144 l 1
 352 112 l 1
 48 112 l 1
 48 144 l 1
48 80 m 1
 464 80 l 1
 464 48 l 1
 48 48 l 1
 48 80 l 1
EndSplineSet
Validated: 1
EndChar

StartChar: uniF15E
Encoding: 106 61790 53
Width: 512
LayerCount: 2
Fore
SplineSet
80 384 m 1
 432 384 l 1
 432 346.4961 l 1
 428.48047 342.01563 l 1
 304.00047 186.49563 l 1
 304.00047 71.99963 l 1
 297.50438 67.00744 l 1
 233.50438 19.00744 l 1
 208.00048 -0.000360000000011 l 1
 208.00048 186.49564 l 1
 83.52048 342.01564 l 1
 80.00095 346.49611 l 1
 80.00095 384.00001 l 1
 80 384 l 1
116.48 352 m 1
 231.519 208 l 1
 280.4799 208 l 1
 395.5189 352 l 1
 116.4799 352 l 1
 116.48 352 l 1
240 176 m 1
 240 64 l 1
 272 88 l 1
 272 176 l 1
 240 176 l 1
EndSplineSet
Validated: 5
EndChar

StartChar: uniF14C
Encoding: 113 61772 54
Width: 512
VWidth: 2048
Flags: HW
LayerCount: 2
Fore
SplineSet
172.55078125 323.201171875 m 5
 112 323.201171875 l 5
 112 383.751953125 l 5
 172.55078125 383.751953125 l 5
 172.55078125 323.201171875 l 5
285.651367188 323.201171875 m 5
 225.100585938 323.201171875 l 5
 225.100585938 383.751953125 l 5
 285.651367188 383.751953125 l 5
 285.651367188 323.201171875 l 5
398.751953125 323.201171875 m 5
 338.201171875 323.201171875 l 5
 338.201171875 383.751953125 l 5
 398.751953125 383.751953125 l 5
 398.751953125 323.201171875 l 5
172.55078125 210.100585938 m 5
 112 210.100585938 l 5
 112 270.650390625 l 5
 172.55078125 270.650390625 l 5
 172.55078125 210.100585938 l 5
285.651367188 210.100585938 m 5
 225.100585938 210.100585938 l 5
 225.100585938 270.650390625 l 5
 285.651367188 270.650390625 l 5
 285.651367188 210.100585938 l 5
398.751953125 210.100585938 m 5
 338.201171875 210.100585938 l 5
 338.201171875 270.650390625 l 5
 398.751953125 270.650390625 l 5
 398.751953125 210.100585938 l 5
172.55078125 97 m 5
 112 97 l 5
 112 157.549804688 l 5
 172.55078125 157.549804688 l 5
 172.55078125 97 l 5
285.651367188 97 m 5
 225.100585938 97 l 5
 225.100585938 157.549804688 l 5
 285.651367188 157.549804688 l 5
 285.651367188 97 l 5
285.651367188 -16.1015625 m 5
 225.100585938 -16.1015625 l 5
 225.100585938 44.44921875 l 5
 285.651367188 44.44921875 l 5
 285.651367188 -16.1015625 l 5
398.751953125 97 m 5
 338.201171875 97 l 5
 338.201171875 157.549804688 l 5
 398.751953125 157.549804688 l 5
 398.751953125 97 l 5
EndSplineSet
EndChar

StartChar: uniF195
Encoding: 114 61845 55
Width: 512
Flags: HW
LayerCount: 2
Fore
SplineSet
112 208 m 1
 112 16 l 1
 368 16 l 1
 368 208 l 1
 112 208 l 1
320 240 m 1
 320 288 l 2
 320 319 306.333333333 342 279 358 c 0
 267 364.666666667 254 368 240 368 c 0
 209.333333333 368 186 354.333333333 170 327 c 0
 167.333333333 322.333333333 165.333333333 318 164 314 c 1
 134 326 l 1
 148 361.333333333 172.333333333 384.333333333 207 395 c 0
 218.333333333 398.333333333 229.333333333 400 240 400 c 0
 279.333333333 400 310.333333333 383.333333333 333 350 c 0
 345.666666667 330.666666667 352 310 352 288 c 2
 352 240 l 1
 400 240 l 1
 400 -16 l 1
 80 -16 l 1
 80 240 l 1
 320 240 l 1
EndSplineSet
EndChar

StartChar: uniF109
Encoding: 117 61705 56
Width: 512
LayerCount: 2
Fore
SplineSet
131.008 368 m 1
 130.9601484 368 l 1
 157.0246484 368 l 1
 160.4806984 357.5039 l 1
 191.5197984 272 l 1
 192.0002674 272 l 1
 192.0002674 271.007812 l 1
 206.9924674 229.503912 l 1
 208.0002774 227.007822 l 1
 208.0002774 208.000022 l 1
 176.0002774 208.000022 l 1
 176.0002774 221.503922 l 1
 169.5041874 240.000022 l 1
 118.4963874 240.000022 l 1
 112.0002974 221.503922 l 1
 112.0002974 208.000022 l 1
 80.0002974 208.000022 l 1
 80.0002974 227.007822 l 1
 80.9924854 229.503912 l 1
 96.0002854 270.992212 l 1
 96.0002854 272.000022 l 1
 96.5120044 272.000022 l 1
 127.4886044 357.503922 l 1
 131.008 368 l 1
352 368 m 1
 384 368 l 1
 384 69.008 l 1
 425.5039 110.4963 l 1
 448 88.0002 l 1
 379.5195 19.008 l 1
 368 8.0002 l 1
 356.4805 18.9924 l 1
 288 88.0002 l 1
 310.4961 110.4963 l 1
 352 68.9924 l 1
 352 368.0004 l 1
 352 368 l 1
144 309.504 m 1
 130.4961 272.0001 l 1
 157.5039 272.0001 l 1
 144 309.504 l 1
80 176 m 1
 207.984 176 l 1
 207.984 137.5039 l 1
 203.50353 132.48046 l 1
 118.99183 47.99996 l 1
 207.99963 47.99996 l 1
 207.99963 15.99996 l 1
 79.99963 15.99996 l 1
 79.99963 54.49606 l 1
 84.4801 59.5195 l 1
 169.0074 144 l 1
 79.9996 144 l 1
 79.9996 176 l 1
 80 176 l 1
EndSplineSet
Validated: 5
EndChar

StartChar: uniF13C
Encoding: 121 61756 57
Width: 512
Flags: HW
LayerCount: 2
Fore
SplineSet
256 400 m 0
 370.688 400 464 306.6885 464 192 c 0
 464 77.3115 370.6885 -16 256 -16 c 0
 141.3115 -16 48 77.3115 48 192 c 0
 48 306.6885 141.3115 400 256 400 c 0
  Spiro
    256 400 o
    360.806 371.615 o
    435.614 296.806 o
    464 192 o
    435.615 87.1939 o
    360.806 12.3854 o
    256 -16 o
    151.194 12.3854 o
    76.3854 87.1939 o
    48 192 o
    76.3854 296.806 o
    151.194 371.615 o
    0 0 z
  EndSpiro
256 368 m 0
 158.6084 368 80 289.3916 80 192 c 0
 80 94.6084 158.6084 16 256 16 c 0
 353.3916 16 432 94.6084 432 192 c 0
 432 289.3916 353.3916 368 256 368 c 0
  Spiro
    256 368 o
    167.163 344.059 o
    103.941 280.837 o
    80 192 o
    103.941 103.163 o
    167.163 39.9413 o
    256 16 o
    344.837 39.9413 o
    408.059 103.163 o
    432 192 o
    408.059 280.837 o
    344.837 344.059 o
    0 0 z
  EndSpiro
364.790039062 180.66796875 m 5
 364.768554688 180.646484375 l 5
 245.272460938 180.623046875 l 5
 245.329101562 300.153320312 l 5
 212.74609375 300.15234375 l 5
 212.74609375 164.388671875 l 5
 213.119140625 148.469726562 l 5
 229.026367188 148.0859375 l 5
 364.790039062 148.0859375 l 5
 364.790039062 180.66796875 l 5
  Spiro
    364.791 180.668 v
    364.768 180.646 v
    245.272 180.623 v
    245.329 300.153 v
    212.746 300.153 v
    212.746 164.388 v
    213.119 148.47 v
    229.026 148.086 v
    364.79 148.086 v
    0 0 z
  EndSpiro
EndSplineSet
EndChar

StartChar: uniF115
Encoding: 122 61717 58
Width: 512
Flags: HW
LayerCount: 2
Fore
SplineSet
256 382.496 m 5
 256 382.511625 l 5
 267.5195 371.536025 l 5
 403.5195 235.536025 l 5
 380.4804 212.496025 l 5
 272.0004 321.008025 l 5
 272.0004 2.49999999937e-05 l 5
 240.0004 2.49999999937e-05 l 5
 240.0004 321.024025 l 5
 131.5204 212.463025 l 5
 108.4813 235.503025 l 5
 244.4813 371.503025 l 5
 256 382.496 l 5
EndSplineSet
EndChar

StartChar: uniF11F
Encoding: 123 61727 59
Width: 512
VWidth: 2048
Flags: HW
LayerCount: 2
Fore
SplineSet
199.137695312 81.1005859375 m 2
 186.764648438 81.599609375 176.279296875 85.91796875 167.681640625 94.056640625 c 0
 163.620117188 98.5380859375 160.459960938 103.239257812 158.200195312 108.159179688 c 0
 156.009765625 113.95703125 154.8515625 119.7421875 154.725585938 125.512695312 c 2
 154.725585938 379.990234375 l 2
 155.224609375 392.36328125 159.54296875 402.848632812 167.681640625 411.446289062 c 0
 172.163085938 415.5078125 176.864257812 418.66796875 181.784179688 420.927734375 c 0
 187.58203125 423.118164062 193.3671875 424.276367188 199.137695312 424.40234375 c 2
 312.239257812 424.40234375 l 2
 324.612304688 423.903320312 335.09765625 419.584960938 343.6953125 411.446289062 c 0
 347.756835938 406.96484375 350.916992188 402.263671875 353.176757812 397.34375 c 0
 355.3671875 391.545898438 356.525390625 385.760742188 356.651367188 379.990234375 c 2
 356.651367188 125.512695312 l 2
 356.15234375 113.139648438 351.833984375 102.654296875 343.6953125 94.056640625 c 0
 339.213867188 89.9951171875 334.512695312 86.8349609375 329.592773438 84.5751953125 c 0
 323.794921875 82.384765625 318.009765625 81.2265625 312.239257812 81.1005859375 c 2
 199.137695312 81.1005859375 l 2
199.137695312 392.127929688 m 1
 191.639648438 390.966796875 187.59375 386.920898438 187 379.990234375 c 2
 187 125.512695312 l 1
 188.161132812 118.014648438 192.20703125 113.96875 199.137695312 113.375976562 c 2
 312.239257812 113.375976562 l 1
 319.737304688 114.537109375 323.783203125 118.583007812 324.376953125 125.512695312 c 2
 324.376953125 379.990234375 l 1
 323.215820312 387.48828125 319.169921875 391.534179688 312.239257812 392.127929688 c 2
 199.137695312 392.127929688 l 1
369.9375 81.57421875 m 0
 377.237304688 94.8095703125 381.2265625 112.456054688 381.90625 134.513671875 c 0
 382.1484375 142.375976562 381.822265625 162.938476562 380.926757812 196.201171875 c 1
 380.926757812 198.201171875 l 1
 413.202148438 198.201171875 l 1
 413.202148438 116.235351562 l 2
 412.6796875 90.8828125 403.721679688 69.279296875 386.329101562 51.4228515625 c 0
 367.775390625 33.771484375 346.171875 24.814453125 321.516601562 24.5498046875 c 2
 271.826171875 24.5498046875 l 1
 271.826171875 0.2744140625 l 1
 328.376953125 0.2744140625 l 1
 328.376953125 -32 l 1
 183 -32 l 1
 183 0.2744140625 l 1
 239.55078125 0.2744140625 l 1
 239.55078125 24.5498046875 l 1
 189.860351562 24.5498046875 l 2
 164.5078125 25.072265625 142.904296875 34.0302734375 125.047851562 51.4228515625 c 0
 107.396484375 69.9765625 98.439453125 91.580078125 98.1748046875 116.235351562 c 2
 98.1748046875 198.201171875 l 1
 130.450195312 198.201171875 l 1
 130.450195312 196.201171875 l 1
 129.184570312 149.193359375 l 2
 129.184570312 133.884765625 130.22265625 119.956054688 132.299804688 107.40625 c 0
 134.2265625 97.49609375 137.2734375 88.8857421875 141.439453125 81.57421875 c 0
 146.430664062 74.0390625 152.489257812 68.0537109375 159.61328125 63.619140625 c 0
 167.895507812 59.236328125 177.977539062 56.9716796875 189.860351562 56.8251953125 c 2
 321.516601562 56.8251953125 l 2
 334.067382812 57.1162109375 344.149414062 59.380859375 351.763671875 63.619140625 c 0
 359.561523438 68.71875 365.620117188 74.7041015625 369.9375 81.57421875 c 0
EndSplineSet
EndChar

StartChar: uniF12C
Encoding: 130 61740 60
Width: 512
LayerCount: 2
Fore
SplineSet
256 400 m 1
 312 400 363.2 377.792 400 340.9922 c 1
 377.5039 318.4961 l 1
 347.1035 348.8965 304 368 255.9999 368 c 0
 158.4003 368 79.9999 289.5996 79.9999 192 c 0
 79.9999 94.4004 158.4159 16 256.0159 16 c 0
 353.6165 16 432.0159 94.4004 432.0159 192 c 0
 432.0159 206.4004 430.20828 219.2002 427.00809 232 c 1
 452.99249 257.5039 l 1
 460.99249 236.7041 464.00029 214.4004 464.00029 192 c 0
 464.00029 76.8 371.20049 -16 256.00029 -16 c 0
 140.80009 -16 48.00029 76.7998 48.00029 192 c 0
 48.00029 307.2002 140.80009 400 256.00029 400 c 1
 256 400 l 1
436.48 331.52 m 5
 436.48 331.5366016 l 5
 459.5191 308.4966016 l 5
 267.5191 116.4966016 l 5
 255.9996 105.5044016 l 5
 244.4801 116.4810016 l 5
 164.4801 196.4810016 l 5
 187.5192 219.4722016 l 5
 255.9997 150.9927016 l 5
 436.48 331.52 l 5
EndSplineSet
Validated: 5
EndChar

StartChar: uniF121
Encoding: 131 61729 61
Width: 512
LayerCount: 2
Fore
SplineSet
112 368 m 1
 400 368 l 1
 400 0 l 1
 374.4961 18.9922 l 1
 256.0001 108 l 1
 137.5041 19.0078 l 1
 112.0002 3.5527136788e-15 l 1
 112.0002 368 l 1
 112 368 l 1
144 336 m 1
 144 64 l 1
 246.496 140.9922 l 1
 255.99991 148.00001 l 1
 265.50382 141.00782 l 1
 367.99982 64.00002 l 1
 367.99982 336.00002 l 1
 143.99982 336.00002 l 1
 144 336 l 1
EndSplineSet
Validated: 5
EndChar

StartChar: uniF12E
Encoding: 132 61742 62
Width: 512
LayerCount: 2
Fore
SplineSet
452.48 347.52 m 1
 452.48 347.5366016 l 1
 475.5191 324.4966016 l 1
 187.5191 36.4966016 l 1
 175.9996 25.5044016 l 1
 164.4801 36.4810016 l 1
 36.4801 164.4810016 l 1
 59.5192 187.4722016 l 1
 175.9992 70.9932016 l 1
 452.48 347.52 l 1
EndSplineSet
Validated: 1
EndChar

StartChar: uniF1C3
Encoding: 133 61891 63
Width: 512
Flags: HW
LayerCount: 2
Fore
SplineSet
427.302734375 89.275390625 m 5
 427.302734375 57 l 5
 314.170898438 57 l 5
 313.633789062 40.0908203125 306.254882812 26.810546875 297.047851562 17.6025390625 c 4
 287.543945312 8.099609375 273.5390625 0.44921875 255.651367188 0.44921875 c 4
 237.778320312 0.44921875 223.749023438 8.109375 214.254882812 17.6025390625 c 4
 205.038085938 26.8193359375 197.668945312 40.078125 197.131835938 57 c 5
 84 57 l 5
 84 89.275390625 l 5
 93.4248046875 89.275390625 102.850585938 89.275390625 112.275390625 89.275390625 c 5
 112.275390625 256.926757812 l 6
 112.275390625 285.768554688 120.641601562 310.064453125 131.876953125 329.284179688 c 4
 150.110351562 360.481445312 179.255859375 384.40234375 217.557617188 395.147460938 c 4
 229.811523438 398.584960938 242.513671875 400.302734375 255.651367188 400.302734375 c 4
 284.494140625 400.302734375 308.7890625 391.935546875 328.008789062 380.701171875 c 4
 359.204101562 362.46875 383.129882812 333.321289062 393.872070312 295.020507812 c 4
 397.309570312 282.765625 399.02734375 270.063476562 399.02734375 256.926757812 c 6
 399.02734375 89.275390625 l 5
 408.452148438 89.275390625 417.877929688 89.275390625 427.302734375 89.275390625 c 5
144.55078125 89.275390625 m 5
 366.751953125 89.275390625 l 5
 366.751953125 256.926757812 l 6
 366.751953125 290.772460938 351.989257812 317.470703125 334.092773438 335.3671875 c 4
 316.178710938 353.28125 289.521484375 368.02734375 255.651367188 368.02734375 c 4
 221.805664062 368.02734375 195.106445312 353.263671875 177.209960938 335.3671875 c 4
 159.295898438 317.453125 144.55078125 290.796875 144.55078125 256.926757812 c 6
 144.55078125 89.275390625 l 5
255.651367188 32.724609375 m 4
 267.903320312 32.724609375 276.104492188 40.060546875 279.8828125 48.7509765625 c 4
 280.994140625 51.3076171875 281.655273438 54.048828125 281.858398438 57 c 5
 229.444335938 57 l 5
 230.205078125 45.966796875 237.088867188 38.3828125 245.40234375 34.7685546875 c 4
 248.52734375 33.41015625 251.927734375 32.724609375 255.651367188 32.724609375 c 4
EndSplineSet
EndChar

StartChar: uniF1C2
Encoding: 134 61890 64
Width: 512
Flags: HW
LayerCount: 2
Fore
SplineSet
340.614257812 205.375976562 m 4
 371.447265625 205.375976562 395.712890625 192.192382812 412.053710938 175.8515625 c 4
 428.411132812 159.494140625 441.578125 135.268554688 441.578125 104.412109375 c 4
 441.578125 73.580078125 428.39453125 49.314453125 412.053710938 32.9736328125 c 4
 395.696289062 16.6162109375 371.470703125 3.44921875 340.614257812 3.44921875 c 4
 309.782226562 3.44921875 285.516601562 16.6328125 269.17578125 32.9736328125 c 4
 252.818359375 49.3310546875 239.651367188 73.556640625 239.651367188 104.412109375 c 4
 239.651367188 135.245117188 252.834960938 159.510742188 269.17578125 175.8515625 c 4
 285.533203125 192.208984375 309.758789062 205.375976562 340.614257812 205.375976562 c 4
281.977539062 140.120117188 m 5
 276.21484375 130.767578125 271.926757812 118.5078125 271.926757812 104.412109375 c 4
 271.926757812 83.509765625 280.938476562 66.849609375 291.995117188 55.79296875 c 4
 303.0625 44.724609375 319.696289062 35.724609375 340.614257812 35.724609375 c 4
 354.6953125 35.724609375 366.982421875 40.021484375 376.322265625 45.775390625 c 5
 281.977539062 140.120117188 l 5
399.251953125 68.705078125 m 5
 405.013671875 78.056640625 409.302734375 90.3173828125 409.302734375 104.412109375 c 4
 409.302734375 125.298828125 400.065429688 141.760742188 389.013671875 152.811523438 c 4
 377.951171875 163.874023438 361.515625 173.100585938 340.614257812 173.100585938 c 4
 326.534179688 173.100585938 314.24609375 168.803710938 304.907226562 163.049804688 c 5
 399.251953125 68.705078125 l 5
213.375976562 35.724609375 m 4
 218.328125 35.724609375 222.165039062 37.3955078125 225.92578125 38.841796875 c 5
 231.680664062 29.36328125 238.12890625 21.1474609375 245.423828125 13.1904296875 c 5
 235.895507812 7.314453125 225.270507812 3.44921875 213.375976562 3.44921875 c 4
 195.50390625 3.44921875 181.47265625 11.109375 171.979492188 20.6025390625 c 4
 162.763671875 29.818359375 155.39453125 43.0791015625 154.857421875 60 c 5
 70 60 l 5
 70 92.275390625 l 5
 79.4248046875 92.275390625 88.8505859375 92.275390625 98.275390625 92.275390625 c 5
 98.275390625 231.651367188 l 6
 98.275390625 266.890625 112.982421875 294.015625 131.99609375 313.03125 c 4
 151.03515625 332.068359375 178.102539062 346.751953125 213.375976562 346.751953125 c 4
 248.427734375 346.751953125 276.299804688 331.708007812 294.866210938 313.141601562 c 4
 313.450195312 294.557617188 328.477539062 266.728515625 328.477539062 231.651367188 c 6
 328.477539062 229.651367188 l 5
 296.202148438 229.651367188 l 5
 296.202148438 231.651367188 l 6
 296.202148438 256.875976562 285.314453125 276.833007812 271.936523438 290.2109375 c 4
 258.544921875 303.602539062 238.620117188 314.4765625 213.375976562 314.4765625 c 4
 187.94140625 314.4765625 168.276367188 303.670898438 154.81640625 290.2109375 c 4
 141.424804688 276.819335938 130.55078125 256.895507812 130.55078125 231.651367188 c 6
 130.55078125 92.275390625 l 5
 209.018554688 92.275390625 l 5
 210.1171875 80.1708984375 212.71875 69.833984375 216.208007812 60 c 5
 206.528320312 60 196.848632812 60 187.168945312 60 c 5
 187.9296875 48.966796875 194.814453125 41.3837890625 203.126953125 37.7685546875 c 4
 206.251953125 36.41015625 209.65234375 35.724609375 213.375976562 35.724609375 c 4
EndSplineSet
EndChar

StartChar: uniF108
Encoding: 135 61704 65
Width: 512
LayerCount: 2
Fore
SplineSet
48 336 m 1
 464 336 l 1
 464 304 l 1
 48 304 l 1
 48 336 l 1
176 272 m 1
 464 272 l 1
 464 240 l 1
 176 240 l 1
 176 272 l 1
48 208 m 1
 464 208 l 1
 464 176 l 1
 48 176 l 1
 48 208 l 1
176 144 m 1
 464 144 l 1
 464 112 l 1
 176 112 l 1
 176 144 l 1
48 80 m 1
 464 80 l 1
 464 48 l 1
 48 48 l 1
 48 80 l 1
EndSplineSet
Validated: 1
EndChar

StartChar: uniF17B
Encoding: 138 61819 66
Width: 512
LayerCount: 2
Fore
SplineSet
176 384 m 2
 336 384 l 2
 362.3203 384 384 362.3203 384 336 c 2
 384 48 l 2
 384 21.6797 362.3203 0 336 0 c 2
 176 0 l 2
 149.6797 0 128 21.6797 128 48 c 2
 128 336 l 2
 128 362.3203 149.6797 384 176 384 c 2
176 352 m 2
 167.12012 352 160 344.87988 160 336 c 2
 160 48 l 2
 160 39.12012 167.12012 32 176 32 c 2
 336 32 l 2
 344.87988 32 352 39.12012 352 48 c 2
 352 336 l 2
 352 344.87988 344.87988 352 336 352 c 2
 176 352 l 2
256 80 m 0
 264.83203 80 272 72.83203 272 64 c 0
 272 55.16797 264.83203 48 256 48 c 0
 247.16797 48 240 55.16797 240 64 c 0
 240 72.83203 247.16797 80 256 80 c 0
EndSplineSet
Validated: 1
EndChar

StartChar: uniF1AB
Encoding: 142 61867 67
Width: 512
LayerCount: 2
Fore
SplineSet
224 384 m 5
 285.6641 384 336 333.6641 336 272 c 4
 336 233.4404 316.3203 199.1523 286.4961 179.0078 c 5
 294.27247 175.67968 301.9199 171.95214 308.9922 167.5195 c 5
 330.0801 182.7998 356.0479 192 384 192 c 4
 454.4961 192 512 134.4961 512 64 c 4
 512 -6.4961 454.4961 -64 384 -64 c 4
 313.5039 -64 256 -6.4961 256 64 c 4
 256 94.3682 266.7197 122.5283 284.4805 144.4805 c 5
 266.4639 154.27249 246.0157 160 224 160 c 4
 153.1201 160 96 102.8799 96 32 c 5
 64 32 l 5
 64 97.9199 104.4316 154.512 161.5039 178.992 c 5
 131.6797 199.1678 112 233.4402 112 271.9998 c 4
 112 333.6639 162.3359 383.9998 224 383.9998 c 5
 224 384 l 5
224 352 m 4
 179.6318 352 144 316.3682 144 272 c 4
 144 227.6318 179.6318 192 224 192 c 4
 268.3682 192 304 227.6318 304 272 c 4
 304 316.3682 268.3682 352 224 352 c 4
384 160 m 4
 330.7842 160 288 117.2158 288 64 c 4
 288 10.7842 330.7842 -32 384 -32 c 4
 437.2158 -32 480 10.7842 480 64 c 4
 480 117.2158 437.2158 160 384 160 c 4
347.52 123.52 m 5
 347.52 123.4721484 l 5
 384.0005 86.9926484 l 5
 420.481 123.5199484 l 5
 443.4722 100.4808484 l 5
 406.9927 64.0003484 l 5
 443.52 27.5198484 l 5
 420.4809 4.5286484 l 5
 384.0004 41.0081484 l 5
 347.5199 4.4808484 l 5
 324.5287 27.5199484 l 5
 361.0082 64.0004484 l 5
 324.4809 100.4809484 l 5
 347.52 123.52 l 5
EndSplineSet
Validated: 1
EndChar

StartChar: uniF1C1
Encoding: 144 61889 68
Width: 512
LayerCount: 2
Fore
SplineSet
256 390.496 m 1
 255.984375 390.496 l 1
 267.503875 379.5194 l 1
 395.503875 251.5194 l 1
 422.496075 223.9999 l 1
 89.519075 223.9999 l 1
 116.479975 251.5038 l 1
 244.479975 379.5038 l 1
 256 390.496 l 1
256 344.992 m 1
 256 345.007625 l 1
 167.0078 255.999825 l 1
 345.0078 255.999825 l 1
 256 344.992 l 1
89.5039 160 m 1
 422.4809 160 l 1
 395.5366 132.4961 l 1
 267.5366 4.4961 l 1
 256.0161 -6.4961 l 1
 244.4966 4.4805 l 1
 116.4966 132.4805 l 1
 89.5039 160 l 1
166.992 128 m 1
 255.9998 38.9922 l 1
 345.0076 128 l 1
 166.9916 128 l 1
 166.992 128 l 1
EndSplineSet
Validated: 5
EndChar

StartChar: uniF19E
Encoding: 145 61854 69
Width: 512
LayerCount: 2
Fore
SplineSet
395.008 383.52 m 1
 394.992375 383.52 l 1
 408.383975 383.52 421.872275 378.1284 432.000175 368.0005 c 0
 452.272675 347.728 452.272675 314.7681 431.9523234 294.5122 c 1
 431.4718544 293.520012 l 1
 430.4640444 292.496572 l 1
 439.9679544 283.008292 l 1
 428.9601544 272.000492 l 1
 179.5361544 22.480492 l 1
 176.0156444 18.992212 l 1
 171.0078344 17.984402 l 1
 83.0078344 0.463902 l 1
 59.5361344 -4.496058 l 1
 64.4960944 18.992242 l 1
 81.9999944 106.992242 l 1
 83.0078044 112.000052 l 1
 86.4960844 115.519582 l 1
 336.0000844 364.992582 l 1
 347.0078844 376.000382 l 1
 357.0078844 366.496472 l 1
 358.4961644 368.000382 l 2
 368.6397644 378.128282 381.6162644 383.519882 395.0078644 383.519882 c 1
 395.008 383.52 l 1
395.008 352 m 1
 395.008 351.984375 l 1
 390.01581 351.984375 385.26386 349.744145 381.008 345.488285 c 2
 379.51972 343.984375 l 1
 408.00022 315.503875 l 1
 409.50413 316.992155 l 2
 418.03245 325.536105 418.03245 336.959955 409.50413 345.503855 c 0
 405.24827 349.759715 399.968 351.999945 395.00803 351.999945 c 1
 395.008 352 l 1
347.488 330.992 m 1
 347.51925 330.992 l 1
 323.99975 307.9842 l 1
 371.99975 259.9842 l 1
 395.00755 283.5037 l 1
 347.488 330.992 l 1
302 284.992 m 1
 301.984375 284.9753984 l 1
 134.463375 117.9673984 l 1
 163.487775 111.4879084 l 1
 173.487775 109.4879084 l 1
 175.503395 99.5035284 l 1
 181.999485 70.4801284 l 1
 349.007485 238.0001284 l 1
 302 284.992 l 1
111.52 90.5117 m 1
 111.504375 90.48045 l 1
 104.992655 57.99995 l 1
 122.016055 41.00775 l 1
 154.496555 47.51947 l 1
 146.496555 82.51167 l 1
 111.52 90.5117 l 1
EndSplineSet
Validated: 37
EndChar

StartChar: uniF166
Encoding: 150 61798 70
Width: 512
LayerCount: 2
Fore
SplineSet
64 368 m 1
 256 368 l 1
 256 336 l 1
 64 336 l 1
 64 368 l 1
336 368 m 1
 368 368 l 1
 368 69.008 l 1
 409.5039 110.4963 l 1
 432 88.0002 l 1
 363.5195 19.008 l 1
 352 8.0002 l 1
 340.4805 18.9924 l 1
 272 88.0002 l 1
 294.4961 110.4963 l 1
 336 68.9924 l 1
 336 368.0004 l 1
 336 368 l 1
64 304 m 1
 224 304 l 1
 224 272 l 1
 64 272 l 1
 64 304 l 1
64 240 m 1
 192 240 l 1
 192 208 l 1
 64 208 l 1
 64 240 l 1
64 176 m 1
 160 176 l 1
 160 144 l 1
 64 144 l 1
 64 176 l 1
64 112 m 1
 128 112 l 1
 128 80 l 1
 64 80 l 1
 64 112 l 1
64 48 m 1
 96 48 l 1
 96 16 l 1
 64 16 l 1
 64 48 l 1
EndSplineSet
Validated: 5
EndChar

StartChar: uniF10C
Encoding: 151 61708 71
Width: 512
LayerCount: 2
Fore
SplineSet
67.5195 275.52 m 1
 255.9995 86.976 l 1
 444.4795 275.537 l 1
 467.5186 252.497 l 1
 267.5186 52.497 l 1
 255.9991 41.5048 l 1
 244.4796 52.4814 l 1
 44.4796 252.4814 l 1
 67.5195 275.52 l 1
EndSplineSet
Validated: 1
EndChar

StartChar: uniF16D
Encoding: 154 61805 72
Width: 512
LayerCount: 2
Fore
SplineSet
80 368 m 1
 432 368 l 1
 432 16 l 1
 80 16 l 1
 80 368 l 1
112 336 m 1
 112 208 l 1
 240 208 l 1
 240 336 l 1
 112 336 l 1
272 336 m 1
 272 208 l 1
 400 208 l 1
 400 336 l 1
 272 336 l 1
112 176 m 1
 112 48 l 1
 240 48 l 1
 240 176 l 1
 112 176 l 1
272 176 m 1
 272 48 l 1
 400 48 l 1
 400 176 l 1
 272 176 l 1
EndSplineSet
Validated: 1
EndChar

StartChar: uniF1D4
Encoding: 157 61908 73
Width: 512
LayerCount: 2
Fore
SplineSet
64 384 m 1
 352 384 l 1
 352 288 l 1
 448 288 l 1
 448 0 l 1
 160 0 l 1
 160 96 l 1
 64 96 l 1
 64 384 l 1
96 352 m 1
 96 128 l 1
 168.9922 128 l 1
 320.0002 278.992 l 1
 320.0002 351.9998 l 1
 96.0002 351.9998 l 1
 96 352 l 1
176 320 m 1
 208 320 l 1
 208 304 l 1
 256 304 l 1
 256 272 l 1
 239.0078 272 l 1
 237.32811 253.5684 232.68846 236.5596 224 222 c 1
 224 192 l 1
 214.84766 192 206.3838 193.05566 198 194.49609 c 1
 179.9678 182.48049 156.3516 175.99999 128 175.99999 c 1
 128 207.99999 l 1
 138.4639 207.99999 147.6162 208.832021 155.5195 210.48046 c 1
 139.7441 221.07226 128 236.91206 128 255.98436 c 1
 159.9844 255.98436 l 1
 159.9844 249.26366 164.24026 242.19236 175.5039 235.50386 c 0
 179.55175 233.08784 184.52831 230.78413 190 228.99214 c 1
 199.2959 239.13574 204.9277 253.59954 207.0078 271.99994 c 1
 128 271.99994 l 1
 128 303.99994 l 1
 176 303.99994 l 1
 176 319.99994 l 1
 176 320 l 1
343.008 256 m 1
 192 105.008 l 1
 192 32.0002 l 1
 416 32.0002 l 1
 416 256.0002 l 1
 343.0078 256.0002 l 1
 343.008 256 l 1
320 226.496 m 1
 320 226.480375 l 1
 334.9922 181.007675 l 1
 366.9922 85.007675 l 1
 368.00001 82.495955 l 1
 368.00001 63.999855 l 1
 336.00001 63.999855 l 1
 336.00001 77.999855 l 1
 335.519541 79.999855 l 1
 304.480441 79.999855 l 1
 303.999972 77.999855 l 1
 303.999972 63.999855 l 1
 271.999972 63.999855 l 1
 271.999972 82.495955 l 1
 272.99216 84.992045 l 1
 304.99216 180.992045 l 1
 320 226.496 l 1
320 126.016 m 1
 320 126.000375 l 1
 315.51953 112.000375 l 1
 324.48047 112.000375 l 1
 320 126.016 l 1
EndSplineSet
Validated: 5
EndChar

StartChar: uniF141
Encoding: 158 61761 74
Width: 512
LayerCount: 2
Fore
SplineSet
64 384 m 1
 320 384 l 1
 320 336 l 1
 288 336 l 1
 288 352 l 1
 96 352 l 1
 96 96 l 1
 176 96 l 1
 176 64 l 1
 64 64 l 1
 64 384 l 1
192 320 m 1
 448 320 l 1
 448 0 l 1
 192 0 l 1
 192 320 l 1
224 288 m 1
 224 32 l 1
 416 32 l 1
 416 288 l 1
 224 288 l 1
EndSplineSet
Validated: 1
EndChar

StartChar: uniF161
Encoding: 159 61793 75
Width: 512
LayerCount: 2
Fore
SplineSet
96 400 m 1
 448 400 l 1
 448 233.52 l 1
 443.51953 228.49656 l 1
 416.00003 201.00826 l 1
 416.00003 -15.99974 l 1
 96.00003 -15.99974 l 1
 96.00003 400.00026 l 1
 96 400 l 1
128 368 m 1
 128 16 l 1
 384 16 l 1
 384 201.024 l 1
 356.4805 228.4957 l 1
 352.00003 233.50351 l 1
 352.00003 367.99951 l 1
 128.00003 367.99951 l 1
 128 368 l 1
384 368 m 1
 384 246.992 l 1
 400 230.992 l 1
 416 246.992 l 1
 416 368 l 1
 384 368 l 1
EndSplineSet
Validated: 5
EndChar

StartChar: uniF178
Encoding: 160 61816 76
Width: 512
LayerCount: 2
Fore
SplineSet
256 400 m 0
 370.688 400 464 306.6885 464 192 c 0
 464 77.3115 370.6885 -16 256 -16 c 0
 141.3115 -16 48 77.3115 48 192 c 0
 48 306.6885 141.3115 400 256 400 c 0
256 368 m 0
 158.6084 368 80 289.3916 80 192 c 0
 80 94.6084 158.6084 16 256 16 c 0
 353.3916 16 432 94.6084 432 192 c 0
 432 289.3916 353.3916 368 256 368 c 0
240 288 m 5
 272 288 l 5
 272 256 l 5
 240 256 l 5
 240 288 l 5
240 224 m 1
 272 224 l 1
 272 96 l 1
 240 96 l 1
 240 224 l 1
EndSplineSet
Validated: 1
EndChar

StartChar: uniF1E8
Encoding: 161 61928 77
Width: 512
VWidth: 2048
Flags: HW
LayerCount: 2
Fore
SplineSet
272.137695312 70.7578125 m 5
 239.862304688 70.7578125 l 5
 239.862304688 103.033203125 l 5
 272.137695312 103.033203125 l 5
 272.137695312 70.7578125 l 5
271.137695312 131.30859375 m 5
 271.137695312 325.235351562 l 5
 239.862304688 325.235351562 l 5
 239.862304688 131.30859375 l 5
 271.137695312 131.30859375 l 5
41.935546875 357.510742188 m 5
 43.935546875 357.510742188 l 6
 70.4228515625 357.510742188 93.3291015625 359.557617188 112.654296875 363.650390625 c 4
 135.404296875 368.81640625 156.538085938 377.560546875 176.0546875 389.883789062 c 4
 189.059570312 398.078125 201.93359375 404.1328125 214.677734375 408.048828125 c 4
 234.327148438 414.086914062 255.337890625 415.60546875 277.709960938 412.60546875 c 4
 291.505859375 410.451171875 303.14453125 407.06640625 312.625976562 402.452148438 c 132
 322.107421875 397.837890625 331.071289062 392.899414062 339.515625 387.63671875 c 4
 365.665039062 371.338867188 396.711914062 361.737304688 432.654296875 358.830078125 c 4
 444.086914062 357.950195312 455.889648438 357.510742188 468.064453125 357.510742188 c 6
 470.064453125 357.510742188 l 5
 470.064453125 242.409179688 l 6
 469.581054688 180.174804688 447.213867188 123.700195312 402.96484375 72.984375 c 4
 376.926757812 43.390625 345.7265625 16.2919921875 309.362304688 -8.3125 c 4
 292.0234375 -20.0439453125 274.235351562 -31.2734375 256 -42 c 5
 214.380859375 -17.5185546875 180.038085938 6.3486328125 152.97265625 29.6005859375 c 4
 118.666992188 59.076171875 92.26953125 90.0712890625 73.7802734375 122.5859375 c 4
 52.716796875 160.733398438 42.1015625 200.674804688 41.935546875 242.409179688 c 6
 41.935546875 357.510742188 l 5
437.7890625 325.787109375 m 5
 392.247070312 328.829101562 352.202148438 341.341796875 317.65625 363.325195312 c 4
 298.245117188 375.4609375 277.692382812 381.614257812 256 381.78515625 c 4
 233.732421875 381.44921875 213.1171875 375.28125 194.154296875 363.280273438 c 4
 159.16796875 341.138671875 119.186523438 328.641601562 74.2109375 325.787109375 c 5
 74.2109375 242.409179688 l 6
 74.712890625 190.3046875 93.9208984375 141.658203125 131.834960938 96.470703125 c 4
 155.208984375 68.8603515625 181.994140625 44.4931640625 212.19140625 23.3701171875 c 4
 226.762695312 13.177734375 241.365234375 3.830078125 256 -4.6748046875 c 5
 306.572265625 24.712890625 347.9609375 58.4287109375 380.165039062 96.470703125 c 4
 418.326171875 142.3359375 437.534179688 190.982421875 437.7890625 242.409179688 c 6
 437.7890625 325.787109375 l 5
EndSplineSet
EndChar

StartChar: uniF136
Encoding: 164 61750 78
Width: 512
Flags: HW
LayerCount: 2
Fore
SplineSet
272 390.5 m 5
 272 352 l 5
 272 32 l 5
 272 -6.5 l 5
 244.5 20.5 l 5
 153 112 l 5
 96 112 l 5
 80 112 l 5
 80 128 l 5
 80 256 l 5
 80 272 l 5
 96 272 l 5
 153 272 l 5
 244.5 363.5 l 5
 272 390.5 l 5
240 313 m 5
 171.5 244.5 l 5
 166.5 240 l 5
 160 240 l 5
 112 240 l 5
 112 144 l 5
 160 144 l 5
 166.5 144 l 5
 171.5 139.5 l 5
 240 71 l 5
 240 313 l 5
334.5 270.5 m 5
 377.530273438 227.469726562 377.637695312 156.491210938 335 112 c 6
 311.5 134.5 l 5
 342.462890625 166.80859375 342.569335938 217.430664062 312 248 c 6
 334.5 270.5 l 5
EndSplineSet
EndChar

StartChar: uniF170
Encoding: 165 61808 79
Width: 512
LayerCount: 2
Fore
SplineSet
99.5195 352 m 1
 412.4805 352 l 1
 415.51956 340 l 1
 463.51956 148 l 1
 464.000029 146 l 1
 464.000029 32 l 1
 48.000029 32 l 1
 48.000029 146 l 1
 48.480498 148 l 1
 96.480498 340 l 1
 99.5195 352 l 1
124.48 320 m 1
 84.48 160 l 1
 427.519 160 l 1
 387.519 320 l 1
 124.48 320 l 1
80 128 m 1
 80 64 l 1
 432 64 l 1
 432 128 l 1
 80 128 l 1
384 112 m 0
 392.83203 112 400 104.83203 400 96 c 0
 400 87.16797 392.83203 80 384 80 c 0
 375.16797 80 368 87.16797 368 96 c 0
 368 104.83203 375.16797 112 384 112 c 0
EndSplineSet
Validated: 1
EndChar

StartChar: uniF1B4
Encoding: 167 61876 80
Width: 512
LayerCount: 2
Fore
SplineSet
256 400 m 1
 272 400 l 1
 272 368 l 1
 256 368 l 1
 256 400 l 1
306.496 392.992 m 1
 319.9999 389.47149 l 1
 320.480369 388.991998 l 1
 320.992088 388.991998 l 1
 334.480388 383.984188 l 1
 334.992107 383.984188 l 1
 335.503826 383.503719 l 1
 337.007736 382.975399 l 1
 323.488236 354.015399 l 1
 323.007767 354.015399 l 1
 321.999957 354.495868 l 1
 311.007757 358.495868 l 1
 309.984317 359.007587 l 1
 297.503817 362.495867 l 1
 306.496 392.992 l 1
64 384 m 1
 192 384 l 1
 192 256 l 1
 160 256 l 1
 160 339.5195 l 1
 111.5195 307.8398 80 255.04 80 191.9995 c 0
 80 95.1196 159.1201 15.9995 256 15.9995 c 0
 352.8799 15.9995 432 95.1196 432 191.9995 c 2
 432 207.9995 l 1
 464 207.9995 l 1
 464 191.9995 l 2
 464 77.6795 370.3203 -16.0005 256 -16.0005 c 0
 141.6797 -16.0005 48 77.6792 48 191.9995 c 0
 48 256.9595 76.7363 313.8395 122.4961 351.9995 c 1
 64 351.9995 l 1
 64 383.9995 l 1
 64 384 l 1
365.504 368 m 1
 365.488375 368 l 1
 374.000095 362.49609 l 1
 374.480564 361.984371 l 1
 374.960056 361.984371 l 1
 386.000056 353.503901 l 1
 386.480525 352.992182 l 1
 386.992244 352.992182 l 1
 391.503964 348.992182 l 1
 370.496164 324.992182 l 1
 367.007884 327.999992 l 1
 366.000074 328.480461 l 1
 357.007884 335.519521 l 1
 356.000074 335.99999 l 1
 348.480544 340.99218 l 1
 365.504 368 l 1
414.496 326.496 m 1
 414.496 326.480375 l 1
 418.01553 321.999905 l 1
 418.495999 321.488186 l 1
 419.007718 321.007717 l 1
 427.519438 309.999917 l 1
 427.519438 309.488198 l 1
 427.999907 309.007729 l 1
 433.503817 300.480389 l 1
 406.496017 282.959889 l 1
 401.984297 290.480399 l 1
 401.024336 291.503839 l 1
 393.984296 301.024349 l 1
 393.503827 301.503841 l 1
 390.015547 305.503841 l 1
 414.496 326.496 l 1
448.48 272 m 1
 448.51125 272 l 1
 448.991719 270 l 1
 449.503438 269.488281 l 1
 449.503438 269.007812 l 1
 454.495628 256.000012 l 1
 454.495628 255.503918 l 1
 455.007347 254.496108 l 1
 458.495627 240.992208 l 1
 427.999527 232.511738 l 1
 424.479997 244.992238 l 1
 423.999528 246.000048 l 1
 419.999528 257.007848 l 1
 419.519059 258.015658 l 1
 419.519059 258.496127 l 1
 448.48 272 l 1
EndSplineSet
Validated: 5
EndChar

StartChar: uniF18C
Encoding: 169 61836 81
Width: 512
Flags: HW
LayerCount: 2
Fore
SplineSet
240 176 m 1
 75 176 l 1
 75 208 l 1
 240 208 l 1
 437 208 l 1
 437 176 l 1
 240 176 l 1
EndSplineSet
EndChar

StartChar: uniF132
Encoding: 170 61746 82
Width: 512
Flags: HW
LayerCount: 2
Fore
SplineSet
272 390.5 m 5
 272 352 l 5
 272 32 l 5
 272 -6.5 l 5
 244.5 20.5 l 5
 153 112 l 5
 96 112 l 5
 80 112 l 5
 80 128 l 5
 80 256 l 5
 80 272 l 5
 96 272 l 5
 153 272 l 5
 244.5 363.5 l 5
 272 390.5 l 5
240 313 m 5
 171.5 244.5 l 5
 166.5 240 l 5
 160 240 l 5
 112 240 l 5
 112 144 l 5
 160 144 l 5
 166.5 144 l 5
 171.5 139.5 l 5
 240 71 l 5
 240 313 l 5
335.51953125 275.51953125 m 5
 335.51953125 275.48828125 l 5
 396.000976562 214.975585938 l 5
 456.481445312 275.51953125 l 5
 479.47265625 252.48046875 l 5
 418.993164062 192 l 5
 479.51953125 131.51953125 l 5
 456.48046875 108.528320312 l 5
 396 169.0078125 l 5
 335.551757812 108.48046875 l 5
 312.51171875 131.51953125 l 5
 373.024414062 192 l 5
 312.481445312 252.48046875 l 5
 335.51953125 275.51953125 l 5
EndSplineSet
EndChar

StartChar: uniF1C6
Encoding: 171 61894 83
Width: 512
LayerCount: 2
Fore
SplineSet
209.008 384 m 1
 209.0558516 384.0322266 l 1
 227.8244516 384.0322266 240.6886516 376.0322266 256.0480516 376.0322266 c 0
 263.7121116 376.0322266 271.4406516 377.6318366 279.0402516 379.5517566 c 0
 286.6564616 381.4404266 293.7121516 384.0322266 303.0402516 384.0322266 c 0
 316.8166516 384.0322266 328.9757516 377.1523466 337.5519516 368.0322266 c 0
 346.1125016 358.8798866 352.1124516 347.4404266 357.5519516 335.0400266 c 0
 365.9523416 315.7763266 372.5763516 293.9043266 378.5441516 273.0556266 c 1
 395.9201516 267.9677366 410.6720516 261.6796266 422.5441516 254.0478266 c 0
 436.4484516 245.1200966 448.0324516 232.7675266 448.0324516 216.0478266 c 0
 448.0324516 201.5195266 439.2004216 189.9355266 428.0324516 181.5517266 c 0
 418.5441716 174.4159866 406.8478516 168.4960266 393.0402516 163.5683266 c 0
 392.2404466 159.8398066 391.0080216 156.0800466 389.5197416 152.5283266 c 0
 403.0246416 144.9121166 424.4006416 130.1924266 445.0402416 102.0322266 c 2
 454.5285216 88.4961266 l 1
 441.0246216 79.0078466 l 1
 388.4963216 43.0078466 l 1
 398.4640916 23.0078466 l 1
 409.9845916 4.6600000065e-05 l 1
 101.9845916 4.6600000065e-05 l 1
 113.5040916 22.9756466 l 1
 123.4884716 42.9756466 l 1
 71.0079716 78.9756466 l 1
 57.5040716 88.4639266 l 1
 67.0079816 101.9678266 l 2
 87.6485816 130.1123266 109.0079816 144.8321266 122.4962816 152.4639266 c 0
 121.0246016 155.9844366 119.7765516 159.7598266 119.0080016 163.5039266 c 0
 105.1838016 168.4482666 93.4885016 174.3682266 84.0002016 181.5039266 c 0
 72.8479016 189.8877166 64.0002016 201.4717266 64.0002016 216.0000266 c 0
 64.0002016 232.6885266 75.6320016 245.0723266 89.5197016 254.0000266 c 0
 101.3605016 261.6318666 116.1281016 267.9355266 133.5197016 272.9922266 c 1
 138.9601316 293.1358266 144.9758016 314.6397266 153.5197016 334.0000266 c 0
 159.0402116 346.5596266 165.3605016 358.2080266 174.0002016 367.5195266 c 0
 182.6564516 376.7997966 195.0246016 384.0000266 209.0080016 384.0000266 c 1
 209.008 384 l 1
209.008 352 m 1
 209.0724531 352 l 1
 205.5519431 352 202.3039031 350.6084 197.5519531 345.48828 c 0
 192.8166031 340.40039 187.7443331 331.67968 183.0558531 321.00778 c 0
 175.2160131 303.24798 168.8165531 280.73628 163.0558531 259.48828 c 0
 163.056829662 259.4218738 163.05780622 259.314452 163.05780622 259.248046 c 0
 163.05780622 259.18164 163.056829658 259.074218 163.0558531 259.007812 c 0
 162.9611265 256.945312 162.0714781 253.806642 161.0724531 252.000002 c 0
 160.9298751 251.855471 160.6935471 251.625979 160.5441331 251.488283 c 0
 160.5441331 251.328127 160.6085862 251.167971 160.5441331 251.007814 c 0
 160.545109662 250.9355484 160.54608622 250.816408 160.54608622 250.744142 c 0
 160.54608622 250.6708998 160.545109658 250.552736 160.5441331 250.48047 c 0
 160.8322191 250.4160169 161.2960861 250.671876 162.5441331 250.000001 c 0
 166.6398331 247.807621 174.8644331 245.072271 185.0402331 243.519531 c 0
 205.4084331 240.320311 233.1525331 240.000001 256.0324331 240.000001 c 0
 279.0246331 240.000001 306.7043331 239.9521494 327.0246331 242.992191 c 0
 337.1838331 244.511721 345.5363331 247.328131 349.5363331 249.519531 c 0
 351.8878931 250.767581 351.0246131 250.032226 351.0246131 250 c 1
 343.8566431 274.96 337.2160131 302.1123 328.4963131 322 c 0
 323.9201431 332.5117 318.5441631 341.1523 314.0002131 346 c 0
 309.4562631 350.8477 306.6886931 352 303.0080131 352 c 0
 301.6164131 352 295.2961031 350.5918 287.0080131 348.48047 c 0
 278.7199231 346.40039 268.0002131 344 256.0002131 344 c 0
 231.9846131 344 212.2883131 352 209.0080131 352 c 2
 209.008 352 l 1
130.992 238.496 m 1
 131.007625 238.496 l 1
 120.896325 234.84756 112.303525 230.73623 106.495925 227.0077 c 0
 97.247875 221.03993 95.999825 217.05555 95.999825 215.9999 c 0
 95.999825 215.039939 96.79963 211.9999 103.503735 206.95986 c 0
 110.143385 201.93545 121.663935 196.16006 136.463735 191.47156 c 0
 166.064335 182.03211 208.784035 175.95206 255.984735 175.95206 c 0
 303.183935 175.95206 345.856835 182.03214 375.504735 191.47156 c 0
 390.273335 196.17566 401.792835 201.95206 408.464735 206.95986 c 0
 415.136615 211.98427 415.985245 215.02431 415.985245 215.98427 c 0
 415.985245 217.02431 414.224505 221.48818 404.945245 227.50377 c 0
 399.153255 231.23229 390.865145 234.97545 380.945245 238.49597 c 1
 377.376885 230.87976 371.025325 224.55947 364.464745 220.99207 c 0
 354.704975 215.67957 343.569245 213.31141 331.504745 211.51941 c 0
 307.281145 207.88757 278.976445 207.99988 255.985245 207.99988 c 0
 232.848545 207.99988 204.624845 208.255739 180.464745 211.99988 c 0
 168.401245 213.87195 157.184445 216.30359 147.504745 221.50379 c 0
 140.976425 224.99207 134.609245 230.97547 130.993045 238.49599 c 1
 130.992 238.496 l 1
172.496 150.976 m 1
 172.5282266 151.0082266 l 1
 174.0155266 141.0082266 l 2
 179.2957966 114.5922266 190.8475266 90.6400266 205.5360266 74.0004266 c 0
 220.1922266 57.3442266 237.2157266 48.2729266 256.0321266 48.0004266 c 0
 274.3514266 47.7279656 291.7440266 56.6889066 306.5116266 73.4887266 c 0
 321.3280266 90.2885266 333.1034266 114.7201266 338.0321266 141.0082266 c 2
 339.5516566 151.0082266 l 1
 334.2723566 150.1283436 329.0721566 148.7045166 323.5516566 148.0004166 c 1
 321.4715766 133.9682166 310.5282566 121.5688166 293.0555566 120.4809166 c 0
 279.5838566 119.6801356 264.3836566 126.0482966 263.0721566 144.0004166 c 0
 260.6717666 143.96819 258.4315366 144.0004166 256.0321166 144.0004166 c 0
 253.6317266 144.0004166 251.4237166 143.96819 249.0243066 144.0004166 c 0
 247.6961866 126.0483166 232.4960066 119.6801166 219.0555066 120.4809166 c 0
 201.5516066 121.5688066 190.5760066 133.9682166 188.4959066 148.0004166 c 1
 182.9919966 148.7045186 177.7762066 150.1283466 172.4959066 150.9760066 c 1
 172.496 150.976 l 1
368 128.032 m 1
 368 128.0153984 l 2
 367.456055 127.7116874 367.040039 127.3435234 366.49609 127.0241874 c 0
 359.93554 98.7516874 348.09569 72.5114874 330.49609 52.5114874 c 0
 323.64843 44.7517174 315.83989 37.6794874 307.51949 32.0319874 c 1
 357.98429 32.0319874 l 1
 353.50382 41.0397974 l 1
 347.4882 53.5192974 l 1
 359.0077 61.0398074 l 1
 407.5194 94.5281074 l 1
 389.5995 114.2722074 373.952 124.5437074 367.9999 128.0320074 c 1
 368 128.032 l 1
143.52 127.552 m 1
 143.5688281 127.536375 l 1
 136.8969481 123.519775 121.4887281 113.216075 104.5288281 94.528575 c 1
 153.0405281 61.040275 l 1
 164.4966281 53.519765 l 1
 158.4966281 41.040265 l 1
 153.9849081 32.032455 l 1
 205.9849081 32.032455 l 1
 197.0727981 37.840075 188.7046081 44.880155 181.5044081 53.040255 c 0
 164.1440081 72.719955 152.3521081 98.608655 145.5044081 126.528555 c 0
 144.8481581 126.880117 144.1284281 127.168203 143.5200281 127.551995 c 2
 143.52 127.552 l 1
EndSplineSet
Validated: 37
EndChar

StartChar: uniF1AC
Encoding: 173 61868 84
Width: 512
LayerCount: 2
Fore
SplineSet
224 368 m 5
 432 368 l 5
 432 160 l 5
 400 160 l 5
 400 313.008 l 5
 134.992 48 l 5
 288 48 l 5
 288 16 l 5
 80 16 l 5
 80 224 l 5
 112 224 l 5
 112 70.992 l 5
 377.008 336 l 5
 224 336 l 5
 224 368 l 5
EndSplineSet
Validated: 1
EndChar

StartChar: uniF188
Encoding: 174 61832 85
Width: 512
LayerCount: 2
Fore
SplineSet
240 400 m 4
 301.5195 400 352 349.5195 352 288 c 6
 352 240 l 5
 400 240 l 5
 400 -16 l 5
 80 -16 l 5
 80 240 l 5
 128 240 l 5
 128 288 l 6
 128 349.5195 178.4805 400 240 400 c 4
240 368 m 4
 195.9199 368 160 332.0801 160 288 c 6
 160 240 l 5
 320 240 l 5
 320 288 l 6
 320 332.0801 284.0801 368 240 368 c 4
112 208 m 5
 112 16 l 5
 368 16 l 5
 368 208 l 5
 112 208 l 5
EndSplineSet
Validated: 1
EndChar

StartChar: uniF127
Encoding: 175 61735 86
Width: 512
LayerCount: 2
Fore
SplineSet
80 400 m 1
 400 400 l 1
 400 -16 l 1
 80 -16 l 1
 80 400 l 1
112 368 m 1
 112 16 l 1
 368 16 l 1
 368 368 l 1
 112 368 l 1
144 336 m 1
 336 336 l 1
 336 240 l 1
 144 240 l 1
 144 336 l 1
176 304 m 1
 176 272 l 1
 304 272 l 1
 304 304 l 1
 176 304 l 1
160 208 m 1
 192 208 l 1
 192 176 l 1
 160 176 l 1
 160 208 l 1
224 208 m 1
 256 208 l 1
 256 176 l 1
 224 176 l 1
 224 208 l 1
288 208 m 1
 320 208 l 1
 320 176 l 1
 288 176 l 1
 288 208 l 1
160 144 m 1
 192 144 l 1
 192 112 l 1
 160 112 l 1
 160 144 l 1
224 144 m 1
 256 144 l 1
 256 112 l 1
 224 112 l 1
 224 144 l 1
288 144 m 1
 320 144 l 1
 320 112 l 1
 288 112 l 1
 288 144 l 1
160 80 m 1
 192 80 l 1
 192 48 l 1
 160 48 l 1
 160 80 l 1
224 80 m 1
 256 80 l 1
 256 48 l 1
 224 48 l 1
 224 80 l 1
288 80 m 1
 320 80 l 1
 320 48 l 1
 288 48 l 1
 288 80 l 1
EndSplineSet
Validated: 1
EndChar

StartChar: uniF114
Encoding: 177 61716 87
Width: 512
Flags: HW
LayerCount: 2
Fore
SplineSet
299.52 339.52 m 5
 435.52 203.52 l 5
 446.5122 192.0005 l 5
 435.5366 180.481 l 5
 299.5366 44.481 l 5
 276.4966 67.5201 l 5
 385.0086 176.0001 l 5
 64.0006 176.0001 l 5
 64.0006 208.0001 l 5
 385.0086 208.0001 l 5
 276.4816 316.4801 l 5
 299.52 339.52 l 5
EndSplineSet
EndChar

StartChar: uniF191
Encoding: 178 61841 88
Width: 512
LayerCount: 2
Fore
SplineSet
80 352 m 5
 432 352 l 5
 432 134.976 l 5
 468.4805 98.016 l 6
 475.74417 90.75233 480 80.7367 480 70.4965 c 4
 480 49.3608 462.624 32.0004 441.5039 32.0004 c 6
 70.4959 32.0004 l 6
 49.3602 32.0004 31.9998 49.3608 31.9998 70.4809 c 4
 31.9998 80.7202 36.25566 90.7524 43.5193 98.0004 c 6
 79.9998 134.9926 l 5
 79.9998 352.0006 l 5
 80 352 l 5
112 320 m 5
 112 144 l 5
 400 144 l 5
 400 320 l 5
 112 320 l 5
102.992 112 m 5
 103.007625 112 l 5
 65.999825 75.5039 l 6
 64.767405 74.25585 63.999825 72.25585 63.999825 70.49609 c 4
 63.999825 66.65625 66.656075 64 70.495915 64 c 6
 441.503915 64 l 6
 445.343755 64 448.000005 66.65625 448.000005 70.49609 c 4
 448.000005 72.25586 447.232427 74.24023 446.000005 75.51953 c 6
 408.992205 112.00003 l 5
 102.992205 112.00003 l 5
 102.992 112 l 5
EndSplineSet
Validated: 1
EndChar

StartChar: uniF157
Encoding: 179 61783 89
Width: 512
LayerCount: 2
Fore
SplineSet
208 384 m 1
 304 384 l 1
 304 128 l 1
 208 128 l 1
 208 384 l 1
240 352 m 1
 240 160 l 1
 272 160 l 1
 272 352 l 1
 240 352 l 1
208 96 m 1
 304 96 l 1
 304 0 l 1
 208 0 l 1
 208 96 l 1
240 64 m 1
 240 32 l 1
 272 32 l 1
 272 64 l 1
 240 64 l 1
EndSplineSet
Validated: 1
EndChar

StartChar: uniF1D7
Encoding: 180 61911 90
Width: 512
VWidth: 1024
Flags: HW
LayerCount: 2
Fore
SplineSet
144.241210938 100.815429688 m 0
 144.241210938 93.737608504 151.635156457 87.2412109375 159.006835938 87.2412109375 c 0
 165.082653909 87.2412109375 169.384181361 90.9141391732 173.098854983 94.628812796 c 1
 173.52043247 94.2061969415 l 1
 382.851095025 297.634098641 l 2
 390.385922858 305.855764038 394.061233638 315.073367305 394.061233638 325.544392643 c 0
 394.061233638 339.958910727 389.646512918 352.056512438 383.543252177 360.91735145 c 0
 374.367067037 369.268460612 363.89711242 373.370042543 351.865554162 373.370043989 c 0
 339.143800615 373.370043989 328.286140671 368.983144264 318.516429703 359.984876091 c 2
 105.433282095 152.855894313 l 2
 88.8279856399 135.731592572 80.7373046875 117.779110131 80.7373046875 98.8310546875 c 0
 80.7373046875 79.8640805365 88.5299628424 62.7798572558 104.551870278 47.274877842 c 0
 119.994223814 32.8435139903 137.687946843 25.7148335991 157.907095423 25.7148335991 c 0
 179.514428623 25.7148335991 197.960002665 33.4631992987 214.530372959 48.7182297122 c 0
 214.736466816 48.7972064611 215.50500566 49.2465949244 215.410872094 49.2256134758 c 1
 439.820373226 267.234662925 l 1
 462.444037222 245.081841871 l 1
 237.507748192 26.5495083782 l 2
 214.232631804 4.91762672794 187.881387684 -6.08089069475 157.341414532 -6.08089069475 c 0
 128.697609512 -6.08089069475 103.266017112 4.05343250639 81.1988739126 24.2669357927 c 1
 60.5621267214 45.7078662493 50.1364051337 70.6075211062 50.1364051337 98.6907391271 c 0
 50.1364051337 127.40420128 61.0434212495 152.823570964 82.4477065211 175.040829089 c 2
 295.256647943 382.288685495 l 2
 312.172455516 397.540341137 331.101434539 405.372578988 353.141180593 405.372578988 c 0
 373.470616676 405.372578988 391.515994632 398.008177997 407.161204674 383.689082031 c 1
 415.799881077 371.705605573 421.277929205 355.008277124 423.840096034 333.297546468 c 0
 424.233108074 329.96732673 424.430546188 326.693695412 424.430546188 323.477033469 c 0
 424.430546188 305.512923932 419.189118902 288.551262605 405.843448219 275.453294834 c 2
 384.385691184 254.393805449 l 1
 192.246615234 70.9887693596 l 2
 182.204996246 61.80698319 170.765805155 57.0105369366 156.950200782 57.0105369366 c 0
 144.995938671 57.0105369366 134.379261163 61.1872442075 125.26176271 69.5055542113 c 0
 116.900036461 78.1216579951 112.550150549 87.8543633642 112.550150549 98.48691249 c 0
 112.550150549 112.14355817 117.969258274 122.949230642 127.596007803 132.868841805 c 2
 127.596007803 132.868841805 145.453488052 152.318979236 145.55605095 152.418653218 c 2
 288.203800171 291.048406633 l 1
 310.825385299 268.898755637 l 1
 148.733254747 110.823883999 l 2
 145.607602092 107.458683737 144.241210938 104.173630331 144.241210938 100.815429688 c 0
EndSplineSet
EndChar

StartChar: uniF106
Encoding: 181 61702 91
Width: 512
Flags: H
LayerCount: 2
Fore
SplineSet
48 336 m 1
 464 336 l 1
 464 304 l 1
 48 304 l 1
 48 336 l 1
48 208 m 1
 464 208 l 1
 464 176 l 1
 48 176 l 1
 48 208 l 1
48 80 m 1
 464 80 l 1
 464 48 l 1
 48 48 l 1
 48 80 l 1
EndSplineSet
Validated: 1
EndChar

StartChar: uniF192
Encoding: 188 61842 92
Width: 512
LayerCount: 2
Fore
SplineSet
95.5195 400 m 1
 128 400 l 1
 128 288 l 1
 96 288 l 1
 96 360.4805 l 1
 88.89648 356.41605 81.376 352.00003 70.4961 352.00003 c 1
 70.4961 384.00003 l 1
 78.4004 384.00003 90.4961 394.49613 90.4961 394.49613 c 1
 95.5195 400 l 1
176 352 m 1
 448 352 l 1
 448 320 l 1
 176 320 l 1
 176 352 l 1
104 256 m 2
 126.1279 256 144 238.1279 144.0156 215.9844 c 0
 144.0156 208.30374 140.04783 198.544 132.0156 191.9844 c 1
 132.496069 191.503931 l 1
 130.496069 190.000021 l 1
 116.480469 176.000021 l 1
 143.999969 176.000021 l 1
 143.999969 144.000021 l 1
 63.999969 144.000021 l 1
 63.999969 170.015621 l 1
 69.007779 174.496091 l 1
 110.496079 214.496091 l 1
 111.519519 215.519531 l 1
 111.999988 216 l 2
 111.999988 219.47168 107.471668 224 103.999988 224 c 0
 100.528308 224 95.999988 219.47168 95.999988 216 c 2
 95.999988 208 l 1
 63.999988 208 l 1
 63.999988 216 l 2
 63.999988 238.1279 81.872088 256 103.999988 256 c 2
 104 256 l 2
176 208 m 1
 448 208 l 1
 448 176 l 1
 176 176 l 1
 176 208 l 1
64 112 m 1
 128 112 l 1
 128 88.4961 l 1
 126 84.4961 l 1
 119.51953 73.5039 l 1
 133.15233 67.13574 144.00003 56.0801 144.00003 40 c 0
 144.00003 17.8721 126.12793 0 104.00003 0 c 2
 64.00003 0 l 1
 64.00003 32 l 1
 104.00003 32 l 2
 107.47171 32 112.00003 36.52832 112.00003 40 c 0
 112.00003 43.47168 107.47171 48 104.00003 48 c 2
 80.00003 48 l 1
 80.00003 69.9844 l 1
 82.00003 73.50393 l 1
 86.00003 80.00002 l 1
 64.00003 80.00002 l 1
 64.00003 112.00002 l 1
 64 112 l 1
176 64 m 1
 448 64 l 1
 448 32 l 1
 176 32 l 1
 176 64 l 1
EndSplineSet
Validated: 5
EndChar

StartChar: uniF113
Encoding: 191 61715 93
Width: 512
Flags: HW
LayerCount: 2
Fore
SplineSet
212.48 339.52 m 5
 212.4633984 339.52 l 5
 235.5033984 316.4809 l 5
 126.9913984 208.0009 l 5
 447.9993984 208.0009 l 5
 447.9993984 176.0009 l 5
 126.9753984 176.0009 l 5
 235.5363984 67.5209 l 5
 212.4963984 44.4818 l 5
 76.4963984 180.4818 l 5
 65.5041984 192.0013 l 5
 76.4807984 203.5208 l 5
 212.48 339.52 l 5
EndSplineSet
EndChar

StartChar: uniF171
Encoding: 192 61809 94
Width: 512
VWidth: 2048
Flags: HW
LayerCount: 2
Fore
SplineSet
28 323.751953125 m 1
 484.40234375 323.751953125 l 1
 484.40234375 37 l 1
 28 37 l 1
 28 323.751953125 l 1
256.201171875 198.295898438 m 1
 442.350585938 291.4765625 l 1
 70.0517578125 291.4765625 l 1
 256.201171875 198.295898438 l 1
60.2744140625 69.275390625 m 1
 452.127929688 69.275390625 l 1
 452.127929688 260.201171875 l 1
 256.201171875 162.45703125 l 1
 60.2744140625 260.201171875 l 1
 60.2744140625 69.275390625 l 1
EndSplineSet
EndChar

StartChar: uniF194
Encoding: 193 61844 95
Width: 512
LayerCount: 2
Fore
SplineSet
136 368 m 1
 152 368 l 2
 182.7842 368 208 342.7842 208 312 c 0
 208 290.4805 194.2402 273.1523 178 263.0244 c 0
 160.2725 252.1123 146.7676 246.0644 134.9922 240.0156 c 1
 208 240.0156 l 1
 208 208.0156 l 1
 80 208.0156 l 1
 80 224.0156 l 2
 80 233.29587 84.38379 242.4638 89.98438 248.4961 c 0
 95.63184 254.55958 102.27248 258.44825 109.50388 262.4961 c 0
 123.93548 270.5918 141.24798 278.3359 160.99218 290.4961 c 0
 170.35156 296.32032 175.99998 304.7041 175.99998 312 c 0
 175.99998 326.0156 166.0156 336 151.99998 336 c 2
 135.99998 336 l 2
 121.98438 336 111.99998 326.01562 111.99998 312 c 2
 111.99998 304 l 1
 79.99998 304 l 1
 79.99998 312 l 2
 79.99998 342.7842 105.21578 368 135.99998 368 c 2
 136 368 l 1
352 368 m 1
 384 368 l 1
 384 69.008 l 1
 425.5039 110.4963 l 1
 448 88.0002 l 1
 379.5195 19.008 l 1
 368 8.0002 l 1
 356.4805 18.9924 l 1
 288 88.0002 l 1
 310.4961 110.4963 l 1
 352 68.9924 l 1
 352 368.0004 l 1
 352 368 l 1
137.504 176 m 1
 176.0001 176 l 1
 176.0001 16 l 1
 144.0001 16 l 1
 144.0001 118.496 l 1
 133.1202 106.7997 118.0157 95.9999 96.0001 95.9999 c 1
 96.0001 127.9999 l 1
 111.6798 127.9999 119.6485 135.67959 126.0001 145.0077 c 0
 132.35166 154.3036 135.00791 163.5194 135.00791 163.5194 c 1
 137.504 176 l 1
EndSplineSet
Validated: 5
EndChar

StartChar: uniF16A
Encoding: 194 61802 96
Width: 512
Flags: HW
LayerCount: 2
Fore
SplineSet
240 373 m 1
 272 373 l 1
 272 208 l 1
 437 208 l 1
 437 176 l 1
 272 176 l 1
 272 11 l 1
 240 11 l 1
 240 176 l 1
 75 176 l 1
 75 208 l 1
 240 208 l 1
 240 373 l 1
EndSplineSet
EndChar

StartChar: uniF1A8
Encoding: 202 61864 97
Width: 512
LayerCount: 2
Fore
SplineSet
256 384 m 1
 325.376 384 384 334.5596 384 272 c 0
 384 226.96 359.6162 199.7598 338.4961 182 c 0
 327.9356 173.12012 318.0156 165.7275 312 159.5195 c 0
 305.98438 153.28024 304 149.4404 304 144 c 2
 304 128 l 1
 208 128 l 1
 208 144 l 2
 208 184.0645 233.0723 208.2236 253.5039 225.5039 c 0
 263.7119 234.14355 273.0244 241.6641 278.9922 248.9922 c 0
 284.96 256.3203 288.00001 262.7197 288.00001 272 c 0
 288.00001 274.62402 286.52833 277.82422 281.00782 281.50391 c 0
 275.47169 285.16797 266.43162 288 256.00002 288 c 0
 245.63182 288 236.55962 285.18359 231.00782 281.50391 c 0
 225.44044 277.792 224.00001 274.35157 224.00001 272 c 2
 224.00001 224 l 1
 128.00001 224 l 1
 128.00001 272 l 2
 128.00001 335.1035 186.71971 384 256.00001 384 c 1
 256 384 l 1
256 352 m 0
 201.5518 352 160 314.9443 160 272 c 2
 160 256 l 1
 192 256 l 1
 192 272 l 2
 192 287.3281 201.2002 300.1279 212.9922 308 c 0
 224.7998 315.87207 239.8399 320 256 320 c 0
 272.0957 320 287.168 315.83984 298.9922 308 c 0
 310.8477 300.16016 320 287.3604 320 272 c 0
 320 254.7041 313.02441 240.0957 304 229.0078 c 0
 294.97559 217.9043 284.2881 209.2803 274.4961 201.0078 c 0
 259.7441 188.5283 250.0322 176.1601 244.9922 160 c 1
 276 160 l 1
 279.15234 168.25586 283.44043 175.7441 288.9922 181.5039 c 0
 297.98439 190.8164 308.0645 198.5596 317.5039 206.4961 c 0
 336.3838 222.4004 352 237.6797 352 272 c 0
 352 314.1602 310.3359 352 256 352 c 0
208 96 m 1
 304 96 l 1
 304 0 l 1
 208 0 l 1
 208 96 l 1
240 64 m 1
 240 32 l 1
 272 32 l 1
 272 64 l 1
 240 64 l 1
EndSplineSet
Validated: 5
EndChar

StartChar: uniF1A0
Encoding: 203 61856 98
Width: 512
LayerCount: 2
Fore
SplineSet
32 368 m 1
 480 368 l 1
 480 16 l 1
 32 16 l 1
 32 368 l 1
64 336 m 1
 64 130.016 l 1
 164.48 230.496 l 1
 175.9995 242.0155 l 1
 187.519 230.496 l 1
 279.519 137.5038 l 1
 340.4799 198.496 l 1
 351.9994 210.0155 l 1
 363.5189 198.496 l 1
 447.9994 113.5038 l 1
 447.9994 335.9998 l 1
 63.9994 335.9998 l 1
 64 336 l 1
384 304 m 0
 401.6797 304 416 289.6797 416 272 c 0
 416 254.3203 401.6797 240 384 240 c 0
 366.3203 240 352 254.3203 352 272 c 0
 352 289.6797 366.3203 304 384 304 c 0
176 196.48 m 1
 64 84.48 l 1
 64 47.9995 l 1
 323.008 47.9995 l 1
 176 196.48 l 1
352 164.48 m 1
 302 115.0073 l 1
 368.4805 47.9995 l 1
 448 47.9995 l 1
 448 68.48 l 1
 352 164.48 l 1
EndSplineSet
Validated: 5
EndChar

StartChar: uniF148
Encoding: 206 61768 99
Width: 512
VWidth: 2048
Flags: HW
LayerCount: 2
Fore
SplineSet
227.934570312 171.010742188 m 1
 227.934570312 296.376953125 l 1
 257.6796875 296.376953125 l 1
 257.6796875 183.530273438 l 1
 332.749023438 108.255859375 l 1
 311.823242188 87.330078125 l 1
 227.934570312 171.010742188 l 1
153.447265625 270.319335938 m 1
 153.447265625 240.575195312 l 1
 45.5263671875 240.575195312 l 1
 45.5263671875 348.494140625 l 1
 75.2705078125 348.494140625 l 1
 75.2705078125 297.934570312 l 1
 78.681640625 303.72265625 82.935546875 310.015625 88.0361328125 316.813476562 c 0
 115.342773438 352.2578125 149.779296875 376.8359375 191.34375 390.546875 c 0
 212.36328125 397.162109375 233.861328125 400.516601562 255.836914062 400.611328125 c 0
 284.44921875 400.366210938 311.766601562 394.888671875 337.787109375 384.177734375 c 0
 363.03515625 373.111328125 385.283203125 358.05078125 404.533203125 338.997070312 c 0
 424.002929688 319.133789062 439.064453125 296.880859375 449.719726562 272.237304688 c 0
 460.549804688 245.61328125 466.025390625 218.30078125 466.147460938 190.30078125 c 0
 465.90234375 161.688476562 460.424804688 134.37109375 449.713867188 108.3515625 c 0
 438.647460938 83.103515625 423.586914062 60.8544921875 404.533203125 41.6044921875 c 0
 384.668945312 22.1357421875 362.416015625 7.0732421875 337.772460938 -3.58203125 c 0
 311.1484375 -14.412109375 283.836914062 -19.8876953125 255.836914062 -20.009765625 c 0
 231.736328125 -19.802734375 208.747070312 -15.83984375 186.8671875 -8.1201171875 c 0
 143.127929688 7.310546875 108.064453125 34.220703125 81.67578125 72.6123046875 c 0
 68.6181640625 92.19140625 59.0078125 113.32421875 52.845703125 136.010742188 c 1
 81.4326171875 143.9140625 l 1
 92.3857421875 104.211914062 114.112304688 71.7783203125 146.612304688 46.61328125 c 0
 179.325195312 22.2314453125 215.733398438 9.9375 255.836914062 9.734375 c 0
 288.690429688 10.0556640625 319.018554688 18.2841796875 346.821289062 34.4208984375 c 0
 374.123046875 50.9267578125 395.754882812 72.55859375 411.716796875 99.31640625 c 0
 428.014648438 127.737304688 436.243164062 158.065429688 436.403320312 190.30078125 c 0
 436.083007812 223.154296875 427.854492188 253.482421875 411.716796875 281.286132812 c 0
 395.211914062 308.587890625 373.579101562 330.21875 346.821289062 346.181640625 c 0
 318.399414062 362.477539062 288.071289062 370.706054688 255.836914062 370.8671875 c 0
 220.848632812 370.51953125 188.638671875 361.114257812 159.206054688 342.651367188 c 0
 130.59375 323.961914062 108.884765625 299.850585938 94.0791015625 270.319335938 c 1
 153.447265625 270.319335938 l 1
EndSplineSet
EndChar

StartChar: uniF1DB
Encoding: 207 61915 100
Width: 512
InSpiro: 1
Flags: HW
LayerCount: 2
Fore
SplineSet
391 49 m 1
 83 363 l 1
 59 336 l 1
 367.9921875 24.9921875 l 1
 391 49 l 1
  Spiro
    391 49 v
    83 363 v
    59 336 v
    367.992 24.9922 v
    0 0 z
  EndSpiro
92 152 m 1
 92 240.559570312 167.440429688 298 256 298 c 0
 344.559570312 298 420 240.559570312 420 152 c 1
 452 152 l 1
 452 257.856445312 361.856445312 330 256 330 c 0
 150.143554688 330 60 257.856445312 60 152 c 1
 92 152 l 1
  Spiro
    92 152 v
    114.795 229.147 o
    174.195 279.863 o
    256 298 o
    337.805 279.863 o
    397.205 229.147 o
    420 152 v
    452 152 v
    424.761 245.116 o
    353.775 307.419 o
    256 330 o
    158.225 307.419 o
    87.2394 245.116 o
    60 152 v
    0 0 z
  EndSpiro
335.668945312 165.477539062 m 0
 335.668945312 176.024414062 333.474609375 186.322265625 329.1328125 196.286132812 c 0
 320.657226562 215.739257812 305.83203125 230.157226562 285.198242188 239.235351562 c 0
 275.697265625 243.416015625 264.711914062 244.9609375 255.111328125 244.978515625 c 0
 254.879882812 244.9296875 233.0546875 242.364257812 223.881835938 238.4609375 c 0
 204.279296875 230.119140625 189.899414062 215.334960938 181.08203125 194.670898438 c 0
 176.845703125 184.743164062 175.153320312 173.826171875 175.153320312 163.973632812 c 0
 175.153320312 153.426757812 177.34765625 143.12890625 181.689453125 133.165039062 c 0
 190.202148438 113.627929688 204.81640625 98.62109375 225.735351562 90.166015625 c 0
 235.509765625 86.21484375 245.390625 84.302734375 255.2109375 84.302734375 c 0
 265.918945312 84.302734375 276.569335938 86.5771484375 286.940429688 90.990234375 c 0
 306.54296875 99.33203125 320.922851562 114.116210938 329.740234375 134.780273438 c 0
 333.9765625 144.708007812 335.668945312 155.625 335.668945312 165.477539062 c 0
  Spiro
    335.669 165.478 o
    334.941 175.928 o
    332.754 186.224 o
    329.133 196.286 o
    318.573 214.034 o
    303.859 228.401 o
    285.198 239.235 o
    275.319 242.576 o
    265.057 244.412 o
    255.111 244.979 o
    248.961 244.136 o
    235.99 241.872 o
    223.882 238.461 o
    206.049 228.005 o
    191.729 213.337 o
    181.082 194.671 o
    177.665 184.5 o
    175.748 174.095 o
    175.153 163.974 o
    175.882 153.523 o
    178.068 143.227 o
    181.689 133.165 o
    192.231 115.229 o
    206.927 100.718 o
    225.735 90.166 o
    235.529 86.8924 o
    245.386 84.9435 o
    255.211 84.3027 o
    265.881 85.0543 o
    276.495 87.298 o
    286.94 90.9902 o
    304.773 101.446 o
    319.094 116.114 o
    329.74 134.78 o
    333.157 144.951 o
    335.075 155.357 o
    0 0 z
  EndSpiro
208.552734375 164.47265625 m 2
 208.552734375 164.567382812 l 1
 208.569335938 164.66015625 l 2
 209.352539062 168.791992188 209.724609375 176.217773438 211.90234375 182.103515625 c 0
 217.369140625 194.453125 225.681640625 202.807617188 237.129882812 207.678710938 c 0
 243.046875 210.196289062 249.018554688 211.432617188 255.116210938 211.432617188 c 0
 276.8359375 211.432617188 291.772460938 198.317382812 298.37890625 183.171875 c 0
 300.990234375 177.185546875 302.26953125 171.145507812 302.26953125 164.883789062 c 1
 302.252929688 164.791015625 l 2
 301.469726562 160.659179688 301.09765625 153.233398438 298.919921875 147.34765625 c 0
 293.453125 134.998046875 285.140625 126.643554688 273.692382812 121.772460938 c 0
 267.775390625 119.254882812 261.803710938 118.018554688 255.706054688 118.018554688 c 0
 233.986328125 118.018554688 219.049804688 131.133789062 212.443359375 146.279296875 c 0
 209.83203125 152.265625 208.552734375 158.305664062 208.552734375 164.47265625 c 2
  Spiro
    208.553 164.473 [
    208.553 164.567 v
    208.569 164.66 ]
    209.297 169.705 o
    210.246 175.89 o
    211.902 182.104 o
    218.321 193.131 o
    226.726 201.635 o
    237.13 207.679 o
    243.062 209.769 o
    249.064 211.02 o
    255.116 211.433 o
    274.501 207.479 o
    289.065 197.218 o
    298.379 183.172 o
    300.546 177.167 o
    301.842 171.072 o
    302.27 164.884 v
    302.253 164.791 ]
    301.525 159.746 o
    300.577 153.561 o
    298.92 147.348 o
    292.501 136.321 o
    284.097 127.816 o
    273.692 121.772 o
    267.76 119.682 o
    261.758 118.431 o
    255.706 118.019 o
    236.322 121.972 o
    221.757 132.234 o
    212.443 146.279 o
    210.276 152.28 o
    208.98 158.351 o
    0 0 z
  EndSpiro
EndSplineSet
EndChar

StartChar: uniF116
Encoding: 208 61718 101
Width: 512
Flags: HW
LayerCount: 2
Fore
SplineSet
116.700195312 308.672851562 m 1
 139.327148438 331.299804688 l 1
 256 214.626953125 l 1
 372.672851562 331.299804688 l 1
 395.299804688 308.672851562 l 1
 278.626953125 192 l 1
 395.299804688 75.3271484375 l 1
 372.672851562 52.7001953125 l 1
 256 169.373046875 l 1
 139.327148438 52.7001953125 l 1
 116.700195312 75.3271484375 l 1
 233.373046875 192 l 1
 116.700195312 308.672851562 l 1
EndSplineSet
EndChar

StartChar: uniF1E4
Encoding: 209 61924 102
Width: 512
LayerCount: 2
Fore
SplineSet
32 320 m 1
 384 320 l 1
 384 266.0156 l 1
 456.9922 302.4804 l 1
 480 313.9999 l 1
 480 69.9999 l 1
 457.0078 81.5194 l 1
 384 117.9999 l 1
 384 63.9999 l 1
 32 63.9999 l 1
 32 319.9999 l 1
 32 320 l 1
64 288 m 1
 64 96 l 1
 352 96 l 1
 352 288 l 1
 64 288 l 1
448 262 m 1
 384 230 l 1
 384 154 l 1
 448 122 l 1
 448 262 l 1
EndSplineSet
Validated: 1
EndChar

StartChar: uniF11E
Encoding: 210 61726 103
Width: 512
LayerCount: 2
Fore
SplineSet
176 368 m 1
 205.7119 368 229.792 347.4404 236.9922 320 c 1
 274.9922 320 l 1
 282.20802 347.4404 306.2881 368 336 368 c 0
 367.4883 368 392.6396 344.9277 398 315.0078 c 1
 428.4316 307.20018 454.3203 287.3281 466 259.0078 c 1
 466 258.480456 l 1
 466.511719 257.999987 l 1
 502.992219 155.999987 l 2
 508.799839 142.496087 512.000029 127.583987 512.000029 111.999987 c 0
 512.000029 50.335887 461.664129 -1.30000000809e-05 400.000029 -1.30000000809e-05 c 0
 344.448229 -1.30000000809e-05 298.144029 40.831987 289.504029 93.999987 c 1
 280.799929 85.440417 269.024529 79.999987 256.000129 79.999987 c 0
 242.975729 79.999987 231.183729 85.440417 222.496229 93.999987 c 1
 213.839979 40.831987 167.551929 -1.30000000809e-05 112.000229 -1.30000000809e-05 c 0
 50.336129 -1.30000000809e-05 0.00022900000009 50.335887 0.00022900000009 111.999987 c 0
 0.00022900000009 129.536087 4.240459 146.192387 11.488529 161.024387 c 2
 45.519729 256.496087 l 1
 46.000198 256.496087 l 1
 57.519698 287.711887 83.759998 307.375987 114.000198 314.992187 c 1
 119.360548 344.959987 144.511898 367.999987 176.000198 367.999987 c 1
 176 368 l 1
176 336 m 2
 156.96 336 144 323.04 144 304 c 2
 144 289.5039 l 1
 129.5039 287.99999 l 2
 104.9277 285.40819 85.2803 270.78419 76 245.98439 c 1
 76 245.503921 l 1
 64 212.992221 l 1
 78.5596 219.952181 94.8477 224.000021 112 224.000021 c 0
 158.7676 224.000021 198.7842 194.927721 215.52 154.000021 c 1
 224.08055 167.295921 239.1528 176.000021 256.0005 176.000021 c 0
 272.8648 176.000021 287.936 167.280291 296.481 154.015621 c 1
 313.2007 194.944321 353.2164 224.015621 400.001 224.015621 c 0
 417.377 224.015621 433.793 219.631831 448.4815 212.496121 c 1
 436.4815 246.496121 l 2
 436.352594 246.847683 436.161188 247.167996 436.001031 247.519561 c 0
 426.752981 268.927761 406.273531 285.503961 382.497131 288.000061 c 2
 368.001031 289.503971 l 1
 368.001031 304.000071 l 2
 368.001031 323.040071 355.041031 336.000071 336.001031 336.000071 c 0
 316.961031 336.000071 304.001031 323.040071 304.001031 304.000071 c 2
 304.001031 288.000071 l 1
 208.001031 288.000071 l 1
 208.001031 304.000071 l 2
 208.001031 323.040071 195.041031 336.000071 176.001031 336.000071 c 2
 176 336 l 2
112 192 m 1
 79.6797 192 52.1602 172.9277 39.4883 145.5039 c 0
 39.215839 144.896478 39.263691 144.1123 39.007831 143.51952 c 0
 34.799821 133.75975 32.000021 123.32812 32.000021 112.00002 c 0
 32.000021 67.63182 67.631821 32.00002 112.000021 32.00002 c 0
 156.368221 32.00002 192.000021 67.63182 192.000021 112.00002 c 0
 192.000021 156.36822 156.368221 192.00002 112.000021 192.00002 c 1
 112 192 l 1
400 192 m 0
 355.6318 192 320 156.3682 320 112 c 0
 320 67.6318 355.6318 32 400 32 c 0
 444.3682 32 480 67.6318 480 112 c 0
 480 156.3682 444.3682 192 400 192 c 0
256 144 m 0
 246.97559 144 240 137.02441 240 128 c 0
 240 118.97559 246.97559 112 256 112 c 0
 265.02441 112 272 118.97559 272 128 c 0
 272 137.02441 265.02441 144 256 144 c 0
EndSplineSet
Validated: 1
EndChar

StartChar: uniF10E
Encoding: 211 61710 104
Width: 512
LayerCount: 2
Fore
SplineSet
207.52 379.52 m 1
 207.504375 379.52 l 1
 383.504375 203.52 l 1
 394.496575 192.0005 l 1
 383.519975 180.481 l 1
 207.519975 4.481 l 1
 184.480875 27.5201 l 1
 349.024875 192.0001 l 1
 184.480875 356.4801 l 1
 207.52 379.52 l 1
EndSplineSet
Validated: 5
EndChar

StartChar: uniF1BB
Encoding: 214 61883 105
Width: 512
LayerCount: 2
Fore
SplineSet
344 408 m 5
 376 408 l 5
 376 385.5039 l 5
 389.2803 383.16796 401.376 377.91992 412 370.4961 c 5
 426.9922 385.5039 l 5
 449.5039 363.0078 l 5
 434.4961 348 l 5
 441.91993 337.376 447.168 325.2803 449.5039 312 c 5
 472 312 l 5
 472 280 l 5
 449.5195 280 l 5
 447.15231 266.6084 442.0322 254.208 434.5117 243.4883 c 5
 450.0322 227.0078 l 5
 426.5117 204.9922 l 5
 411.5361 220.9922 l 5
 401.0244 213.792 389.04 208.7998 376.0156 206.4961 c 5
 376.0156 184 l 5
 344.0156 184 l 5
 344.0156 206.4805 l 5
 330.7363 208.81644 318.6396 214.06448 308.0156 221.4883 c 5
 291.5361 204.4639 l 5
 268.4961 227.5039 l 5
 285.5039 243.9844 l 5
 278.08007 254.6084 272.832 266.7041 270.4961 279.9844 c 5
 248 279.9844 l 5
 248 311.9844 l 5
 270.4961 311.9844 l 5
 272.79981 325.0078 277.80762 336.9922 285.0078 347.5039 c 5
 269.0078 362.4961 l 5
 291.0078 386.0156 l 5
 307.5195 370.4961 l 5
 318.1924 378.03223 330.6084 383.1357 344 385.5039 c 5
 344 408 l 5
360 354.992 m 5
 360 355.007625 l 5
 327.1201 355.007625 300.9922 328.879725 300.9922 295.999825 c 4
 300.9922 263.119925 327.1201 236.992025 360 236.992025 c 4
 392.8799 236.992025 419.0078 263.119925 419.0078 295.999825 c 4
 419.0078 328.879725 392.8799 354.992025 360 354.992025 c 5
 360 354.992 l 5
152.48 260.512 m 1
 152.51125 260.5286016 l 1
 164.03175 231.5686016 l 1
 172.51124 233.6799316 181.40775 235.0559016 190.52785 235.0559016 c 0
 199.66359 235.0559016 208.55905 233.6965216 217.03955 231.5842216 c 1
 228.51125 260.5442216 l 1
 258.03175 248.5442216 l 1
 246.51125 219.5842216 l 1
 261.61575 210.4484816 274.38335 197.6321216 283.53565 182.5598216 c 1
 312.49565 194.0803216 l 1
 324.49565 164.5598216 l 1
 295.48785 153.0725216 l 1
 297.61578 144.6086516 299.00738 135.6799216 299.00738 126.5598216 c 0
 299.00738 117.4563016 297.59918 108.5442216 295.5191 100.0647216 c 1
 324.48 88.5442216 l 1
 312.48 59.0559216 l 1
 283.5191 70.5442216 l 1
 274.41558 55.3118216 261.6314 42.2883216 246.4957 33.0403216 c 1
 258.0152 4.5598216 l 1
 228.5279 -7.4401784 l 1
 217.0074 21.0403216 l 1
 208.55916 18.9123916 199.6314 17.5520416 190.5113 17.5520416 c 0
 181.34333 17.5520416 172.5435 18.8967716 164.0152 21.0403216 c 1
 152.4957 -7.4401784 l 1
 122.9752 4.5598216 l 1
 134.4957 33.0403216 l 1
 119.1353 42.2727416 106.2721 55.2005216 96.9918 70.5598216 c 1
 68.5113 59.0403216 l 1
 56.5113 88.5286216 l 1
 84.9918 100.0481216 l 1
 82.86387 108.5285916 81.50352 117.4241216 81.50352 126.5442216 c 0
 81.50352 135.6643216 82.86387 144.5921216 84.9918 153.0403216 c 1
 56.5113 164.5286216 l 1
 68.5113 194.0481216 l 1
 96.9918 182.5286216 l 1
 106.23985 197.6321216 119.2633 210.4319216 134.4957 219.5520216 c 1
 123.0074 248.5120216 l 1
 152.48 260.512 l 1
190.496 203.04 m 0
 147.9042 203.04 113.5038 169.1357 113.5038 126.5283 c 0
 113.5038 83.9355 147.8876 49.5361 190.496 49.5361 c 0
 233.1034 49.5361 267.0077 83.9199 266.9755 126.5283 c 0
 266.9755 169.1201 233.1034 203.04 190.496 203.04 c 0
EndSplineSet
Validated: 37
EndChar

StartChar: uniF1B3
Encoding: 215 61875 106
Width: 512
Flags: H
LayerCount: 2
Fore
SplineSet
240.639648438 391.6796875 m 1
 256 391.6796875 l 1
 256 360.959960938 l 1
 240.639648438 360.959960938 l 1
 240.639648438 391.6796875 l 1
207.5234375 384.952148438 m 1
 207.569335938 384.967773438 l 1
 216.170898438 355.70703125 l 1
 204.19140625 352.327148438 l 1
 203.23828125 351.8359375 l 1
 192.670898438 347.99609375 l 1
 191.71875 347.53515625 l 1
 191.2109375 347.53515625 l 1
 178.263671875 375.3828125 l 1
 179.676757812 375.874023438 l 1
 180.18359375 376.334960938 l 1
 180.643554688 376.334960938 l 1
 193.592773438 381.126953125 l 1
 194.098632812 381.158203125 l 1
 194.560546875 381.618164062 l 1
 207.5234375 384.952148438 l 1
317.440429688 376.3203125 m 1
 440.3203125 376.3203125 l 1
 440.3203125 345.599609375 l 1
 384.1640625 345.599609375 l 1
 428.109375 308.965820312 455.6796875 254.361328125 455.6796875 192 c 0
 455.6796875 82.2529296875 365.747070312 -7.6796875 256 -7.6796875 c 0
 146.252929688 -7.6796875 56.3203125 82.2529296875 56.3203125 192 c 2
 56.3203125 207.360351562 l 1
 87.0400390625 207.360351562 l 1
 87.0400390625 192 l 2
 87.0400390625 98.9951171875 162.995117188 23.0400390625 256 23.0400390625 c 0
 349.004882812 23.0400390625 424.959960938 98.9951171875 424.959960938 192 c 0
 424.959960938 252.518554688 394.701171875 303.206054688 348.16015625 333.619140625 c 1
 348.16015625 253.440429688 l 1
 317.440429688 253.440429688 l 1
 317.440429688 376.3203125 l 1
 317.440429688 376.3203125 l 1
150.875976562 360.959960938 m 1
 150.861328125 360.959960938 l 1
 167.21875 335.047851562 l 1
 160 330.240234375 l 1
 159.032226562 329.778320312 l 1
 150.384765625 323.021484375 l 1
 149.463867188 322.559570312 l 1
 146.083984375 319.672851562 l 1
 125.931640625 342.712890625 l 1
 130.232421875 346.552734375 l 1
 130.723632812 346.552734375 l 1
 131.184570312 347.043945312 l 1
 141.783203125 355.21484375 l 1
 142.243164062 355.21484375 l 1
 142.735351562 355.67578125 l 1
 150.875976562 360.959960938 l 1
103.84375 321.116210938 m 1
 103.858398438 321.1015625 l 1
 127.360351562 300.948242188 l 1
 123.981445312 297.108398438 l 1
 123.520507812 296.616210938 l 1
 116.807617188 287.5234375 l 1
 115.825195312 286.571289062 l 1
 111.5234375 279.352539062 l 1
 85.5966796875 296.170898438 l 1
 90.8798828125 304.3125 l 1
 91.37109375 304.818359375 l 1
 91.37109375 305.280273438 l 1
 99.5126953125 315.83203125 l 1
 100.00390625 316.323242188 l 1
 100.46484375 316.814453125 l 1
 103.84375 321.116210938 l 1
71.21875 268.799804688 m 1
 99.0048828125 255.821289062 l 1
 99.0048828125 255.360351562 l 1
 98.544921875 254.407226562 l 1
 94.705078125 243.83984375 l 1
 94.244140625 242.872070312 l 1
 90.865234375 230.891601562 l 1
 61.5888671875 239.032226562 l 1
 64.9677734375 251.99609375 l 1
 65.4287109375 252.978515625 l 1
 65.4287109375 253.440429688 l 1
 70.2509765625 265.912109375 l 1
 70.2509765625 266.418945312 l 1
 70.712890625 266.879882812 l 1
 71.21875 268.799804688 l 1
EndSplineSet
EndChar

StartChar: uniF16E
Encoding: 219 61806 107
Width: 512
LayerCount: 2
Fore
SplineSet
64 352 m 1
 448 352 l 1
 448 32 l 1
 64 32 l 1
 64 352 l 1
96 320 m 1
 96 256 l 1
 176 256 l 1
 176 320 l 1
 96 320 l 1
208 320 m 1
 208 256 l 1
 416 256 l 1
 416 320 l 1
 208 320 l 1
96 224 m 1
 96 160 l 1
 176 160 l 1
 176 224 l 1
 96 224 l 1
208 224 m 1
 208 160 l 1
 416 160 l 1
 416 224 l 1
 208 224 l 1
96 128 m 1
 96 64 l 1
 176 64 l 1
 176 128 l 1
 96 128 l 1
208 128 m 1
 208 64 l 1
 416 64 l 1
 416 128 l 1
 208 128 l 1
EndSplineSet
Validated: 1
EndChar

StartChar: uniF146
Encoding: 221 61766 108
Width: 512
LayerCount: 2
Fore
SplineSet
80 384 m 1
 400 384 l 1
 400 0 l 1
 80 0 l 1
 80 384 l 1
112 352 m 1
 112 272 l 1
 368 272 l 1
 368 352 l 1
 112 352 l 1
112 240 m 1
 112 144 l 1
 368 144 l 1
 368 240 l 1
 112 240 l 1
112 112 m 1
 112 32 l 1
 368 32 l 1
 368 112 l 1
 112 112 l 1
EndSplineSet
Validated: 1
EndChar

StartChar: uniF189
Encoding: 222 61833 109
Width: 512
Flags: HW
LayerCount: 2
Fore
SplineSet
420 152 m 1
 420 240.559570312 344.559570312 298 256 298 c 0
 167.440429688 298 92 240.559570312 92 152 c 1
 60 152 l 1
 60 257.856445312 150.143554688 330 256 330 c 0
 361.856445312 330 452 257.856445312 452 152 c 1
 420 152 l 1
335.668945312 165.477539062 m 0
 335.668945312 176.024414062 333.474609375 186.322265625 329.1328125 196.286132812 c 0
 320.657226562 215.739257812 305.83203125 230.157226562 285.198242188 239.235351562 c 0
 275.697265625 243.416015625 264.711914062 244.9609375 255.111328125 244.978515625 c 0
 254.879882812 244.9296875 233.0546875 242.364257812 223.881835938 238.4609375 c 0
 204.279296875 230.119140625 189.899414062 215.334960938 181.08203125 194.670898438 c 0
 176.845703125 184.743164062 175.153320312 173.826171875 175.153320312 163.973632812 c 0
 175.153320312 153.426757812 177.34765625 143.12890625 181.689453125 133.165039062 c 0
 190.202148438 113.627929688 204.81640625 98.62109375 225.735351562 90.166015625 c 0
 235.509765625 86.21484375 245.390625 84.302734375 255.2109375 84.302734375 c 0
 265.918945312 84.302734375 276.569335938 86.5771484375 286.940429688 90.990234375 c 0
 306.54296875 99.33203125 320.922851562 114.116210938 329.740234375 134.780273438 c 0
 333.9765625 144.708007812 335.668945312 155.625 335.668945312 165.477539062 c 0
208.552734375 164.47265625 m 2
 208.552734375 164.567382812 l 1
 208.569335938 164.66015625 l 2
 209.352539062 168.791992188 209.724609375 176.217773438 211.90234375 182.103515625 c 0
 217.369140625 194.453125 225.681640625 202.807617188 237.129882812 207.678710938 c 0
 243.046875 210.196289062 249.018554688 211.432617188 255.116210938 211.432617188 c 0
 276.8359375 211.432617188 291.772460938 198.317382812 298.37890625 183.171875 c 0
 300.990234375 177.185546875 302.26953125 171.145507812 302.26953125 164.883789062 c 2
 302.252929688 164.791015625 l 2
 301.469726562 160.659179688 301.09765625 153.233398438 298.919921875 147.34765625 c 0
 293.453125 134.998046875 285.140625 126.643554688 273.692382812 121.772460938 c 0
 267.775390625 119.254882812 261.803710938 118.018554688 255.706054688 118.018554688 c 0
 233.986328125 118.018554688 219.049804688 131.133789062 212.443359375 146.279296875 c 0
 209.83203125 152.265625 208.552734375 158.305664062 208.552734375 164.47265625 c 2
EndSplineSet
EndChar

StartChar: uniF1B2
Encoding: 223 61874 110
Width: 512
LayerCount: 2
Fore
SplineSet
80 368 m 1
 432 368 l 1
 432 16 l 1
 80 16 l 1
 80 368 l 1
112 336 m 1
 112 48 l 1
 400 48 l 1
 400 336 l 1
 112 336 l 1
227.52 299.52 m 1
 227.5366016 299.52 l 1
 323.5366016 203.52 l 1
 334.5288016 192.0005 l 1
 323.5522016 180.481 l 1
 227.5522016 84.481 l 1
 204.5122016 107.5201 l 1
 289.0249016 192.0006 l 1
 204.4810016 276.4811 l 1
 227.52 299.52 l 1
EndSplineSet
Validated: 1
EndChar

StartChar: uniF10A
Encoding: 224 61706 111
Width: 512
LayerCount: 2
Fore
SplineSet
80 368 m 1
 207.984 368 l 1
 207.984 329.5039 l 1
 203.50353 324.48046 l 1
 118.99183 239.99996 l 1
 207.99963 239.99996 l 1
 207.99963 207.99996 l 1
 79.99963 207.99996 l 1
 79.99963 246.49606 l 1
 84.4801 251.5195 l 1
 169.0074 336 l 1
 79.9996 336 l 1
 79.9996 368 l 1
 80 368 l 1
352 368 m 1
 384 368 l 1
 384 69.008 l 1
 425.5039 110.4963 l 1
 448 88.0002 l 1
 379.5195 19.008 l 1
 368 8.0002 l 1
 356.4805 18.9924 l 1
 288 88.0002 l 1
 310.4961 110.4963 l 1
 352 68.9924 l 1
 352 368.0004 l 1
 352 368 l 1
130.992 176 m 1
 130.9597734 176 l 1
 157.0242734 176 l 1
 160.4803234 165.5039 l 1
 191.5194234 80 l 1
 191.9998924 80 l 1
 191.9998924 78.99219 l 1
 206.9920924 37.50389 l 1
 207.9999024 35.0078 l 1
 207.9999024 16 l 1
 175.9999024 16 l 1
 175.9999024 29.5039 l 1
 169.5038124 48 l 1
 118.4960124 48 l 1
 111.9999224 29.5039 l 1
 111.9999224 16 l 1
 79.9999224 16 l 1
 79.9999224 34.9922 l 1
 80.9921104 37.50392 l 1
 95.9999104 78.99222 l 1
 95.9999104 80.00003 l 1
 96.4803794 80.00003 l 1
 127.5037794 165.50393 l 1
 130.992 176 l 1
144 117.504 m 1
 130.4961 80.0001 l 1
 157.5039 80.0001 l 1
 144 117.504 l 1
EndSplineSet
Validated: 5
EndChar

StartChar: uniF1A4
Encoding: 225 61860 112
Width: 512
Flags: HW
LayerCount: 2
Fore
SplineSet
256 422 m 4
 302.020507812 422 340.51171875 408.823242188 371.2109375 390.913085938 c 4
 404.956054688 371.228515625 433.430664062 342.754882812 453.114257812 309.009765625 c 4
 471.043945312 278.276367188 484.201171875 239.862304688 484.201171875 193.798828125 c 4
 484.201171875 147.778320312 471.024414062 109.287109375 453.114257812 78.587890625 c 4
 433.4296875 44.8427734375 404.956054688 16.3681640625 371.2109375 -3.3154296875 c 4
 340.477539062 -21.2451171875 302.063476562 -34.40234375 256 -34.40234375 c 4
 238.250976562 -34.40234375 224.108398438 -26.533203125 214.713867188 -17.138671875 c 4
 205.310546875 -7.7353515625 197.44921875 6.3857421875 197.44921875 24.1474609375 c 4
 197.44921875 44.7158203125 203.80859375 58.7900390625 211.912109375 71.1875 c 4
 216.6640625 78.4541015625 220.857421875 85.783203125 223.721679688 94.67578125 c 4
 225.044921875 98.783203125 225.724609375 103.545898438 225.724609375 108.973632812 c 4
 225.724609375 125.323242188 218.278320312 138.786132812 209.6328125 147.431640625 c 4
 200.978515625 156.086914062 187.537109375 163.5234375 171.174804688 163.5234375 c 4
 148.01953125 163.5234375 136.87109375 150.237304688 120.76953125 142.724609375 c 4
 111.328125 138.319335938 100.390625 135.248046875 86.3486328125 135.248046875 c 4
 68.599609375 135.248046875 54.45703125 143.118164062 45.0625 152.512695312 c 4
 35.6591796875 161.916992188 27.798828125 176.036132812 27.798828125 193.798828125 c 4
 27.798828125 239.819335938 40.9755859375 278.310546875 58.8857421875 309.009765625 c 4
 78.5703125 342.754882812 107.043945312 371.229492188 140.7890625 390.913085938 c 4
 171.625976562 408.903320312 209.73046875 422 256 422 c 4
256 -2.1279296875 m 4
 295.45703125 -2.1279296875 328.481445312 9.228515625 354.724609375 24.658203125 c 4
 383.619140625 41.6455078125 408.153320312 66.1806640625 425.140625 95.07421875 c 4
 440.586914062 121.346679688 451.926757812 154.3046875 451.926757812 193.798828125 c 4
 451.926757812 233.255859375 440.5703125 266.280273438 425.140625 292.5234375 c 4
 408.153320312 321.41796875 383.618164062 345.952148438 354.724609375 362.939453125 c 4
 328.452148438 378.385742188 295.494140625 389.725585938 256 389.725585938 c 4
 216.54296875 389.725585938 183.518554688 378.369140625 157.275390625 362.939453125 c 4
 128.380859375 345.952148438 103.846679688 321.416992188 86.859375 292.5234375 c 4
 71.4130859375 266.250976562 60.0732421875 233.29296875 60.0732421875 193.798828125 c 4
 60.0732421875 181.546875 67.4091796875 173.345703125 76.099609375 169.567382812 c 4
 79.224609375 168.208984375 82.625 167.5234375 86.3486328125 167.5234375 c 4
 109.455078125 167.5234375 120.498046875 180.765625 136.411132812 188.31640625 c 4
 145.9296875 192.833007812 156.791992188 195.798828125 171.174804688 195.798828125 c 4
 197.684570312 195.798828125 218.651367188 184.495117188 232.672851562 170.471679688 c 4
 246.709960938 156.436523438 258 135.502929688 258 108.973632812 c 4
 258 88.3447265625 251.71484375 74.0859375 243.52734375 61.80859375 c 4
 238.766601562 54.6640625 234.573242188 47.2802734375 231.727539062 38.4453125 c 4
 230.404296875 34.337890625 229.724609375 29.5751953125 229.724609375 24.1474609375 c 4
 229.724609375 11.8955078125 237.060546875 3.6943359375 245.750976562 -0.083984375 c 4
 248.875976562 -1.4423828125 252.276367188 -2.1279296875 256 -2.1279296875 c 4
142.899414062 280.624023438 m 4
 156.94140625 280.624023438 166.459960938 272.173828125 170.80078125 262.190429688 c 4
 172.387695312 258.540039062 173.174804688 254.577148438 173.174804688 250.349609375 c 4
 173.174804688 236.305664062 164.724609375 226.7890625 154.740234375 222.448242188 c 4
 151.08984375 220.861328125 147.126953125 220.07421875 142.899414062 220.07421875 c 4
 128.856445312 220.07421875 119.338867188 228.5234375 114.998046875 238.508789062 c 4
 113.411132812 242.158203125 112.624023438 246.12109375 112.624023438 250.349609375 c 4
 112.624023438 264.390625 121.07421875 273.91015625 131.05859375 278.25 c 4
 134.708007812 279.836914062 138.670898438 280.624023438 142.899414062 280.624023438 c 4
227.724609375 337.174804688 m 4
 241.766601562 337.174804688 251.286132812 328.724609375 255.625976562 318.740234375 c 4
 257.212890625 315.090820312 258 311.127929688 258 306.899414062 c 4
 258 292.858398438 249.549804688 283.337890625 239.565429688 278.998046875 c 4
 235.916015625 277.411132812 231.953125 276.624023438 227.724609375 276.624023438 c 4
 213.682617188 276.624023438 204.1640625 285.075195312 199.823242188 295.05859375 c 4
 198.236328125 298.708984375 197.44921875 302.671875 197.44921875 306.899414062 c 4
 197.44921875 320.94140625 205.899414062 330.4609375 215.883789062 334.80078125 c 4
 219.534179688 336.387695312 223.497070312 337.174804688 227.724609375 337.174804688 c 4
340.825195312 248.349609375 m 4
 326.783203125 248.349609375 317.265625 256.798828125 312.924804688 266.783203125 c 4
 311.337890625 270.43359375 310.55078125 274.396484375 310.55078125 278.624023438 c 4
 310.55078125 292.666992188 319 302.18359375 328.984375 306.525390625 c 4
 332.634765625 308.112304688 336.59765625 308.899414062 340.825195312 308.899414062 c 4
 354.868164062 308.899414062 364.385742188 300.450195312 368.7265625 290.46484375 c 4
 370.313476562 286.815429688 371.100585938 282.852539062 371.100585938 278.624023438 c 4
 371.100585938 264.58203125 362.651367188 255.064453125 352.666015625 250.723632812 c 4
 349.016601562 249.13671875 345.053710938 248.349609375 340.825195312 248.349609375 c 4
369.100585938 195.798828125 m 4
 383.142578125 195.798828125 392.662109375 187.348632812 397.001953125 177.364257812 c 4
 398.588867188 173.71484375 399.375976562 169.751953125 399.375976562 165.5234375 c 4
 399.375976562 151.482421875 390.92578125 141.961914062 380.94140625 137.622070312 c 4
 377.291992188 136.03515625 373.329101562 135.248046875 369.100585938 135.248046875 c 4
 355.059570312 135.248046875 345.5390625 143.698242188 341.19921875 153.682617188 c 4
 339.612304688 157.333007812 338.825195312 161.295898438 338.825195312 165.5234375 c 4
 338.825195312 179.56640625 347.276367188 189.083984375 357.259765625 193.424804688 c 4
 360.91015625 195.01171875 364.873046875 195.798828125 369.100585938 195.798828125 c 4
312.55078125 110.973632812 m 4
 326.592773438 110.973632812 336.110351562 102.522460938 340.451171875 92.5390625 c 4
 342.038085938 88.888671875 342.825195312 84.92578125 342.825195312 80.6982421875 c 4
 342.825195312 66.6552734375 334.375 57.1376953125 324.391601562 52.796875 c 4
 320.741210938 51.2099609375 316.778320312 50.4228515625 312.55078125 50.4228515625 c 4
 298.5078125 50.4228515625 288.989257812 58.873046875 284.649414062 68.857421875 c 4
 283.0625 72.5068359375 282.275390625 76.4697265625 282.275390625 80.6982421875 c 4
 282.275390625 94.740234375 290.724609375 104.258789062 300.709960938 108.599609375 c 4
 304.359375 110.186523438 308.322265625 110.973632812 312.55078125 110.973632812 c 4
EndSplineSet
EndChar

StartChar: uniF1AD
Encoding: 226 61869 113
Width: 512
LayerCount: 2
Fore
SplineSet
64 384 m 5
 208 384 l 5
 208 352 l 5
 118.9922 352 l 5
 256.0002 214.992 l 5
 393.0082 352 l 5
 304.0004 352 l 5
 304.0004 384 l 5
 448.0004 384 l 5
 448.0004 240 l 5
 416.0004 240 l 5
 416.0004 329.0078 l 5
 278.9924 191.9998 l 5
 416.0004 54.9918 l 5
 416.0004 143.9996 l 5
 448.0004 143.9996 l 5
 448.0004 -0.000400000000042 l 5
 304.0004 -0.000400000000042 l 5
 304.0004 31.9996 l 5
 393.0082 31.9996 l 5
 256.0002 169.0076 l 5
 118.9922 31.9996 l 5
 208 31.9996 l 5
 208 -0.000400000000042 l 5
 64 -0.000400000000042 l 5
 64 143.9996 l 5
 96 143.9996 l 5
 96 54.9918 l 5
 233.008 191.9998 l 5
 96 329.0078 l 5
 96 240 l 5
 64 240 l 5
 64 384 l 5
EndSplineSet
Validated: 1
EndChar

StartChar: uniF143
Encoding: 227 61763 114
Width: 512
LayerCount: 2
Fore
SplineSet
400 383.52 m 1
 400 383.48875 l 1
 412.2236 383.48875 424.2725 378.7202 433.5039 369.48875 c 0
 451.9521 351.02485 451.9521 320.94485 433.5039 302.48095 c 2
 275.5199 143.98495 l 1
 272.00037 140.46444 l 1
 266.99256 139.504479 l 1
 210.99256 128.464479 l 1
 187.51986 123.504519 l 1
 192.4808 146.992819 l 1
 203.5199 202.992819 l 1
 204.480838 208.000629 l 1
 208.000368 211.520159 l 1
 366.496368 369.504159 l 2
 375.727818 378.719979 387.760068 383.519759 400.000268 383.519759 c 1
 400 383.52 l 1
400 352.48 m 1
 400 352.5278516 l 1
 396.24023 352.5278516 392.57617 350.6079316 389.0078 347.0395716 c 2
 233.9998 192.0315716 l 1
 228.48027 164.5110716 l 1
 255.99977 170.0149816 l 1
 411.00777 324.9919816 l 2
 418.14351 332.1433516 418.14351 339.8562816 411.00777 346.9919816 c 0
 407.42379 350.5593616 403.75972 352.4802616 399.99997 352.4802616 c 1
 400 352.48 l 1
64 320 m 1
 275.008 320 l 1
 243.008 288 l 1
 96 288 l 1
 96 32 l 1
 352 32 l 1
 352 179.008 l 1
 384 211.008 l 1
 384 0 l 1
 64 0 l 1
 64 320 l 1
EndSplineSet
Validated: 37
EndChar

StartChar: uniF135
Encoding: 230 61749 115
Width: 512
VWidth: 2048
Flags: HW
LayerCount: 2
Fore
SplineSet
229.604492188 98.900390625 m 6
 229.825195312 84.1005859375 l 5
 229.825195312 82.1005859375 l 5
 157.137695312 82.1005859375 l 6
 144.765625 82.599609375 134.279296875 86.91796875 125.680664062 95.056640625 c 4
 121.619140625 99.5380859375 118.458984375 104.239257812 116.19921875 109.159179688 c 4
 114.008789062 114.95703125 112.850585938 120.7421875 112.724609375 126.512695312 c 6
 112.724609375 380.990234375 l 6
 113.223632812 393.36328125 117.541992188 403.848632812 125.680664062 412.446289062 c 4
 130.163085938 416.5078125 134.864257812 419.66796875 139.784179688 421.927734375 c 4
 145.58203125 424.118164062 151.3671875 425.276367188 157.137695312 425.40234375 c 6
 270.23828125 425.40234375 l 6
 282.611328125 424.903320312 293.096679688 420.584960938 301.694335938 412.446289062 c 4
 305.755859375 407.96484375 308.916992188 403.263671875 311.176757812 398.34375 c 4
 313.3671875 392.545898438 314.525390625 386.760742188 314.651367188 380.990234375 c 6
 314.651367188 195.3046875 l 5
 303.39453125 191.661132812 292.635742188 186.590820312 282.375976562 180.092773438 c 5
 282.375976562 380.990234375 l 5
 281.21484375 388.48828125 277.168945312 392.534179688 270.23828125 393.127929688 c 6
 157.137695312 393.127929688 l 5
 149.639648438 391.966796875 145.59375 387.920898438 145 380.990234375 c 6
 145 126.512695312 l 5
 146.161132812 119.014648438 150.20703125 114.96875 157.137695312 114.375976562 c 6
 233.095703125 114.375976562 l 5
 229.96875 111.249023438 l 5
 229.740234375 108.51953125 229.619140625 104.403320312 229.604492188 98.900390625 c 6
355.063476562 170.92578125 m 4
 383.064453125 170.40625 406.877929688 160.565429688 426.502929688 141.40234375 c 4
 445.923828125 121.080078125 455.764648438 97.2666015625 456.02734375 69.962890625 c 4
 455.5078125 41.9609375 445.666015625 18.1474609375 426.502929688 -1.4765625 c 4
 406.181640625 -20.896484375 382.368164062 -30.7373046875 355.063476562 -31 c 4
 327.063476562 -30.48046875 303.25 -20.6396484375 283.624023438 -1.4765625 c 4
 264.204101562 18.8447265625 254.36328125 42.658203125 254.100585938 69.962890625 c 4
 254.620117188 97.962890625 264.4609375 121.776367188 283.624023438 141.40234375 c 4
 303.947265625 160.822265625 327.759765625 170.663085938 355.063476562 170.92578125 c 4
296.42578125 105.669921875 m 5
 289.907226562 94.34765625 286.557617188 82.4453125 286.375976562 69.962890625 c 4
 286.891601562 50.8720703125 293.581054688 34.666015625 306.444335938 21.3427734375 c 4
 320.45703125 8.2255859375 336.6640625 1.5361328125 355.063476562 1.2744140625 c 4
 368.18359375 1.6298828125 380.0859375 4.98046875 390.771484375 11.3251953125 c 5
 296.42578125 105.669921875 l 5
413.701171875 34.2548828125 m 5
 420.219726562 45.578125 423.5703125 57.48046875 423.751953125 69.962890625 c 4
 423.231445312 88.771484375 416.467773438 104.904296875 403.462890625 118.361328125 c 4
 389.319335938 131.624023438 373.185546875 138.38671875 355.063476562 138.650390625 c 4
 341.943359375 138.294921875 330.041015625 134.9453125 319.356445312 128.600585938 c 5
 413.701171875 34.2548828125 l 5
270.06640625 -31 m 5
 141 -31 l 5
 141 1.2744140625 l 5
 197.549804688 1.2744140625 l 5
 197.549804688 25.5498046875 l 5
 147.859375 25.5498046875 l 6
 122.506835938 26.072265625 100.903320312 35.0302734375 83.046875 52.4228515625 c 4
 65.3955078125 70.9765625 56.4384765625 92.580078125 56.173828125 117.235351562 c 6
 56.173828125 199.201171875 l 5
 88.44921875 199.201171875 l 5
 88.44921875 117.235351562 l 6
 88.9697265625 100.79296875 94.775390625 86.7958984375 105.8671875 75.2421875 c 4
 118.111328125 63.8955078125 132.108398438 58.08984375 147.859375 57.8251953125 c 6
 229.825195312 57.8251953125 l 5
 229.825195312 1.2744140625 l 5
 242.400390625 1.2744140625 l 5
 249.327148438 -9.65234375 258.548828125 -20.4111328125 270.06640625 -31 c 5
EndSplineSet
EndChar

StartChar: uniF165
Encoding: 232 61797 116
Width: 512
VWidth: 1024
Flags: HW
LayerCount: 2
Fore
SplineSet
256.174804688 371.578125 m 0
 290.8515625 371.578125 319.668945312 361.627929688 342.78125 348.111328125 c 0
 380.131835938 326.264648438 408.809570312 291.388671875 421.676757812 245.53125 c 0
 425.77734375 230.918945312 427.826171875 215.713867188 427.826171875 199.926757812 c 2
 427.826171875 44.4130859375 l 2
 427.826171875 23.783203125 415.5078125 9.7919921875 400.766601562 3.474609375 c 0
 395.358398438 1.15625 389.55859375 0 383.413085938 0 c 0
 368.608398438 0 353.8046875 0 339 0 c 1
 339 173.651367188 l 1
 353.8046875 173.651367188 368.608398438 173.651367188 383.413085938 173.651367188 c 0
 387.55859375 173.651367188 391.609375 173.086914062 395.55078125 171.9609375 c 1
 395.55078125 199.926757812 l 2
 395.55078125 242.309570312 377.045898438 275.920898438 354.607421875 298.359375 c 0
 332.147460938 320.821289062 298.587890625 339.302734375 256.174804688 339.302734375 c 0
 213.79296875 339.302734375 180.178710938 320.797851562 157.7421875 298.359375 c 0
 135.280273438 275.8984375 116.798828125 242.340820312 116.798828125 199.926757812 c 2
 116.798828125 171.9609375 l 1
 120.740234375 173.086914062 124.791015625 173.651367188 128.936523438 173.651367188 c 0
 143.741210938 173.651367188 158.544921875 173.651367188 173.349609375 173.651367188 c 1
 173.349609375 0 l 1
 158.544921875 0 143.741210938 0 128.936523438 0 c 0
 108.306640625 0 94.3154296875 12.318359375 87.998046875 27.0595703125 c 0
 85.6796875 32.4677734375 84.5234375 38.267578125 84.5234375 44.4130859375 c 2
 84.5234375 199.926757812 l 2
 84.5234375 234.603515625 94.4736328125 263.420898438 107.990234375 286.533203125 c 0
 129.833007812 323.883789062 164.71484375 352.561523438 210.5703125 365.428710938 c 0
 225.182617188 369.529296875 240.387695312 371.578125 256.174804688 371.578125 c 0
116.798828125 44.4130859375 m 2
 116.798828125 37.91796875 122.442382812 32.275390625 128.936523438 32.275390625 c 2
 141.07421875 32.275390625 l 1
 141.07421875 141.375976562 l 1
 128.936523438 141.375976562 l 2
 122.44140625 141.375976562 116.798828125 135.732421875 116.798828125 129.23828125 c 2
 116.798828125 44.4130859375 l 2
395.55078125 129.23828125 m 2
 395.55078125 135.733398438 389.907226562 141.375976562 383.413085938 141.375976562 c 2
 371.275390625 141.375976562 l 1
 371.275390625 32.275390625 l 1
 383.413085938 32.275390625 l 2
 389.908203125 32.275390625 395.55078125 37.9189453125 395.55078125 44.4130859375 c 2
 395.55078125 129.23828125 l 2
EndSplineSet
EndChar

StartChar: uniF1CB
Encoding: 234 61899 117
Width: 512
Flags: HW
LayerCount: 2
Fore
SplineSet
242 163 m 1
 274 163 l 1
 274 131 l 1
 242 131 l 1
 242 163 l 1
322 351 m 1
 354 351 l 1
 354 331 l 1
 416 331 l 1
 416 -1 l 1
 96 -1 l 1
 96 331 l 1
 157 331 l 1
 157 351 l 1
 189 351 l 1
 189 331 l 1
 322 331 l 1
 322 351 l 1
315 163 m 1
 347 163 l 1
 347 131 l 1
 315 131 l 1
 315 163 l 1
242 95 m 1
 274 95 l 1
 274 63 l 1
 242 63 l 1
 242 95 l 1
315 95 m 1
 347 95 l 1
 347 63 l 1
 315 63 l 1
 315 95 l 1
171 95 m 1
 203 95 l 1
 203 63 l 1
 171 63 l 1
 171 95 l 1
240 299 m 1
 189 299 l 1
 189 282 l 1
 157 282 l 1
 157 299 l 1
 128 299 l 1
 128 267 l 1
 384 267 l 1
 384 299 l 1
 354 299 l 1
 354 282 l 1
 322 282 l 1
 322 299 l 1
 240 299 l 1
384 235 m 1
 128 235 l 1
 128 31 l 1
 384 31 l 1
 384 235 l 1
EndSplineSet
EndChar

StartChar: uniF1F0
Encoding: 235 61936 118
Width: 512
VWidth: 1024
Flags: HW
LayerCount: 2
Fore
SplineSet
365.419921875 220.72265625 m 1
 346.483398438 220.72265625 331.131835938 205.372070312 331.131835938 186.434570312 c 0
 331.131835938 167.498046875 346.483398438 152.147460938 365.419921875 152.147460938 c 0
 384.356445312 152.147460938 399.688476562 167.498046875 399.688476562 186.434570312 c 0
 399.688476562 205.372070312 384.356445312 220.72265625 365.419921875 220.72265625 c 1
 365.419921875 220.72265625 365.419921875 220.72265625 365.419921875 220.72265625 c 1
146.954101562 220.72265625 m 1
 128.016601562 220.72265625 112.665039062 205.372070312 112.665039062 186.434570312 c 0
 112.665039062 167.498046875 128.016601562 152.147460938 146.954101562 152.147460938 c 0
 165.888671875 152.147460938 181.2421875 167.498046875 181.2421875 186.434570312 c 0
 181.2421875 205.372070312 165.888671875 220.72265625 146.954101562 220.72265625 c 1
 146.954101562 220.72265625 146.954101562 220.72265625 146.954101562 220.72265625 c 1
256.051757812 220.72265625 m 1
 237.115234375 220.72265625 221.763671875 205.372070312 221.763671875 186.434570312 c 0
 221.763671875 167.498046875 237.115234375 152.147460938 256.051757812 152.147460938 c 0
 274.98828125 152.147460938 290.321289062 167.498046875 290.321289062 186.434570312 c 0
 290.321289062 205.372070312 274.98828125 220.72265625 256.051757812 220.72265625 c 1
 256.051757812 220.72265625 256.051757812 220.72265625 256.051757812 220.72265625 c 1
EndSplineSet
EndChar

StartChar: uniF1F1
Encoding: 236 61937 119
Width: 512
Flags: HW
LayerCount: 2
Fore
SplineSet
249 194 m 5
 326 194 l 5
 326 162 l 5
 249 162 l 5
 249 194 l 5
142.817382812 273.260742188 m 5
 162.501953125 292.947265625 l 5
 184.31640625 270.953125 206.615234375 249.427734375 227.991210938 226.99609375 c 5
 206.603515625 204.583007812 184.395507812 182.953125 162.494140625 161.051757812 c 5
 142.805664062 180.739257812 l 5
 189.110351562 227 l 5
 147.833984375 268.260742188 l 5
 142.817382812 273.260742188 l 5
80 353 m 5
 432 353 l 5
 432 1 l 5
 80 1 l 5
 80 353 l 5
112 321 m 5
 112 33 l 5
 400 33 l 5
 400 321 l 5
 112 321 l 5
EndSplineSet
EndChar

StartChar: uniF1F4
Encoding: 239 61940 120
Width: 512
Flags: HW
LayerCount: 2
Fore
SplineSet
240 336 m 0
 195.6318 336 160 300.3682 160 256 c 0
 160 211.6318 195.6318 176 240 176 c 0
 284.3682 176 362.807617188 250.74609375 358 256 c 0
 304.700195312 314.251953125 284.3682 336 240 336 c 0
240 367.9996 m 0
 304.813309523 364.729822898 357 310 396 254 c 0
 397.294856975 252.140718189 410.339359394 249.830699884 302.4961 163.0078 c 1
 359.5684 138.5283 400 81.9199 400 15.9998 c 1
 368 15.9998 l 1
 368 86.8797 310.8799 143.9998 240 143.9998 c 0
 169.1201 143.9998 112 86.8797 112 15.9998 c 1
 80 15.9998 l 1
 80 81.9197 120.4316 138.5118 177.5039 162.9918 c 1
 147.6797 183.1676 128 217.44 128 255.9996 c 0
 128 317.6637 178.3359 367.9996 240 367.9996 c 0
EndSplineSet
EndChar

StartChar: uniF1F5
Encoding: 240 61941 121
Width: 512
Flags: HW
LayerCount: 2
Fore
SplineSet
355.424804688 167.919921875 m 5
 378.543945312 167.919921875 l 5
 378.543945312 151.666992188 l 5
 388.139648438 149.978515625 396.87890625 146.1875 404.5546875 140.823242188 c 5
 415.38671875 151.666992188 l 5
 431.651367188 135.413085938 l 5
 420.807617188 124.5703125 l 5
 426.171875 116.89453125 429.962890625 108.155273438 431.651367188 98.5595703125 c 5
 447.904296875 98.5595703125 l 5
 447.904296875 75.4404296875 l 5
 431.662109375 75.4404296875 l 5
 429.952148438 65.7646484375 426.252929688 56.8056640625 420.819335938 49.060546875 c 5
 432.032226562 37.1533203125 l 5
 415.0390625 21.2470703125 l 5
 404.21875 32.806640625 l 5
 396.625 27.6044921875 387.965820312 23.998046875 378.555664062 22.3330078125 c 5
 378.555664062 6.080078125 l 5
 355.435546875 6.080078125 l 5
 355.435546875 22.322265625 l 5
 345.841796875 24.009765625 337.1015625 27.8017578125 329.42578125 33.1650390625 c 5
 317.51953125 20.865234375 l 5
 300.873046875 37.51171875 l 5
 313.161132812 49.4189453125 l 5
 307.796875 57.0947265625 304.005859375 65.833984375 302.317382812 75.4287109375 c 5
 286.064453125 75.4287109375 l 5
 286.064453125 98.548828125 l 5
 302.317382812 98.548828125 l 5
 303.982421875 107.958007812 307.600585938 116.6171875 312.802734375 124.211914062 c 5
 301.2421875 135.04296875 l 5
 317.137695312 152.036132812 l 5
 329.067382812 140.823242188 l 5
 336.778320312 146.268554688 345.749023438 149.956054688 355.424804688 151.666992188 c 5
 355.424804688 167.919921875 l 5
366.984375 129.622070312 m 5
 366.984375 129.6328125 l 5
 343.228515625 129.6328125 324.3515625 110.755859375 324.3515625 87 c 4
 324.3515625 63.244140625 343.228515625 44.3671875 366.984375 44.3671875 c 4
 390.740234375 44.3671875 409.6171875 63.244140625 409.6171875 87 c 4
 409.6171875 110.755859375 390.740234375 129.622070312 366.984375 129.622070312 c 5
 366.984375 129.622070312 l 5
284.48046875 144.48046875 m 5
 266.4639 154.27249 246.0157 160 224 160 c 4
 153.1201 160 96 102.8799 96 32 c 5
 64 32 l 5
 64 97.9199 104.4316 154.512 161.5039 178.992 c 5
 131.6797 199.1678 112 233.4402 112 271.9998 c 4
 112 333.6639 162.3359 383.9998 224 383.9998 c 5
 224 384 l 5
 285.6641 384 336 333.6641 336 272 c 4
 336 233.4404 316.3203 199.1523 286.4961 179.0078 c 5
 294.27247 175.67968 301.9199 171.95214 308.9922 167.5195 c 5
 312.440090462 170.820986925 286.105508647 145.58398568 284.48046875 144.48046875 c 5
224 352 m 4
 179.6318 352 144 316.3682 144 272 c 4
 144 227.6318 179.6318 192 224 192 c 4
 268.3682 192 304 227.6318 304 272 c 4
 304 316.3682 268.3682 352 224 352 c 4
  Spiro
    224 352 o
    183.576 341.14 o
    154.86 312.424 o
    144 272 o
    154.86 231.576 o
    183.576 202.86 o
    224 192 o
    264.424 202.86 o
    293.14 231.576 o
    304 272 o
    293.14 312.424 o
    264.424 341.14 o
    0 0 z
  EndSpiro
284.48046875 144.48046875 m 1028
EndSplineSet
EndChar

StartChar: uniF1EB
Encoding: 245 61931 122
Width: 512
Flags: HW
LayerCount: 2
Fore
SplineSet
79.99985 319.99957 m 5
 80 63.984 l 5
 214.496 63.984 l 5
 219.51944 59.4713 l 5
 255.99994 22.9918 l 5
 292.49604 59.5191 l 5
 297.50385 63.99957 l 5
 431.99985 63.99957 l 5
 431.99985 319.99957 l 5
 79.99985 319.99957 l 5
47.9996 352 m 5
 464 352 l 5
 464 32 l 5
 310.992 32 l 5
 267.5359 -11.5039 l 5
 256.0154 -22.4961 l 5
 244.4959 -11.5195 l 5
 201.0076 32 l 5
 47.9996 32 l 5
 47.9996 352 l 5
220 243.49609375 m 5
 220 243.48046875 l 5
 231.51953125 232.471679688 l 5
 268 195.9921875 l 5
 288.48046875 216.50390625 l 5
 300 227.49609375 l 5
 311.51953125 216.51953125 l 5
 353.507723637 174.531338863 l 5
 402 127 l 5
 379.008789062 103.9609375 l 5
 336.96143698 146.008289583 l 5
 336.48046875 145.528320312 l 5
 300 182.0078125 l 5
 279.51953125 161.51171875 l 5
 268 150.51953125 l 5
 256.48046875 161.528320312 l 5
 220 198.0078125 l 5
 167.51953125 145.463867188 l 5
 167.469040374 145.514360203 l 5
 130 108 l 5
 106.9609375 131.040039062 l 5
 170.9609375 195.040039062 l 5
 172.176888021 196.200325521 l 5
 208.48046875 232.50390625 l 5
 220 243.49609375 l 5
368.50390625 280 m 4
 377.3359375 280 395.50390625 261.83203125 395.50390625 253 c 4
 395.50390625 244.16796875 377.3359375 226 368.50390625 226 c 4
 359.65625 226 341.50390625 244.16796875 341.50390625 253 c 4
 341.50390625 261.83203125 359.65625 280 368.50390625 280 c 4
EndSplineSet
EndChar

StartChar: uniF1ED
Encoding: 247 61933 123
Width: 512
Flags: HW
LayerCount: 2
Fore
SplineSet
144 136 m 5
 399 136 l 5
 438 136 l 5
 438 289 l 5
 399 289 l 5
 399 194 l 5
 367 194 l 5
 367 289 l 5
 335 289 l 5
 335 236 l 5
 303 236 l 5
 303 289 l 5
 270 289 l 5
 270 190 l 5
 238 190 l 5
 238 289 l 5
 206 289 l 5
 206 236 l 5
 174 236 l 5
 174 289 l 5
 144 289 l 5
 144 190 l 5
 112 190 l 5
 112 289 l 5
 74 289 l 5
 74 136 l 5
 144 136 l 5
42 321 m 5
 470 321 l 5
 470 104 l 5
 42 104 l 5
 42 321 l 5
EndSplineSet
EndChar

StartChar: uniF1EE
Encoding: 248 61934 124
Width: 512
Flags: H
LayerCount: 2
Fore
SplineSet
145.205299822 267.794700178 m 1029
118.398793626 294.601206374 m 1029
224 32 m 1
 224 64 l 1
 288 64 l 1
 288 32 l 1
 224 32 l 1
413 12 m 1
 60 360 l 1
 86 384 l 1
 136.442978249 333.846685184 l 1
 159.279837712 368.570950092 197.034227433 389.947412288 239.51999 398.4964 c 0
 239.680146 398.5286266 239.840302 398.4964 240.000459 398.4964 c 0
 245.376439 399.15265 250.720159 399.456361 256.000459 399.51984 c 0
 334.9443 400.256328 400 335.0405 400 256 c 0
 400 212.7197 380 175.04 353.5039 148.512 c 0
 348.28839593 143.29021672 343.387963266 137.938197696 339.143045986 132.31060101 c 1
 437.0078125 35.0078125 l 1
 413 12 l 1
296.747070312 115.740234375 m 1
 294.790778068 109.325216424 293.353729735 102.728994476 292.4638734 96.000635 c 1
 222.4804734 96.000635 l 1
 218.9599734 123.424435 207.2001734 149.968435 184.9755734 169.008435 c 0
 157.320969247 192.700364802 140.263671875 224.072265625 145 264 c 1
 118 290 l 1
 116.055664062 283.309570312 114.967714183 281.036788027 113.99999 274.0164 c 0
 106.83199 222.0159 128.27249 174.8646 163.99999 144.4964 c 0
 179.29589 131.4085 188.75194 113.888 191.99999 96.0159 c 2
 191.99999 0.0159 l 1
 228.48049 0.0159 l 1
 234.04789 -9.53586 244.20799 -15.9841 255.99999 -15.9841 c 0
 267.79199 -15.9841 277.95211 -9.53586 283.51949 0.0159 c 1
 319.99999 0.0159 l 1
 319.99999 64.0159 l 1
 321.5039 83.0247 l 2
 321.729909662 85.8814289174 321.689319363 88.8128140975 322.051757812 91.701171875 c 2
 296.747070312 115.740234375 l 1
159.580421558 310.84210618 m 1
 316.689990539 154.634722176 l 1
 321.105204101 160.449475473 326.054763481 165.928009486 331.5038734 171.008435 c 1
 330.9921544 171.520154 l 1
 352.4804544 192.992854 367.9999544 222.496754 367.9999544 256.000654 c 0
 367.9999544 317.760454 317.8397544 368.384654 255.9999544 367.520654 c 1
 255.9677734 367.504375 l 2
 251.8398434 367.4408984 247.6796834 367.024883 243.4882734 366.480935 c 0
 208.027218029 361.878910825 177.047831322 340.968174292 159.580421558 310.84210618 c 1
EndSplineSet
EndChar

StartChar: uniF1FA
Encoding: 250 61946 125
Width: 512
Flags: HW
LayerCount: 2
Fore
SplineSet
399.915039062 395.393554688 m 5
 441.227539062 354.081054688 467.616210938 305.076171875 479.081054688 248.377929688 c 4
 489.994140625 191.319335938 484.618164062 136.444335938 462.952148438 83.75390625 c 4
 447.803710938 48.0673828125 426.791015625 16.78515625 399.915039062 -10.0908203125 c 5
 377.206054688 12.6181640625 l 5
 413.676757812 49.0888671875 437.123046875 92.6279296875 447.545898438 143.236328125 c 4
 457.266601562 193.411132812 452.48046875 242.100585938 433.189453125 289.305664062 c 4
 419.770507812 320.98828125 401.110351562 348.78125 377.206054688 372.684570312 c 5
 399.915039062 395.393554688 l 5
340.05078125 335.530273438 m 5
 369.065429688 306.515625 387.721679688 271.907226562 396.022460938 231.704101562 c 4
 403.625976562 191.916015625 399.833007812 153.387695312 384.643554688 116.120117188 c 4
 373.87890625 90.8525390625 359.014648438 68.7373046875 340.05078125 49.7724609375 c 5
 317.12109375 72.703125 l 5
 333.486328125 89.0673828125 346.073242188 107.657226562 354.880859375 128.471679688 c 4
 363.264648438 149.3671875 367.520507812 170.759765625 367.651367188 192.651367188 c 4
 367.387695312 215.2109375 363.130859375 236.603515625 354.880859375 256.831054688 c 4
 345.784179688 277.934570312 333.197265625 296.524414062 317.12109375 312.599609375 c 5
 340.05078125 335.530273438 l 5
279.965820312 275.4453125 m 5
 303.110351562 252.299804688 314.822265625 224.702148438 315.1015625 192.651367188 c 4
 314.557617188 160.3359375 302.845703125 132.737304688 279.965820312 109.857421875 c 5
 257.256835938 132.56640625 l 5
 274.02734375 149.336914062 282.55078125 169.365234375 282.826171875 192.651367188 c 4
 282.291015625 216.196289062 273.768554688 236.224609375 257.256835938 252.736328125 c 5
 279.965820312 275.4453125 l 5
223 390.5 m 5
 223 352 l 5
 223 32 l 5
 223 -6.5 l 5
 195.5 20.5 l 5
 104 112 l 5
 47 112 l 5
 31 112 l 5
 31 128 l 5
 31 256 l 5
 31 272 l 5
 47 272 l 5
 104 272 l 5
 195.5 363.5 l 5
 223 390.5 l 5
191 313 m 5
 122.5 244.5 l 5
 117.5 240 l 5
 111 240 l 5
 63 240 l 5
 63 144 l 5
 111 144 l 5
 117.5 144 l 5
 122.5 139.5 l 5
 191 71 l 5
 191 313 l 5
EndSplineSet
EndChar

StartChar: uniF1FB
Encoding: 251 61947 126
Width: 512
Flags: HW
LayerCount: 2
Fore
SplineSet
272 390.5 m 5
 272 352 l 5
 272 32 l 5
 272 -6.5 l 5
 244.5 20.5 l 5
 153 112 l 5
 96 112 l 5
 80 112 l 5
 80 128 l 5
 80 256 l 5
 80 272 l 5
 96 272 l 5
 153 272 l 5
 244.5 363.5 l 5
 272 390.5 l 5
381 317 m 5
 449.4921875 248.5078125 449.4921875 136.9921875 381 68.5 c 5
 358.5 91.5 l 5
 414.807617188 147.807617188 414.807617188 238.192382812 358.5 294.5 c 5
 381 317 l 5
240 313 m 5
 171.5 244.5 l 5
 166.5 240 l 5
 160 240 l 5
 112 240 l 5
 112 144 l 5
 160 144 l 5
 166.5 144 l 5
 171.5 139.5 l 5
 240 71 l 5
 240 313 l 5
334.5 270.5 m 5
 377.530273438 227.469726562 377.637695312 156.491210938 335 112 c 6
 311.5 134.5 l 5
 342.462890625 166.80859375 342.569335938 217.430664062 312 248 c 6
 334.5 270.5 l 5
EndSplineSet
EndChar

StartChar: uniF1B0
Encoding: 107 61872 151
Width: 512
VWidth: 2048
Flags: HW
LayerCount: 2
Fore
SplineSet
149.936523438 375.86328125 m 0
 183.3125 394.920898438 218.825195312 404.409179688 256.4765625 404.330078125 c 0
 294.267578125 404.249023438 329.541015625 394.759765625 362.29296875 375.86328125 c 0
 394.12890625 356.833984375 419.291015625 331.673828125 437.775390625 300.381835938 c 0
 456.713867188 267.209960938 466.263671875 231.817382812 466.424804688 194.203125 c 0
 466.104492188 155.967773438 456.555664062 120.575195312 437.775390625 88.0244140625 c 0
 418.74609375 56.189453125 393.584960938 31.02734375 362.29296875 12.5419921875 c 0
 329.12109375 -6.3974609375 293.728515625 -15.9462890625 256.114257812 -16.107421875 c 0
 217.87890625 -15.787109375 182.486328125 -6.2392578125 149.936523438 12.5419921875 c 0
 118.100585938 31.572265625 92.9384765625 56.732421875 74.4541015625 88.0244140625 c 0
 55.513671875 121.194335938 45.962890625 156.587890625 45.8037109375 194.203125 c 0
 46.1240234375 232.438476562 55.6728515625 267.831054688 74.4541015625 300.380859375 c 0
 93.4833984375 332.216796875 118.64453125 357.37890625 149.936523438 375.86328125 c 0
354.528320312 274.221679688 m 1
 417.883789062 274.221679688 l 1
 401.899414062 305.900390625 378.469726562 331.087890625 347.59765625 349.784179688 c 0
 338.583984375 355.03515625 329.581054688 359.413085938 320.587890625 362.918945312 c 1
 335.961914062 339.375976562 347.274414062 309.810546875 354.528320312 274.221679688 c 1
362.190429688 194.203125 m 128
 362.190429688 177.428710938 361.185546875 160.670898438 359.174804688 143.928710938 c 1
 429.614257812 143.928710938 l 1
 434.240234375 160.390625 436.53125 177.301757812 436.48828125 194.663085938 c 128
 436.4453125 212.026367188 434.154296875 228.630859375 429.614257812 244.477539062 c 1
 359.174804688 244.477539062 l 1
 361.185546875 227.733398438 362.190429688 210.974609375 362.190429688 194.203125 c 128
256.114257812 13.63671875 m 0
 262.65625 13.9912109375 268.537109375 15.728515625 273.754882812 18.84765625 c 0
 279.592773438 22.8779296875 284.772460938 27.5654296875 289.295898438 32.91015625 c 0
 304.768554688 52.603515625 316.360351562 79.6953125 324.075195312 114.184570312 c 1
 188.154296875 114.184570312 l 1
 193.26171875 91.724609375 200.548828125 71.275390625 210.015625 52.841796875 c 0
 214.08984375 45.2216796875 218.39453125 38.578125 222.93359375 32.91015625 c 0
 228.071289062 27.0078125 233.250976562 22.3203125 238.473632812 18.84765625 c 0
 244.313476562 15.5439453125 250.194335938 13.8076171875 256.114257812 13.63671875 c 0
179.783203125 194.203125 m 128
 179.783203125 178.477539062 180.865234375 161.719726562 183.029296875 143.928710938 c 1
 329.19921875 143.928710938 l 1
 331.36328125 161.71875 332.4453125 178.4765625 332.4453125 194.203125 c 128
 332.4453125 209.928710938 331.36328125 226.686523438 329.19921875 244.477539062 c 1
 183.029296875 244.477539062 l 1
 180.865234375 226.686523438 179.783203125 209.928710938 179.783203125 194.203125 c 128
150.038085938 194.203125 m 128
 150.038085938 210.975585938 151.043945312 227.734375 153.0546875 244.477539062 c 1
 82.615234375 244.477539062 l 1
 77.9892578125 228.015625 75.6982421875 211.104492188 75.7412109375 193.741210938 c 128
 75.783203125 176.379882812 78.07421875 159.775390625 82.615234375 143.928710938 c 1
 153.0546875 143.928710938 l 1
 151.043945312 160.672851562 150.038085938 177.430664062 150.038085938 194.203125 c 128
256.114257812 374.76953125 m 0
 249.572265625 374.4140625 243.692382812 372.676757812 238.473632812 369.557617188 c 0
 232.63671875 365.52734375 227.45703125 360.83984375 222.93359375 355.494140625 c 0
 207.4609375 335.802734375 195.868164062 308.7109375 188.154296875 274.221679688 c 1
 324.075195312 274.221679688 l 1
 318.967773438 296.681640625 311.6796875 317.129882812 302.212890625 335.564453125 c 0
 298.139648438 343.184570312 293.834960938 349.827148438 289.295898438 355.494140625 c 0
 284.158203125 361.397460938 278.977539062 366.084960938 273.754882812 369.557617188 c 0
 267.915039062 372.862304688 262.034179688 374.598632812 256.114257812 374.76953125 c 0
157.701171875 274.221679688 m 1
 161.455078125 292.64453125 165.430664062 307.350585938 169.627929688 318.341796875 c 0
 176.415039062 336.118164062 183.752929688 350.9765625 191.640625 362.918945312 c 1
 159.477539062 350.181640625 132.802734375 329.979492188 111.618164062 302.314453125 c 0
 104.8515625 293.129882812 99.0947265625 283.765625 94.3447265625 274.221679688 c 1
 157.701171875 274.221679688 l 1
157.701171875 114.184570312 m 1
 94.3447265625 114.184570312 l 1
 110.330078125 82.505859375 133.758789062 57.318359375 164.631835938 38.62109375 c 0
 173.645507812 33.37109375 182.6484375 28.9931640625 191.640625 25.4873046875 c 1
 176.266601562 49.0302734375 164.954101562 78.5966796875 157.701171875 114.184570312 c 1
354.528320312 114.184570312 m 1
 350.774414062 95.76171875 346.798828125 81.0556640625 342.6015625 70.064453125 c 0
 335.813476562 52.2880859375 328.475585938 37.4296875 320.587890625 25.4873046875 c 1
 352.750976562 38.224609375 379.42578125 58.4248046875 400.611328125 86.0908203125 c 0
 407.377929688 95.275390625 413.134765625 104.639648438 417.883789062 114.184570312 c 1
 354.528320312 114.184570312 l 1
EndSplineSet
EndChar

StartChar: uniF1DC
Encoding: 189 61916 152
Width: 512
VWidth: 2048
Flags: HW
LayerCount: 2
Fore
SplineSet
368.66796875 207.573242188 m 5
 368.66796875 235.80859375 l 5
 373.387695312 235.80859375 378.106445312 235.80859375 382.826171875 235.80859375 c 4
 409.375976562 235.540039062 432.787109375 225.770507812 452.73828125 206.7421875 c 4
 471.646484375 187.361328125 481.1796875 164.094726562 481.1796875 136.828125 c 4
 481.1796875 110.154296875 471.610351562 86.736328125 452.703125 66.912109375 c 4
 433.439453125 48.1181640625 410.03125 38.4130859375 382.805664062 37.8818359375 c 6
 269.684570312 37.8818359375 l 6
 243.134765625 38.150390625 219.721679688 47.919921875 199.772460938 66.947265625 c 4
 180.864257812 86.330078125 171.331054688 109.596679688 171.331054688 136.86328125 c 4
 171.331054688 163.537109375 180.900390625 186.954101562 199.807617188 206.77734375 c 4
 219.072265625 225.5703125 242.48046875 235.27734375 269.705078125 235.80859375 c 4
 274.41796875 235.80859375 279.129882812 235.80859375 283.842773438 235.80859375 c 5
 283.842773438 207.560546875 l 5
 227.89453125 206.397460938 200.021484375 184.0546875 199.016601562 136.873046875 c 4
 199.274414062 118.153320312 206.127929688 101.66015625 219.868164062 87.0546875 c 4
 233.765625 73.603515625 250.263671875 66.6669921875 269.705078125 66.1572265625 c 6
 382.77734375 66.1572265625 l 6
 401.499023438 66.4150390625 417.9921875 73.2685546875 432.595703125 87.0087890625 c 4
 446.047851562 100.908203125 452.984375 117.383789062 453.494140625 136.822265625 c 4
 452.985351562 183.584960938 425.094726562 206.030273438 368.66796875 207.573242188 c 5
339.801757812 221.690429688 m 4
 339.801757812 248.466796875 330.348632812 271.698242188 311.3125 291.619140625 c 4
 291.966796875 310.5078125 268.775390625 320.118164062 241.391601562 320.633789062 c 6
 128.329101562 320.633789062 l 6
 101.672851562 320.374023438 78.4443359375 310.7265625 58.380859375 291.553710938 c 4
 39.3837890625 272.096679688 29.95703125 249.028320312 29.95703125 221.649414062 c 4
 29.95703125 194.873046875 39.41015625 171.642578125 58.4462890625 151.72265625 c 4
 77.7919921875 132.833007812 100.983398438 123.22265625 128.3671875 122.70703125 c 4
 133.067382812 122.70703125 137.766601562 122.70703125 142.466796875 122.70703125 c 5
 142.466796875 150.982421875 l 5
 87.5869140625 151.3828125 58.662109375 175.0390625 57.640625 221.625976562 c 4
 57.912109375 240.252929688 64.9091796875 256.97265625 78.470703125 271.436523438 c 4
 92.271484375 284.7734375 108.998046875 291.82421875 128.272460938 292.357421875 c 6
 241.4296875 292.357421875 l 6
 260.05859375 292.086914062 276.734375 285.08984375 291.196289062 271.528320312 c 4
 304.533203125 257.725585938 311.583984375 241 312.1171875 221.727539062 c 4
 311.583007812 175.477539062 282.651367188 151.75390625 227.3203125 150.982421875 c 4
 227.291992188 122.70703125 l 5
 241.4296875 122.70703125 l 6
 268.084960938 122.966796875 291.313476562 132.615234375 311.377929688 151.788085938 c 4
 330.375 171.244140625 339.801757812 194.311523438 339.801757812 221.690429688 c 4
EndSplineSet
EndChar

